SplineFontDB: 3.2
FontName: SteMiNormal
FullName: SteMiNormal SIL
FamilyName: SteMi SIL
Weight: Normal
Copyright: Created by Krzysztof Stenografow (Smirnow), with FontForge 2.0 (http://www.stenografia.pl)
Version: 002.000
ItalicAngle: 0
UnderlinePosition: -298
UnderlineWidth: 148
Ascent: 2000
Descent: 1000
InvalidEm: 0
sfntRevision: 0x00020000
LayerCount: 2
Layer: 0 0 "Warstwa t+AUIA-a" 1
Layer: 1 0 "Plan pierwszy" 0
HasVMetrics: 1
XUID: [1021 102 2042332360 5204101]
StyleMap: 0x0040
FSType: 0
OS2Version: 4
OS2_WeightWidthSlopeOnly: 0
OS2_UseTypoMetrics: 1
CreationTime: 1379607424
ModificationTime: 1690268938
PfmFamily: 65
TTFWeight: 300
TTFWidth: 3
LineGap: 270
VLineGap: 270
Panose: 2 0 5 3 0 0 0 0 0 0
OS2TypoAscent: 2000
OS2TypoAOffset: 0
OS2TypoDescent: -1000
OS2TypoDOffset: 0
OS2TypoLinegap: 270
OS2WinAscent: 3557
OS2WinAOffset: 0
OS2WinDescent: 1092
OS2WinDOffset: 0
HheadAscent: 3557
HheadAOffset: 0
HheadDescent: -1092
HheadDOffset: 0
OS2SubXSize: 1950
OS2SubYSize: 2100
OS2SubXOff: 0
OS2SubYOff: 420
OS2SupXSize: 1950
OS2SupYSize: 2100
OS2SupXOff: 0
OS2SupYOff: 1440
OS2StrikeYSize: 149
OS2StrikeYPos: 776
OS2FamilyClass: 2560
OS2Vendor: 'KsMi'
OS2CodePages: 00000001.00000000
OS2UnicodeRanges: 00000007.02000000.04000000.00000000
Lookup: 1 0 0 "'liga' Ligatury zwyk+AUIA-e w +AUIA-aci+AUQA-skie w tablicy 0" { "Podtablica 'liga' Ligatury zwyk+AUIA-e w +AUIA-aci+AUQA-skie w tablicy 0"  } ['liga' ('latn' <'dflt' > 'DFLT' <'dflt' > ) ]
Lookup: 4 0 1 "'liga' Ligatury zwyk+AUIA-e w +AUIA-aci+AUQA-skie w tablicy 1" { "Podtablica 'liga' Ligatury zwyk+AUIA-e w +AUIA-aci+AUQA-skie w tablicy 1"  } ['liga' ('latn' <'dflt' > 'DFLT' <'dflt' > ) ]
Lookup: 258 0 0 "'kern' Kerning poziomy w tablicy 1" { "'kern' Kerning poziomy w tablicy 1-1 w.alt-samgl" [450,45,2] } ['kern' ('DFLT' <'dflt' > 'arab' <'dflt' > 'grek' <'dflt' > 'latn' <'dflt' > ) ]
MarkAttachClasses: 1
DEI: 91125
MacFeat: 0 0 0
MacName: 0 0 24 "All Typographic Features"
MacName: 0 1 24 "Fonctions typographiques"

StartChar: .notdef
Encoding: 1114112 -1 0
Width: 1500
Flags: HMW
HStem: 0 150<300 1200 300 1350> 1183 150<300 1200 300 300>
VStem: 150 150<150 150 150 1183> 1200 150<150 1183 1183 1183>
LayerCount: 2
Fore
SplineSet
150 0 m 1
 150 1333 l 1
 1350 1333 l 1
 1350 0 l 1
 150 0 l 1
300 150 m 1
 1200 150 l 1
 1200 1183 l 1
 300 1183 l 1
 300 150 l 1
EndSplineSet
Validated: 1
EndChar

StartChar: exclam
Encoding: 33 33 2
Width: 1233
VWidth: 2048
Flags: HMW
HStem: 382 175<592 628.5 592 634.5> 1783 227<594 638>
VStem: 322 147<1220 1345 1220 1352.5> 770 156<1193.5 1320>
LayerCount: 2
Fore
SplineSet
484 1532 m 0
 473 1487 469 1395 469 1295 c 0
 469 1145 478 976 483 912 c 1
 489 854 498 796 515 734 c 1
 538 615 574 557 610 557 c 0
 647 557 683 616 709 734 c 1
 726 785 741 842 750 912 c 1
 761 973 770 1123 770 1264 c 0
 770 1376 765 1482 749 1532 c 1
 705 1699 660 1783 616 1783 c 0
 572 1783 528 1700 484 1532 c 0
671 200 m 1
 853 201 l 1
 685 10 l 1
 843 -182 l 1
 661 -184 l 1
 611 -74 l 1
 540 -188 l 1
 379 -185 l 1
 540 3 l 1
 380 201 l 1
 557 201 l 1
 617 97 l 1
 671 200 l 1
351 1638 m 1
 428 1886 517 2010 609 2010 c 0
 700 2010 794 1887 882 1638 c 1
 914 1535 926 1402 926 1268 c 0
 926 1112 910 954 888 838 c 1
 865 696 813 583 760 481 c 1
 709 415 659 382 610 382 c 0
 561 382 514 414 467 481 c 1
 397 605 359 722 345 838 c 1
 334 958 322 1126 322 1289 c 0
 322 1416 330 1541 351 1638 c 1
EndSplineSet
Validated: 1
EndChar

StartChar: quotedbl
Encoding: 34 34 3
Width: 1233
VWidth: 2048
Flags: HMW
HStem: 938 555<338 512 338 512 721 895 338 721>
VStem: 338 174<938 1493 938 1493> 721 174<938 1493 938 1493>
LayerCount: 2
Fore
SplineSet
895 1493 m 1
 895 938 l 1
 721 938 l 1
 721 1493 l 1
 895 1493 l 1
512 1493 m 1
 512 938 l 1
 338 938 l 1
 338 1493 l 1
 512 1493 l 1
EndSplineSet
Validated: 1
EndChar

StartChar: numbersign
Encoding: 35 35 4
Width: 2923
VWidth: 2048
Flags: HMW
HStem: 836.6 149.801 836.6 214.2 1518.4 215.6 1580.42 153.582
VStem: 1082.9 158.83 1082.9 222.6 1658.3 222.601 1659.7 191.8 1714.38 158.116
LayerCount: 2
Fore
SplineSet
1852 257 m 1x81
 1660 257 l 1
 1490 837 l 1
 1306 837 l 1
 1306 257 l 1
 1083 257 l 1
 1082 837 l 1
 684 837 l 1x85
 684 1051 l 1
 1089 1222 l 1
 1087 1518 l 1
 681 1518 l 1
 681 1734 l 1
 1083 1734 l 1x68
 1083 2315 l 1
 1300 2315 l 1
 1470 1734 l 1x14
 1650 1734 l 1x24
 1648 2315 l 1
 1880 2315 l 1
 1874 1734 l 1
 2301 1734 l 1x14
 2301 1518 l 1
 1879 1341 l 1
 1881 1051 l 1
 2260 1051 l 1
 2260 837 l 1x66
 1872 837 l 1x8080
 1852 257 l 1x81
1085 987 m 1
 1085 1036 l 1
 897 988 l 1
 897 986 l 1
 1085 987 l 1
1877 1580 m 1x10
 1877 1531 l 1
 2065 1580 l 1
 2065 1581 l 1
 1877 1580 l 1x10
1242 1734 m 1x08
 1291 1734 l 1
 1243 1922 l 1
 1241 1922 l 1
 1242 1734 l 1x08
1714 836 m 1
 1665 836 l 1
 1713 648 l 1
 1714 648 l 1x0080
 1714 836 l 1
1314 1102 m 1
 1314 1051 l 1
 1431 1051 l 1x40
 1406 1141 l 1
 1314 1102 l 1
1669 1265 m 1
 1609 1227 l 1
 1657 1051 l 1
 1658 1051 l 1x42
 1669 1265 l 1
1297 1288 m 1
 1353 1334 l 1
 1301 1510 l 1
 1297 1288 l 1
1657 1462 m 1
 1657 1518 l 1
 1529 1518 l 1x20
 1556 1419 l 1
 1657 1462 l 1
EndSplineSet
Validated: 1
EndChar

StartChar: dollar
Encoding: 36 36 5
Width: 1520
VWidth: 2048
Flags: HMW
HStem: 239.58 170.4 1543.98 21G 1659.18 165.601 2086.78 20G
VStem: 204.6 217.2 687 120<-122 -122 415 936 1164 1657> 1087.8 225.601
LayerCount: 2
Fore
SplineSet
807 -122 m 1
 687 -122 l 1
 686 240 l 1
 604 244 523 255 443 273 c 0
 362 292 283 317 205 350 c 1
 205 566 l 1
 285 516 365 478 446 452 c 0
 528 426 608 412 687 410 c 1
 687 960 l 1
 527 984 407 1033 326 1106 c 0
 245 1179 205 1275 205 1395 c 0
 205 1521 247 1621 331 1696 c 0
 416 1771 534 1814 687 1825 c 1
 687 2107 l 1
 807 2107 l 1
 1198 1752 l 1
 1198 1544 l 1
 1130 1578 1064 1605 1000 1624 c 0
 935 1643 871 1654 807 1657 c 1
 807 1140 l 1
 972 1115 1097 1064 1184 986 c 0
 1270 908 1313 808 1313 685 c 0
 1313 562 1267 459 1174 376 c 1
 1080 294 959 249 808 242 c 1
 807 -122 l 1
687 1164 m 1
 687 1659 l 1
 604 1656 539 1632 492 1587 c 0
 445 1542 422 1482 422 1407 c 0
 422 1338 444 1284 487 1244 c 0
 531 1204 597 1177 687 1164 c 1
807 936 m 1
 807 415 l 1
 895 417 964 442 1013 488 c 0
 1063 534 1088 598 1088 678 c 0
 1088 752 1065 810 1021 851 c 0
 976 892 905 920 807 936 c 1
808 1974 m 1
 808 1825 l 1
 858 1822 908 1816 958 1808 c 1
 808 1974 l 1
EndSplineSet
Validated: 1
EndChar

StartChar: percent
Encoding: 37 37 6
Width: 2128
VWidth: 2048
Flags: HMW
HStem: -138 135<1480 1531.5 1480 1551> 366 135<1480 1527.5 1461.5 1531.5> 897 135<594.5 646.5 594.5 665.5> 1400 136<595.5 642.5 576 646.5> 1981 20G<1563 1750 1750 1750>
VStem: 302 135<1189.5 1242 1189.5 1261> 1690 137<155.5 202 136.5 206.5>
LayerCount: 2
Fore
SplineSet
302 1216 m 0
 302 1306 333 1382 394 1444 c 0
 455 1505 531 1536 621 1536 c 0
 664 1536 704 1528 744 1512 c 0
 782 1496 817 1473 847 1443 c 0
 877 1413 900 1378 916 1340 c 0
 930 1307 938 1272 940 1237 c 1
 1563 2001 l 1
 1750 2001 l 1
 610 -474 l 1
 1264 391 l 2
 1269 397 1274 403 1280 408 c 0
 1341 470 1417 501 1506 501 c 0
 1549 501 1589 493 1628 477 c 0
 1666 461 1700 438 1731 407 c 0
 1762 376 1785 341 1802 302 c 0
 1819 263 1827 223 1827 181 c 0
 1827 92 1796 17 1734 -45 c 0
 1672 -107 1596 -138 1506 -138 c 0
 1415 -138 1340 -108 1279 -46 c 0
 1230 3 1201 62 1191 130 c 1
 541 -749 l 1
 348 -749 l 1
 1532 1809 l 1
 848 990 l 1
 786 928 710 897 621 897 c 0
 531 897 455 928 394 989 c 0
 333 1050 302 1126 302 1216 c 0
437 1216 m 0
 437 1163 454 1120 490 1084 c 0
 524 1050 568 1032 621 1032 c 0
 672 1032 716 1050 752 1086 c 0
 788 1121 806 1165 806 1216 c 0
 806 1267 788 1311 752 1346 c 0
 716 1382 672 1400 621 1400 c 0
 570 1400 526 1382 490 1347 c 0
 455 1312 437 1268 437 1216 c 0
1323 181 m 0
 1323 129 1340 85 1376 50 c 1
 1410 15 1454 -3 1506 -3 c 0
 1557 -3 1601 15 1636 50 c 0
 1672 86 1690 130 1690 181 c 0
 1690 232 1672 276 1636 312 c 0
 1600 348 1557 366 1506 366 c 0
 1454 366 1410 348 1376 313 c 1
 1340 278 1323 234 1323 181 c 0
EndSplineSet
Validated: 1
EndChar

StartChar: ampersand
Encoding: 38 38 7
Width: 1233
VWidth: 2048
Flags: HMW
HStem: -29 154<486.5 636.5> 740 20G<1036 1200 1200 1200> 1344 165<513 519.5 472.5 530>
VStem: 57 176<374 551.5 374 556.5> 236 176<1156 1223.5 1156 1246> 652 168<1217 1221 1221 1242> 1040 160<651 686 686 696.5>
LayerCount: 2
Fore
SplineSet
233 475 m 0
 233 273 385 125 588 125 c 0
 694 125 784 174 844 223 c 1
 416 803 l 1
 318 725 233 628 233 475 c 0
492 985 m 1
 587 1017 650 1149 652 1217 c 1
 652 1221 l 2
 652 1263 620 1304 580 1325 c 0
 556 1338 538 1344 522 1344 c 0
 504 1344 487 1336 468 1320 c 0
 431 1290 412 1249 412 1198 c 0
 412 1114 451 1047 492 985 c 1
334 915 m 1
 279 995 236 1078 236 1196 c 0
 236 1296 269 1375 336 1433 c 0
 390 1481 434 1509 511 1509 c 0
 528 1509 546 1508 567 1505 c 0
 662 1492 788 1399 808 1325 c 0
 816 1295 820 1266 820 1237 c 0
 820 1091 720 958 580 862 c 1
 963 348 l 1
 1019 418 1040 521 1040 651 c 2
 1040 686 l 2
 1040 707 1040 734 1036 760 c 1
 1200 760 l 1
 1200 721 l 2
 1200 505 1151 346 1051 229 c 1
 1221 0 l 1
 1008 0 l 1
 930 109 l 1
 833 27 718 -29 555 -29 c 0
 275 -29 57 167 57 444 c 0
 57 669 185 808 334 915 c 1
EndSplineSet
Validated: 1
EndChar

StartChar: quotesingle
Encoding: 39 39 8
Width: 1233
VWidth: 2048
Flags: HMW
HStem: 938 555<528 702 528 702>
VStem: 528 174<938 1493 938 1493>
LayerCount: 2
Fore
SplineSet
702 1493 m 1
 702 938 l 1
 528 938 l 1
 528 1493 l 1
 702 1493 l 1
EndSplineSet
Validated: 1
EndChar

StartChar: parenleft
Encoding: 40 40 9
Width: 1334
VWidth: 2048
Flags: HMW
HStem: 1150 230
VStem: 400 187<716 885.5 681 918>
LayerCount: 2
Fore
SplineSet
1052 3250 m 1
 965 3037 779 2635 726 2384 c 0
 659 2067 594 1735 594 1468 c 0
 594 1438 595 1193 597 1165 c 1
 847 1165 l 1
 846 935 l 1
 596 935 l 1
 591 845 587 948 587 823 c 0
 587 539 608 192 688 -99 c 1
 751 -358 939 -785 1026 -1000 c 1
 869 -1000 l 1
 770 -778 579 -354 505 -90 c 0
 421 208 400 565 400 867 c 0
 400 969 403 851 406 936 c 1
 327 936 l 1
 327 1165 l 1
 408 1165 l 1
 417 1440 462 2045 543 2374 c 0
 605 2624 796 3030 895 3250 c 1
 1052 3250 l 1
EndSplineSet
Validated: 1
EndChar

StartChar: parenright
Encoding: 41 41 10
Width: 1334
VWidth: 2048
Flags: HMW
HStem: 1150 230
VStem: 746 187
LayerCount: 2
Fore
SplineSet
300 3250 m 1
 457 3250 l 1
 556 3030 747 2624 809 2374 c 0
 890 2045 935 1440 944 1165 c 1
 1025 1165 l 1
 1025 936 l 1
 946 936 l 1
 949 851 952 969 952 867 c 0
 952 565 931 208 847 -90 c 0
 773 -354 582 -778 483 -1000 c 1
 326 -1000 l 1
 413 -785 601 -358 664 -99 c 1
 744 192 765 539 765 823 c 0
 765 948 761 845 756 935 c 1
 506 935 l 1
 505 1165 l 1
 755 1165 l 1
 757 1193 758 1438 758 1468 c 0
 758 1735 693 2067 626 2384 c 0
 573 2635 387 3037 300 3250 c 1
EndSplineSet
Validated: 1
EndChar

StartChar: asterisk
Encoding: 42 42 11
Width: 1233
VWidth: 2048
Flags: HMW
HStem: 586 934<559 674 559 674> 760 21G<223 223 1010 1010> 1326 20G<223 223 1010 1010>
VStem: 559 115<586 963 586 963 1143 1520>
LayerCount: 2
Fore
SplineSet
1067 1247 m 1x30
 709 1053 l 1
 1067 858 l 1
 1010 760 l 1x70
 674 963 l 1
 674 586 l 1
 559 586 l 1x90
 559 963 l 1
 223 760 l 1
 166 858 l 1
 524 1053 l 1
 166 1247 l 1
 223 1346 l 1x70
 559 1143 l 1
 559 1520 l 1
 674 1520 l 1x90
 674 1143 l 1
 1010 1346 l 1
 1067 1247 l 1x30
EndSplineSet
Validated: 1
EndChar

StartChar: plus
Encoding: 43 43 12
Width: 1479
VWidth: 2048
Flags: HMW
HStem: 512.3 238 1351.9 20G
VStem: 622.8 235.2
LayerCount: 2
Fore
SplineSet
858 1372 m 1
 858 750 l 1
 1341 756 l 1
 1341 518 l 1
 858 512 l 1
 858 -109 l 1
 623 -109 l 1
 623 512 l 1
 129 509 l 1
 129 747 l 1
 623 750 l 1
 623 1372 l 1
 858 1372 l 1
EndSplineSet
Validated: 1
EndChar

StartChar: comma
Encoding: 44 44 13
Width: 1233
VWidth: 2048
Flags: HMW
HStem: -353.142 603.342
VStem: 527.7 330.2
LayerCount: 2
Fore
SplineSet
528 250 m 1
 859 250 l 1
 858 0 l 1
 422 -353 l 1
 249 -353 l 1
 528 0 l 1
 528 250 l 1
EndSplineSet
Validated: 1
EndChar

StartChar: hyphen
Encoding: 45 45 14
Width: 1659
VWidth: 2048
Flags: HMW
HStem: 420.5 172 697.5 170
LayerCount: 2
Fore
SplineSet
69 592 m 1
 1549 592 l 1
 1549 420 l 1
 69 420 l 1
 69 592 l 1
69 868 m 1
 1549 868 l 1
 1549 698 l 1
 69 698 l 1
 69 868 l 1
EndSplineSet
Validated: 1
EndChar

StartChar: period
Encoding: 46 46 15
Width: 2250
VWidth: 0
Flags: HMW
HStem: -185.827 381.854
VStem: 860.074 473.913
LayerCount: 2
Fore
SplineSet
1152 196 m 1
 1334 197 l 1
 1166 6 l 1
 1324 -186 l 1
 1142 -188 l 1
 1092 -78 l 1
 1021 -192 l 1
 860 -188 l 1
 1021 -1 l 1
 861 197 l 1
 1038 197 l 1
 1098 93 l 1
 1152 196 l 1
EndSplineSet
Validated: 1
EndChar

StartChar: slash
Encoding: 47 47 16
Width: 2510
VWidth: 2048
Flags: W
LayerCount: 2
Fore
SplineSet
2320 3250 m 1
 2510 3250 l 1
 179 -995 l 1
 -12 -995 l 1
 2320 3250 l 1
EndSplineSet
Validated: 1
EndChar

StartChar: zero
Encoding: 48 48 17
Width: 1233
VWidth: 2048
Flags: HMW
HStem: -29.001 160.002 1360 160<569 649.22>
VStem: 133.001 202.999 897 203<641.667 820.997>
LayerCount: 2
Fore
SplineSet
616 1520 m 0
 775 1520 896 1455 978 1324 c 0
 1059 1193 1100 1000 1100 745 c 0
 1100 490 1059 298 978 167 c 0
 896 36 775 -29 616 -29 c 0
 457 -29 336 36 255 167 c 0
 174 298 133 490 133 745 c 0
 133 1000 174 1193 255 1324 c 0
 336 1455 457 1520 616 1520 c 0
616 1360 m 0
 522 1360 452 1309 406 1208 c 0
 359 1107 336 952 336 745 c 0
 336 563 354 421 390 321 c 1
 780 1285 l 1
 737 1335 682 1360 616 1360 c 0
471 187 m 1
 511 150 559 131 616 131 c 0
 711 131 781 182 828 283 c 0
 874 384 897 538 897 745 c 0
 897 897 885 1021 860 1116 c 1
 471 187 l 1
EndSplineSet
Validated: 1
EndChar

StartChar: one
Encoding: 49 49 18
Width: 1233
VWidth: 2048
Flags: HMW
HStem: 0 170<270 584 784 1094 270 584> 1235 184<246 246> 1473 20G<582 784 784 784> 1473 20G<582 784 784 784>
VStem: 584 200<170 1311 1311 1311>
LayerCount: 2
Fore
SplineSet
270 170 m 1xe8
 584 170 l 1
 584 1311 l 1
 246 1235 l 1
 246 1419 l 1
 582 1493 l 1
 784 1493 l 1
 784 170 l 1
 1094 170 l 1
 1094 0 l 1
 270 0 l 1
 270 170 l 1xe8
EndSplineSet
Validated: 1
EndChar

StartChar: two
Encoding: 50 50 19
Width: 1233
VWidth: 2048
Flags: HMW
HStem: 0.000976562 169.999 1217 21G<164.001 164.001> 1350 170.001
VStem: 842.002 206.999
LayerCount: 2
Fore
SplineSet
373 170 m 1
 1059 170 l 1
 1059 0 l 1
 152 0 l 1
 152 170 l 1
 277 301 386 417 479 518 c 0
 572 619 637 690 672 731 c 1
 739 812 784 878 807 928 c 0
 830 979 842 1030 842 1083 c 0
 842 1166 818 1232 769 1279 c 0
 720 1326 652 1350 567 1350 c 0
 506 1350 443 1339 376 1317 c 0
 309 1295 239 1262 164 1217 c 1
 164 1421 l 1
 233 1454 300 1478 367 1495 c 0
 433 1512 498 1520 563 1520 c 0
 709 1520 827 1481 916 1404 c 0
 1005 1326 1049 1224 1049 1098 c 0
 1049 1034 1034 970 1005 906 c 0
 975 842 927 771 860 694 c 0
 823 651 768 591 698 514 c 0
 626 437 518 323 373 170 c 1
EndSplineSet
Validated: 1
EndChar

StartChar: three
Encoding: 51 51 20
Width: 1233
VWidth: 2048
Flags: HMW
HStem: -29 170<522.666 590.333 502.333 638.666> 715 166<394.999 548.999 394.999 548.999> 1270 21G 1350 170
VStem: 843.999 200.001 878.999 200
LayerCount: 2
Fore
SplineSet
776 799 m 1xf8
 874 773 949 727 1001 660 c 0
 1053 594 1079 511 1079 412 c 0
 1079 275 1033 167 940 88 c 0
 848 10 720 -29 557 -29 c 0
 488 -29 418 -23 347 -10 c 0
 276 3 206 21 137 45 c 1
 137 246 l 1
 205 211 272 184 338 167 c 0
 404 150 470 141 535 141 c 0
 646 141 731 166 790 216 c 0
 849 266 879 338 879 432 c 0xf4
 879 519 849 588 790 638 c 0
 731 690 650 715 549 715 c 2
 395 715 l 1
 395 881 l 1
 549 881 l 2
 642 881 714 901 766 942 c 0
 818 983 844 1039 844 1112 c 0
 844 1189 820 1248 771 1289 c 0
 723 1330 654 1350 565 1350 c 0
 506 1350 444 1343 381 1330 c 0
 318 1317 251 1297 182 1270 c 1
 182 1456 l 1
 263 1477 335 1493 398 1504 c 0
 461 1515 516 1520 565 1520 c 0
 710 1520 826 1484 914 1411 c 0
 1000 1338 1044 1241 1044 1120 c 0
 1044 1038 1021 970 976 915 c 0
 930 860 863 822 776 799 c 1xf8
EndSplineSet
Validated: 1
EndChar

StartChar: four
Encoding: 52 52 21
Width: 1233
VWidth: 2048
Flags: HMW
HStem: 0 21G<735 936 735 735> 356 164<264 735 264 735 102 735 936 1135> 1473 20G<702 936 936 936> 1473 20G<702 936 936 936>
VStem: 735 201<0 356 0 356 520 1309 1309 1309>
LayerCount: 2
Fore
SplineSet
735 1309 m 1xc8
 264 520 l 1
 735 520 l 1
 735 1309 l 1xc8
702 1493 m 1xe8
 936 1493 l 1
 936 520 l 1
 1135 520 l 1
 1135 356 l 1
 936 356 l 1
 936 0 l 1
 735 0 l 1
 735 356 l 1
 102 356 l 1
 102 547 l 1
 702 1493 l 1xe8
EndSplineSet
Validated: 1
EndChar

StartChar: five
Encoding: 53 53 22
Width: 1233
VWidth: 2048
Flags: HMW
HStem: -29.001 170.001 743 21G<207 207> 817 169.999 1323 170.001
VStem: 207 184.001 866 203.001
LayerCount: 2
Fore
SplineSet
207 1493 m 1
 963 1493 l 1
 963 1323 l 1
 391 1323 l 1
 391 956 l 1
 420 967 449 974 478 979 c 0
 507 984 536 987 565 987 c 0
 720 987 842 941 933 850 c 0
 1024 759 1069 635 1069 479 c 0
 1069 322 1022 198 927 107 c 0
 832 16 702 -29 537 -29 c 0
 458 -29 385 -24 320 -13 c 0
 254 -2 195 14 143 35 c 1
 143 240 l 1
 204 207 266 182 328 166 c 0
 390 149 453 141 518 141 c 0
 629 141 715 170 776 229 c 0
 836 288 866 371 866 479 c 0
 866 586 835 669 772 728 c 0
 710 787 623 817 512 817 c 0
 458 817 405 811 354 798 c 0
 303 786 254 768 207 743 c 1
 207 1493 l 1
EndSplineSet
Validated: 1
EndChar

StartChar: six
Encoding: 54 54 23
Width: 1233
VWidth: 2048
Flags: HMW
HStem: -29 157.999 828.999 158.001 1274 21G 1350 170
VStem: 133.001 186 901.001 199
LayerCount: 2
Fore
SplineSet
991 1460 m 1
 991 1274 l 1
 949 1299 904 1317 857 1330 c 0
 810 1343 760 1350 709 1350 c 0
 581 1350 484 1302 418 1205 c 0
 352 1109 319 967 319 780 c 1
 351 847 395 898 452 934 c 0
 509 969 574 987 647 987 c 0
 791 987 903 943 982 854 c 0
 1061 766 1100 641 1100 479 c 0
 1100 318 1059 193 978 104 c 0
 897 15 782 -29 635 -29 c 0
 462 -29 335 33 254 158 c 0
 173 282 133 478 133 745 c 0
 133 997 182 1189 279 1321 c 0
 376 1454 516 1520 700 1520 c 0
 749 1520 799 1515 848 1504 c 0
 897 1494 945 1479 991 1460 c 1
631 829 m 0
 545 829 477 798 428 736 c 0
 379 674 354 588 354 479 c 0
 354 370 379 284 428 222 c 0
 477 160 545 129 631 129 c 0
 720 129 788 158 833 217 c 0
 878 276 901 364 901 479 c 0
 901 595 878 682 833 741 c 0
 788 800 720 829 631 829 c 0
EndSplineSet
Validated: 1
EndChar

StartChar: seven
Encoding: 55 55 24
Width: 1233
VWidth: 2048
Flags: HMW
HStem: 0 21G<334 545 334 334> 1323 170<139 854 139 1079>
VStem: 139 940<1407 1493 1407 1493 1407 1493>
LayerCount: 2
Fore
SplineSet
139 1493 m 1
 1079 1493 l 1
 1079 1407 l 1
 545 0 l 1
 334 0 l 1
 854 1323 l 1
 139 1323 l 1
 139 1493 l 1
EndSplineSet
Validated: 1
EndChar

StartChar: eight
Encoding: 56 56 25
Width: 1233
VWidth: 2048
Flags: HMW
HStem: -28.999 158 709 159<575.666 656.666 575.666 660.667> 1364 156.001
VStem: 130.999 203 165.998 201 865.999 201 899 202.999
LayerCount: 2
Fore
SplineSet
616 709 m 0xf2
 526 709 456 684 407 634 c 0
 358 583 334 512 334 420 c 0
 334 328 359 257 408 206 c 0
 458 155 527 129 616 129 c 0
 707 129 776 154 826 205 c 0
 874 255 899 327 899 420 c 0
 899 511 874 582 824 633 c 0
 775 684 705 709 616 709 c 0xf2
440 793 m 1
 354 815 287 856 238 916 c 0
 190 976 166 1048 166 1133 c 0
 166 1252 206 1346 287 1416 c 0
 368 1485 477 1520 616 1520 c 0
 755 1520 865 1485 946 1416 c 0
 1027 1346 1067 1252 1067 1133 c 0xec
 1067 1048 1043 976 994 916 c 0
 946 856 879 815 793 793 c 1
 893 771 969 727 1022 660 c 0
 1075 593 1102 507 1102 401 c 0
 1102 266 1059 161 973 85 c 0
 887 9 768 -29 616 -29 c 0
 464 -29 345 9 259 85 c 0
 174 160 131 265 131 399 c 0
 131 506 157 593 210 660 c 0
 263 727 340 771 440 793 c 1
367 1114 m 0
 367 1034 388 973 431 931 c 0
 474 889 535 868 616 868 c 0
 697 868 759 889 802 931 c 0
 845 973 866 1034 866 1114 c 0
 866 1195 845 1257 802 1300 c 0
 760 1343 698 1364 616 1364 c 0
 535 1364 474 1342 431 1300 c 0
 388 1256 367 1195 367 1114 c 0
EndSplineSet
Validated: 1
EndChar

StartChar: nine
Encoding: 57 57 26
Width: 1233
VWidth: 2048
Flags: HMW
HStem: -28.999 170.001 504 158<551 616.666> 1362 158<551.333 638.999>
VStem: 126.999 199.001 906.999 187
LayerCount: 2
Fore
SplineSet
596 662 m 0
 682 662 749 693 798 755 c 0
 847 817 872 903 872 1012 c 0
 872 1121 847 1207 798 1269 c 0
 749 1331 682 1362 596 1362 c 0
 507 1362 439 1332 394 1274 c 0
 349 1214 326 1127 326 1012 c 0
 326 896 348 809 394 750 c 0
 438 691 506 662 596 662 c 0
236 31 m 1
 236 217 l 1
 278 192 323 174 370 161 c 0
 417 148 467 141 518 141 c 0
 646 141 743 189 808 286 c 0
 874 382 907 524 907 711 c 1
 876 644 832 593 775 558 c 0
 718 522 653 504 580 504 c 0
 436 504 324 548 245 637 c 0
 166 726 127 851 127 1014 c 0
 127 1175 167 1299 248 1388 c 0
 329 1476 444 1520 592 1520 c 0
 765 1520 892 1458 973 1333 c 0
 1054 1208 1094 1012 1094 745 c 0
 1094 494 1045 302 948 170 c 0
 851 37 711 -29 526 -29 c 0
 477 -29 428 -24 379 -13 c 0
 330 -3 282 12 236 31 c 1
EndSplineSet
Validated: 1
EndChar

StartChar: colon
Encoding: 58 58 27
Width: 1233
VWidth: 2048
Flags: HMW
HStem: 868.197 21G
VStem: 344.063 473.913
LayerCount: 2
Fore
SplineSet
636 887 m 1
 818 888 l 1
 650 698 l 1
 808 505 l 1
 626 503 l 1
 576 613 l 1
 505 499 l 1
 344 503 l 1
 505 690 l 1
 345 888 l 1
 522 888 l 1
 582 784 l 1
 636 887 l 1
636 197 m 1
 818 198 l 1
 650 8 l 1
 808 -185 l 1
 626 -187 l 1
 576 -77 l 1
 505 -191 l 1
 344 -187 l 1
 505 0 l 1
 345 198 l 1
 522 198 l 1
 582 94 l 1
 636 197 l 1
EndSplineSet
Validated: 1
EndChar

StartChar: semicolon
Encoding: 59 59 28
Width: 1233
VWidth: 2048
Flags: HMW
HStem: 865.238 21G
VStem: 527.7 330.2
LayerCount: 2
Fore
SplineSet
528 250 m 1
 859 250 l 1
 858 -0 l 1
 422 -353 l 1
 249 -353 l 1
 528 0 l 1
 528 250 l 1
770 884 m 1
 952 885 l 1
 784 695 l 1
 942 502 l 1
 760 500 l 1
 710 610 l 1
 639 496 l 1
 478 500 l 1
 639 687 l 1
 479 885 l 1
 656 885 l 1
 717 781 l 1
 770 884 l 1
EndSplineSet
Validated: 1
EndChar

StartChar: less
Encoding: 60 60 29
Width: 2297
VWidth: 2048
Flags: HMW
HStem: 1963 20G<1994 1994>
LayerCount: 2
Fore
SplineSet
1994 1801 m 1
 510 994 l 1
 1994 183 l 1
 1994 0 l 1
 302 912 l 1
 302 1078 l 1
 1994 1983 l 1
 1994 1801 l 1
EndSplineSet
Validated: 1
EndChar

StartChar: equal
Encoding: 61 61 30
Width: 1233
VWidth: 2048
Flags: HMW
HStem: 183 341<538 706 538 538> 352 172<88 538 88 1145 706 1145 706 706> 760 170<88 550 718 1145 88 550> 760 338<550 718 550 1145>
VStem: 538 168<183 352 183 352>
LayerCount: 2
Fore
SplineSet
550 1098 m 1x18
 718 1098 l 1x18
 718 930 l 1
 1145 930 l 1
 1145 760 l 1
 88 760 l 1
 88 930 l 1
 550 930 l 1x28
 550 1098 l 1x18
88 524 m 1x48
 1145 524 l 1
 1145 352 l 1
 706 352 l 1x48
 706 183 l 1
 538 183 l 1x88
 538 352 l 1
 88 352 l 1
 88 524 l 1x48
EndSplineSet
Validated: 1
EndChar

StartChar: greater
Encoding: 62 62 31
Width: 2297
VWidth: 2048
Flags: HMW
HStem: 1963 20G<302 302>
LayerCount: 2
Fore
SplineSet
302 1801 m 1
 302 1983 l 1
 1994 1078 l 1
 1994 912 l 1
 302 0 l 1
 302 183 l 1
 1786 994 l 1
 302 1801 l 1
EndSplineSet
Validated: 1
EndChar

StartChar: question
Encoding: 63 63 32
Width: 1581
VWidth: 0
Flags: HMW
HStem: 1685 21G<307 307> 1841 160<744 796.5>
VStem: 647 172<542 719 719 740> 1072 206<1517.5 1579.5>
LayerCount: 2
Fore
SplineSet
777 197 m 1
 959 199 l 1
 792 8 l 1
 949 -184 l 1
 767 -187 l 1
 717 -77 l 1
 646 -190 l 1
 485 -187 l 1
 647 0 l 1
 486 198 l 1
 663 198 l 1
 724 94 l 1
 777 197 l 1
819 542 m 1
 647 542 l 1
 647 719 l 2
 647 804 660 876 683 938 c 1
 701 991 748 1057 823 1127 c 1
 824 1129 l 1
 942 1252 l 1
 943 1254 l 1
 994 1312 1024 1357 1043 1402 c 0
 1060 1443 1072 1490 1072 1538 c 0
 1072 1621 1048 1699 992 1756 c 0
 933 1815 848 1841 745 1841 c 0
 669 1841 591 1827 513 1794 c 1
 445 1767 377 1731 307 1685 c 1
 307 1860 l 1
 385 1906 459 1937 541 1962 c 1
 623 1989 698 2001 790 2001 c 0
 930 2001 1042 1960 1140 1876 c 0
 1234 1795 1278 1690 1278 1551 c 0
 1278 1484 1267 1429 1239 1375 c 0
 1210 1320 1156 1253 1073 1170 c 1
 947 1048 l 1
 944 1046 l 1
 890 983 857 938 840 890 c 1
 826 846 819 797 819 740 c 2
 819 542 l 1
EndSplineSet
Validated: 1
EndChar

StartChar: at
Encoding: 64 64 33
Width: 1572
VWidth: 2048
Flags: HMW
HStem: -338 143<870.5 980 870.5 1004.5> 96 145<949.5 993.5> 810 146<949.5 992.5 912.5 1020.5> 1234 142<813 943.5>
VStem: 209 149<414.5 633 414.5 654> 594 155<482.5 569 482.5 588.5> 1220 141<482.5 697.5>
LayerCount: 2
Fore
SplineSet
1220 526 m 0
 1220 612 1199 681 1156 732 c 0
 1113 784 1056 810 985 810 c 0
 914 810 856 784 814 732 c 1
 770 681 749 612 749 526 c 0
 749 439 770 370 814 318 c 0
 856 267 914 241 985 241 c 0
 1056 241 1113 267 1156 318 c 0
 1199 370 1220 439 1220 526 c 0
1360 746 m 2
 1360 726 1361 707 1361 688 c 0
 1361 595 1354 523 1340 437 c 1
 1321 358 1299 308 1257 251 c 1
 1232 209 1157 153 1114 130 c 0
 1070 107 1021 96 966 96 c 0
 859 96 770 136 700 217 c 0
 629 298 594 401 594 526 c 0
 594 651 629 754 700 835 c 0
 770 916 859 956 966 956 c 0
 1019 956 1068 944 1113 921 c 0
 1158 898 1192 866 1216 825 c 1
 1216 888 l 2
 1216 992 1187 1076 1128 1139 c 0
 1069 1202 992 1234 895 1234 c 0
 731 1234 600 1170 504 1042 c 1
 406 915 358 742 358 524 c 0
 358 305 413 130 523 0 c 0
 633 -130 779 -195 962 -195 c 0
 998 -195 1034 -192 1070 -185 c 0
 1106 -178 1143 -168 1181 -154 c 1
 1229 -289 l 1
 1187 -306 1146 -318 1104 -326 c 0
 1064 -334 1024 -338 985 -338 c 0
 747 -338 558 -260 418 -105 c 0
 279 50 209 260 209 524 c 0
 209 784 272 991 397 1145 c 0
 522 1299 690 1376 901 1376 c 0
 1040 1376 1152 1332 1235 1243 c 0
 1318 1154 1360 1032 1360 886 c 2
 1360 746 l 2
EndSplineSet
Validated: 1
EndChar

StartChar: A
Encoding: 65 65 34
Width: 1663
VWidth: 0
Flags: HMW
HStem: 1060.52 20G 1384.37 21G
VStem: 302.625 153.546
LayerCount: 2
Fore
SplineSet
1661 1094 m 1
 1754 1016 l 1
 988 78 l 1
 903 151 l 1
 1661 1094 l 1
EndSplineSet
Refer: 305 710 S 1 0 0 1 720 1791 2
EndChar

StartChar: C
Encoding: 67 67 36
Width: 991
VWidth: 2048
Flags: HMW
HStem: -667.46 163 21.5449 156.995 850.36 21G 1249.16 20G
VStem: 686 157 1305 132.163
LayerCount: 2
Fore
SplineSet
1069 -507 m 0
 1250 -507 1300 -372 1300 -251 c 0
 1300 -114 1248 18 1069 19 c 0
 1068 19 1068 19 1067 19 c 0
 905 19 838 -132 838 -247 c 0
 838 -379 905 -507 1069 -507 c 0
1064 176 m 0
 1176 176 1251 131 1321 68 c 1
 1393 1 1451 -110 1451 -247 c 0
 1451 -385 1385 -511 1321 -562 c 0
 1248 -620 1176 -670 1064 -670 c 0
 952 -670 879 -622 808 -562 c 0
 737 -503 681 -385 681 -247 c 0
 681 -110 731 -1 808 68 c 0
 877 130 952 176 1064 176 c 0
EndSplineSet
Refer: 305 710 S 1 0 0 1 147 1785 2
EndChar

StartChar: D
Encoding: 68 68 37
Width: 1069
VWidth: 0
Flags: HMW
HStem: 1221 20G 1755.67 21G
VStem: 962.316 175.831 1090.02 182.011
LayerCount: 2
Fore
SplineSet
1066 1249 m 1x00
 1245 1249 l 1
 1168 1164 1142 1078 1142 990 c 0
 1142 813 1246 628 1246 431 c 0
 1246 314 1209 193 1092 67 c 1
 913 68 l 1
 1028 191 1064 312 1064 429 c 0
 1064 624 966 810 966 987 c 0
 966 1077 991 1164 1066 1249 c 1x00
EndSplineSet
Refer: 305 710 S 1 0 0 1 171 1800 2
EndChar

StartChar: E
Encoding: 69 69 38
Width: 1452
VWidth: 0
Flags: HMW
HStem: 59 108.75 756.707 21G 1444.99 20G
LayerCount: 2
Fore
SplineSet
1457 183 m 1
 1472 76 l 1
 824 56 l 1
 807 165 l 1
 1457 183 l 1
EndSplineSet
Refer: 305 710 S 1 0 0 1 537 1794 2
EndChar

StartChar: F
Encoding: 70 70 39
Width: 1458
VWidth: 0
Flags: HMW
HStem: -31 159 1853 21G 1989 255
VStem: -213 185
LayerCount: 2
Fore
SplineSet
1265 62 m 1
 1165 -1 1086 -28 1021 -28 c 0
 879 -28 800 102 695 294 c 0
 629 413 563 760 563 1097 c 2
 563 1119 l 1
 566 1461 629 2247 888 2247 c 0
 955 2247 1035 2195 1130 2070 c 1
 1131 1856 l 1
 1052 1953 989 1992 940 1992 c 0
 758 1992 748 1461 748 1204 c 2
 748 1121 l 2
 748 770 818 476 851 381 c 0
 922 179 997 131 1051 131 c 0
 1101 131 1134 170 1134 170 c 1
 1265 62 l 1
EndSplineSet
Refer: 305 710 S 1 0 0 1 243 1797 2
EndChar

StartChar: G
Encoding: 71 71 40
Width: 1131
VWidth: 0
Flags: HMW
HStem: -61 124.702 1230 20G<780 959 959 959> 2245 21G<302 480 302 302 1213 1391 1213 1213>
VStem: 0 180
LayerCount: 2
Fore
SplineSet
780 1250 m 1
 959 1250 l 1
 960 110 l 2
 960 77 974 64 995 64 c 0
 1034 64 1097 110 1135 158 c 1
 1249 68 l 1
 1144 -19 1083 -61 960 -61 c 0
 860 -61 780 1 780 92 c 2
 780 1250 l 1
EndSplineSet
Refer: 305 710 S 1 0 0 1 210 1797 2
EndChar

StartChar: H
Encoding: 72 72 41
Width: 781
VWidth: 0
Flags: HMW
HStem: -61 124.702 1896 21G<141 141> 2080.31 169.69
VStem: 419.359 179.641
LayerCount: 2
Fore
SplineSet
609 110 m 2
 609 77 623 64 644 64 c 0
 683 64 746 110 784 158 c 1
 898 68 l 1
 793 -19 733 -61 609 -61 c 0
 509 -61 430 1 430 92 c 2
 418 1899 l 1
 418 1899 419 1913 419 1934 c 0
 419 1987 410 2080 347 2080 c 0
 345 2080 343 2080 341 2080 c 0
 216 2068 141 1896 141 1896 c 1
 -14 2000 l 1
 -14 2000 120 2250 351 2250 c 0
 590 2250 599 2003 599 2003 c 1
 609 110 l 2
EndSplineSet
Refer: 305 710 S 1 0 0 1 -363 1800 2
LCarets2: 1 0
Ligature2: "Podtablica 'liga' Ligatury zwyk+AUIA-e w +AUIA-aci+AUQA-skie w tablicy 1" C h
EndChar

StartChar: I
Encoding: 73 73 42
Width: 957
VWidth: 0
Flags: HMW
HStem: -61 21G 838.75 21G<314.468 314.468> 1542.17 20G 1542.17 20G
VStem: 797.375 179
LayerCount: 2
Fore
SplineSet
979 389 m 1
 979 125 l 1
 979 -58 l 1
 800 -58 l 1
 800 59 l 1
 800 117 l 1
 800 389 l 1
 800 500 l 1
 979 500 l 1
 979 389 l 1
EndSplineSet
Refer: 305 710 S 1 0 0 1 81 1782 2
EndChar

StartChar: J
Encoding: 74 74 43
Width: 957
VWidth: 0
Flags: HMW
HStem: -61 21G 838.75 21G<314.468 314.468> 1542.17 20G 1542.17 20G
VStem: 797.375 179
LayerCount: 2
Fore
SplineSet
973 389 m 1
 973 125 l 1
 973 -58 l 1
 794 -58 l 1
 794 59 l 1
 794 117 l 1
 794 389 l 1
 794 500 l 1
 973 500 l 1
 973 389 l 1
EndSplineSet
Refer: 305 710 S 1 0 0 1 99 1794 2
Substitution2: "Podtablica 'liga' Ligatury zwyk+AUIA-e w +AUIA-aci+AUQA-skie w tablicy 0" I
EndChar

StartChar: K
Encoding: 75 75 44
Width: 1123
VWidth: 0
Flags: HMW
HStem: -60 125 2231 20G
VStem: 775 180
LayerCount: 2
Fore
SplineSet
773 2250 m 1
 952 2250 l 1
 953 110 l 2
 953 77 967 64 988 64 c 0
 1027 64 1090 110 1128 158 c 1
 1242 68 l 1
 1137 -19 1076 -61 953 -61 c 0
 853 -61 773 1 773 92 c 2
 773 2250 l 1
EndSplineSet
Refer: 305 710 S 1 0 0 1 198 1794 2
EndChar

StartChar: L
Encoding: 76 76 45
Width: 1007
VWidth: 2048
Flags: HMW
HStem: 25.0566 366 905 21G<1136.38 1136.38> 1286.47 20G
VStem: 791.868 333
LayerCount: 2
Fore
SplineSet
1013 397 m 0
 1061 397 1094 377 1123 350 c 0
 1155 321 1180 273 1180 214 c 0
 1180 155 1151 100 1124 78 c 0
 1092 53 1061 31 1013 31 c 0
 964 31 933 52 902 78 c 0
 871 104 847 155 847 214 c 0
 847 273 869 320 902 350 c 0
 932 377 964 397 1013 397 c 0
EndSplineSet
Refer: 305 710 S 1 0 0 1 123 1800 2
EndChar

StartChar: M
Encoding: 77 77 46
Width: 1493
VWidth: 0
Flags: HMW
HStem: -61 124.702 1077.31 169.69 1810.35 21G
VStem: 1153.34 179.661
LayerCount: 2
Fore
SplineSet
1139 92 m 2
 1136 896 l 1
 1136 896 1137 910 1137 931 c 0
 1137 983 1128 1077 1064 1077 c 0
 1062 1077 1060 1077 1058 1077 c 0
 934 1065 859 893 859 893 c 1
 704 997 l 1
 704 997 838 1247 1068 1247 c 0
 1308 1247 1317 1000 1317 1000 c 1
 1318 110 l 2
 1318 77 1333 64 1353 64 c 0
 1392 64 1455 110 1493 158 c 1
 1607 68 l 1
 1502 -19 1442 -61 1318 -61 c 0
 1218 -61 1139 0 1139 92 c 2
EndSplineSet
Refer: 305 710 S 1 0 0 1 252 1794 2
EndChar

StartChar: N
Encoding: 78 78 47
Width: 1469
VWidth: 0
Flags: HMW
HStem: -31 125 303 170 902 21G<307.5 307.5> 1629 20G<698.5 698.5> 1629 20G<698.5 698.5>
VStem: 1123 178
LayerCount: 2
Fore
SplineSet
1027 92 m 1
 1027 92 1028 106 1028 127 c 0
 1028 179 1019 273 955 273 c 2
 949 273 l 1
 825 261 750 89 750 89 c 1
 595 193 l 1
 595 193 729 443 959 443 c 0
 1199 443 1208 196 1208 196 c 1
 1206 110 l 2
 1206 77 1221 64 1241 64 c 0
 1280 64 1343 110 1381 158 c 1
 1495 68 l 1
 1390 -19 1330 -61 1206 -61 c 0
 1106 -61 1027 0 1027 92 c 1
EndSplineSet
Refer: 305 710 S 1 0 0 1 258 1794 2
EndChar

StartChar: O
Encoding: 79 79 48
Width: 1506
VWidth: 0
Flags: HMW
HStem: 986.306 21G 1778.58 20G
VStem: 299.008 149.122 1514.19 124
LayerCount: 2
Fore
SplineSet
1410 1092 m 1
 1514 1055 l 1
 1405 503 1204 203 744 77 c 1
 659 158 l 1
 1114 263 1324 612 1410 1092 c 1
EndSplineSet
Refer: 305 710 S 1 0 0 1 477 1803 2
EndChar

StartChar: P
Encoding: 80 80 49
Width: 1015
VWidth: 3070
Flags: HMW
HStem: -75 124.258 2054 181
VStem: 662.375 180 1063.38 179
LayerCount: 2
Fore
SplineSet
843 1149 m 1
 923 1227 l 1
 928 1230 l 1
 931 1234 l 1
 991 1305 1060 1848 1061 1958 c 0
 1061 2016 1042 2068 954 2068 c 1
 858 2066 848 2005 840 1967 c 1
 840 1958 l 1
 842 1914 843 1641 843 1422 c 0
 843 1349 843 1282 843 1232 c 2
 843 1149 l 1
840 900 m 1
 839 230 l 1
 840 110 l 2
 840 77 855 63 875 63 c 0
 914 63 977 110 1015 158 c 1
 1129 68 l 1
 1024 -19 963 -61 840 -61 c 0
 740 -61 660 0 660 92 c 2
 660 227 l 1
 663 1965 l 1
 663 1966 l 1
 667 2037 678 2074 697 2115 c 0
 731 2190 798 2249 954 2249 c 0
 1137 2249 1240 2113 1240 1960 c 0
 1240 1851 1188 1164 975 1022 c 0
 926 989 885 941 849 907 c 1
 840 900 l 1
EndSplineSet
Refer: 305 710 S 1 0 0 1 120 1803 2
EndChar

StartChar: Q
Encoding: 81 81 50
Width: 1123
VWidth: 0
Flags: HMW
HStem: -60 125 2231 20G
VStem: 775 180
LayerCount: 2
Fore
SplineSet
773 2250 m 1
 952 2250 l 1
 953 110 l 2
 953 77 967 64 988 64 c 0
 1027 64 1090 110 1128 158 c 1
 1242 68 l 1
 1137 -19 1076 -61 953 -61 c 0
 853 -61 773 1 773 92 c 2
 773 2250 l 1
EndSplineSet
Refer: 305 710 S 1 0 0 1 195 1791 2
EndChar

StartChar: R
Encoding: 82 82 51
Width: 1375
VWidth: 0
Flags: HMW
HStem: 784.4 21G 1551.97 20G
LayerCount: 2
Fore
SplineSet
1288 299 m 1
 1560 -88 l 1
 1378 -88 l 1
 1098 299 l 1
 1288 299 l 1
EndSplineSet
Refer: 305 710 S 1 0 0 1 426 1794 2
EndChar

StartChar: S
Encoding: 83 83 52
Width: 1221
VWidth: 2048
Flags: HMW
HStem: 59 163 748.005 156.995 1168.68 21G 1872.27 20G
VStem: 714.875 157 1333.88 151
LayerCount: 2
Fore
SplineSet
1341 164 m 0
 1522 164 1572 299 1572 420 c 0
 1572 557 1520 689 1341 690 c 0
 1340 690 1340 690 1339 690 c 0
 1177 690 1110 539 1110 424 c 0
 1110 292 1177 164 1341 164 c 0
1336 847 m 0
 1448 847 1523 802 1593 739 c 1
 1665 672 1723 561 1723 424 c 0
 1723 286 1657 160 1593 109 c 0
 1520 51 1448 1 1336 1 c 0
 1224 1 1151 49 1080 109 c 0
 1009 168 953 286 953 424 c 0
 953 561 1003 670 1080 739 c 0
 1149 801 1224 847 1336 847 c 0
EndSplineSet
Refer: 305 710 S 1 0 0 1 294 1788 2
EndChar

StartChar: U
Encoding: 85 85 54
Width: 1271
VWidth: 0
Flags: HMW
HStem: -125.02 136.436 657.16 21G 1473.43 20G 1473.43 20G
VStem: 286.732 173.055 312.038 133.683 1278.6 124
LayerCount: 2
Fore
SplineSet
772 119 m 2
 772 8 829 -32 917 -38 c 1
 928 -38 l 2
 1103 -38 1181 180 1200 1055 c 1
 1200 1060 l 1
 1294 1057 l 1
 1294 1028 l 2
 1294 47 1135 -156 915 -156 c 2
 911 -156 l 1
 787 -154 694 -39 694 69 c 0
 694 71 694 74 694 76 c 2
 694 78 l 1
 772 128 l 1
 772 119 l 2
EndSplineSet
Refer: 305 710 S 1 0 0 1 351 1794 2
EndChar

StartChar: W
Encoding: 87 87 56
Width: 1418
VWidth: 0
Flags: HMW
HStem: -17 140 1021 218 1842 21G<300 300>
VStem: 1001 177
LayerCount: 2
Fore
SplineSet
1529 68 m 1
 1449 15 1380 -8 1318 -8 c 0
 1207 -8 1125 69 1060 188 c 0
 1023 256 996 430 996 618 c 2
 996 638 l 1
 998 821 1029 1248 1195 1248 c 0
 1251 1248 1323 1200 1414 1078 c 1
 1415 896 l 1
 1345 993 1295 1030 1259 1030 c 0
 1182 1030 1173 855 1173 727 c 0
 1173 689 1174 654 1174 630 c 0
 1174 209 1270 132 1341 132 c 0
 1382 132 1415 158 1415 158 c 1
 1529 68 l 1
EndSplineSet
Refer: 305 710 S 1 0 0 1 510 1797 2
EndChar

StartChar: X
Encoding: 88 88 57
Width: 356
VWidth: 0
Flags: HMW
HStem: 708 159 2230 20G<0 179 179 179>
VStem: -294 157 0 179<92 2250 2250 2250> 325 151
LayerCount: 2
Fore
SplineSet
77 189 m 0
 258 189 308 324 308 445 c 0
 308 582 256 714 77 715 c 0
 76 715 76 715 75 715 c 0
 -87 715 -154 564 -154 449 c 0
 -154 317 -87 189 77 189 c 0
72 872 m 0
 184 872 259 827 329 764 c 1
 401 697 459 586 459 449 c 0
 459 311 393 185 329 134 c 0
 256 76 184 26 72 26 c 0
 -40 26 -113 74 -184 134 c 0
 -255 193 -311 311 -311 449 c 0
 -311 586 -261 695 -184 764 c 0
 -115 826 -40 872 72 872 c 0
0 2250 m 1
 179 2250 l 1
 180 110 l 2
 180 77 194 64 215 64 c 0
 254 64 317 110 355 158 c 1
 469 68 l 1
 364 -19 303 -61 180 -61 c 0
 80 -61 0 1 0 92 c 2
 0 2250 l 1
EndSplineSet
Refer: 305 710 S 1 0 0 1 -501 1794 2
LCarets2: 1 0
Ligature2: "Podtablica 'liga' Ligatury zwyk+AUIA-e w +AUIA-aci+AUQA-skie w tablicy 1" K s
EndChar

StartChar: Y
Encoding: 89 89 58
Width: 1297
VWidth: 0
Flags: HMW
HStem: 2072.5 20G
LayerCount: 2
Fore
SplineSet
1575 2020 m 1
 1682 1927 l 1
 362 71 l 1
 259 150 l 1
 1575 2020 l 1
EndSplineSet
Refer: 305 710 S 1 0 0 1 393 1794 2
EndChar

StartChar: Z
Encoding: 90 90 59
Width: 1451
VWidth: 2048
Flags: HMW
HStem: 48 121 523 135 1138.91 21G 1893.83 20G 1893.83 20G
VStem: -250 142 159 146
LayerCount: 2
Fore
SplineSet
1339 120 m 0
 1433 120 1469 229 1469 292 c 0
 1469 363 1432 474 1339 474 c 0
 1254 474 1202 361 1202 301 c 0
 1202 233 1254 120 1339 120 c 0
1336 609 m 0
 1416 609 1471 576 1520 531 c 0
 1573 483 1615 403 1615 304 c 0
 1615 205 1567 114 1521 77 c 0
 1468 35 1417 -1 1336 -1 c 0
 1255 -1 1203 34 1151 77 c 0
 1100 120 1060 205 1060 304 c 0
 1060 403 1096 481 1151 531 c 0
 1201 576 1255 609 1336 609 c 0
EndSplineSet
Refer: 305 710 S 1 0 0 1 513 1788 2
EndChar

StartChar: bracketleft
Encoding: 91 91 60
Width: 1233
VWidth: 2048
Flags: HMW
HStem: -1000 143<646.5 886.5 646.5 886.5> 3107 143<647 887 647 647>
VStem: 462.5 184<-1000 -857> 462.5 424<-1000 -857>
LayerCount: 2
Fore
SplineSet
463 3250 m 1xd0
 887 3250 l 1
 887 3107 l 1
 647 3107 l 1
 646 -857 l 1xe0
 886 -857 l 1
 886 -1000 l 1
 462 -1000 l 1
 463 3250 l 1xd0
EndSplineSet
Validated: 1
EndChar

StartChar: backslash
Encoding: 92 92 61
Width: 2510
VWidth: 2048
Flags: W
LayerCount: 2
Fore
SplineSet
178 3250 m 1
 2510 -995 l 1
 2319 -995 l 1
 -12 3250 l 1
 178 3250 l 1
EndSplineSet
Validated: 1
EndChar

StartChar: bracketright
Encoding: 93 93 62
Width: 1233
VWidth: 2048
Flags: HMW
HStem: -1000 143<370 610 370 794 370 610> 3107 143<369 609 369 793>
VStem: 370 424<-1000 -857 -1000 -857> 610 184<-1000 -857>
LayerCount: 2
Fore
SplineSet
793 3250 m 1xd0
 794 -1000 l 1
 370 -1000 l 1
 370 -857 l 1xe0
 610 -857 l 1
 609 3107 l 1
 369 3107 l 1
 369 3250 l 1
 793 3250 l 1xd0
EndSplineSet
Validated: 1
EndChar

StartChar: asciicircum
Encoding: 94 94 63
Width: 1233
VWidth: 2048
Flags: HMW
HStem: 936 557<72 705 72 705 528 1161 528 983>
LayerCount: 2
Fore
SplineSet
705 1493 m 1
 1161 936 l 1
 983 936 l 1
 616 1331 l 1
 250 936 l 1
 72 936 l 1
 528 1493 l 1
 705 1493 l 1
EndSplineSet
Validated: 1
EndChar

StartChar: underscore
Encoding: 95 95 64
Width: 1233
VWidth: 2048
Flags: HMW
HStem: -483 80<0 1233 0 1233>
LayerCount: 2
Fore
SplineSet
1233 -403 m 1
 1233 -483 l 1
 0 -483 l 1
 0 -403 l 1
 1233 -403 l 1
EndSplineSet
Validated: 1
EndChar

StartChar: grave
Encoding: 96 96 65
Width: 1233
VWidth: 2048
Flags: HMW
HStem: 1262 376<279 758 279 604>
VStem: 279 479<1262 1638>
LayerCount: 2
Fore
SplineSet
477 1638 m 1
 758 1262 l 1
 604 1262 l 1
 279 1638 l 1
 477 1638 l 1
EndSplineSet
Validated: 1
EndChar

StartChar: a
Encoding: 97 97 66
Width: 698
VWidth: 0
Flags: HMW
HStem: 1072.5 20G<758 758>
VStem: 0 851.5
LayerCount: 2
Fore
SplineSet
758 1092 m 1
 852 1015 l 1
 86 77 l 1
 0 150 l 1
 758 1092 l 1
EndSplineSet
Validated: 1
EndChar

StartChar: b
Encoding: 98 98 67
Width: 353
VWidth: 3070
Flags: HMW
HStem: -61 124<204.5 234.5 204.5 241.5> 1566 181<294 337.5>
VStem: 0 180<93.5 110 93.5 231 93.5 231> 401 179<1402.5 1486.5>
LayerCount: 2
Fore
SplineSet
0 231 m 5
 3 1463 l 6
 3 1531 19 1574 37 1613 c 4
 71 1688 138 1747 294 1747 c 4
 477 1747 580 1610 580 1457 c 4
 580 1348 527 1098 315 956 c 4
 263 920 221 870 180 834 c 5
 179 232 l 5
 180 110 l 6
 180 77 194 63 215 63 c 4
 254 63 317 110 355 158 c 5
 469 68 l 5
 364 -19 303 -61 180 -61 c 4
 80 -61 0 0 0 92 c 6
 0 231 l 5
183 1083 m 5
 211 1109 238 1138 268 1164 c 5
 329 1237 401 1344 401 1458 c 4
 401 1515 381 1566 294 1566 c 5
 204 1564 179 1456 179 1456 c 5
 179 1456 183 1355 183 1289 c 6
 183 1166 l 5
 183 1083 l 5
EndSplineSet
Validated: 1
EndChar

StartChar: c
Encoding: 99 99 68
Width: 94
VWidth: 2048
Flags: HMW
HStem: -678 163<199 311> 11.0049 156.995
VStem: -128 157<-321 -197.688 -321 -186.5> 491 151<-319.5 -190.5>
LayerCount: 2
Fore
SplineSet
260 -515 m 4
 441 -515 491 -380 491 -259 c 4
 491 -122 439 10 260 11 c 4
 259 11 259 11 258 11 c 4
 96 11 29 -140 29 -255 c 4
 29 -387 96 -515 260 -515 c 4
255 168 m 4
 367 168 442 123 512 60 c 5
 584 -7 642 -118 642 -255 c 4
 642 -393 576 -519 512 -570 c 4
 439 -628 367 -678 255 -678 c 4
 143 -678 70 -630 -1 -570 c 4
 -72 -511 -128 -393 -128 -255 c 4
 -128 -118 -78 -9 -1 60 c 4
 68 122 143 168 255 168 c 4
EndSplineSet
Validated: 1
EndChar

StartChar: d
Encoding: 100 100 69
Width: 56
VWidth: 0
Flags: HMW
HStem: 1231 20G<98 98>
VStem: -2.13007 175.866 95.7709 181.89
LayerCount: 2
Fore
SplineSet
98 1251 m 1xc0
 277 1251 l 1
 200 1166 174 1080 174 992 c 0xc0
 174 815 278 630 278 433 c 0
 278 316 241 195 124 69 c 1
 -55 70 l 1
 60 193 96 314 96 431 c 0xa0
 96 626 -2 812 -2 989 c 0
 -2 1079 23 1166 98 1251 c 1xc0
EndSplineSet
Validated: 1
EndChar

StartChar: e
Encoding: 101 101 70
Width: 636
VWidth: 0
Flags: HMW
HStem: 54.25 108.75<0 17>
VStem: 0 664.75<73.625 163>
LayerCount: 2
Fore
SplineSet
650 181 m 5
 665 74 l 5
 17 54 l 5
 0 163 l 5
 650 181 l 5
EndSplineSet
Validated: 1
EndChar

StartChar: f
Encoding: 102 102 71
Width: 354
VWidth: 0
Flags: HMW
HStem: -31 159<248 277.5> 1853 21G<355 355> 1989 255<73 145.5 -17.5 188.5>
VStem: -213 185<1094 1116 1116 1116>
LayerCount: 2
Fore
SplineSet
489 59 m 1
 389 -4 310 -31 245 -31 c 0
 103 -31 24 99 -81 291 c 0
 -147 410 -213 757 -213 1094 c 2
 -213 1116 l 1
 -210 1458 -147 2244 112 2244 c 0
 179 2244 259 2192 354 2067 c 1
 355 1853 l 1
 276 1950 213 1989 164 1989 c 0
 -18 1989 -28 1458 -28 1201 c 2
 -28 1118 l 2
 -28 767 42 473 75 378 c 0
 146 176 221 128 275 128 c 0
 325 128 358 167 358 167 c 1
 489 59 l 1
EndSplineSet
Validated: 1
EndChar

StartChar: h
Encoding: 104 104 73
Width: 767
VWidth: 0
Flags: HMW
HStem: -61 124.702 1896 21G<141 141> 2080.31 169.69
VStem: 419.359 179.641
LayerCount: 2
Fore
SplineSet
598 110 m 2
 598 77 612 64 633 64 c 0
 672 64 735 110 773 158 c 1
 887 68 l 1
 782 -19 722 -61 598 -61 c 0
 498 -61 418 1 418 92 c 2
 418 1899 l 1
 418 1899 419 1913 419 1934 c 0
 419 1987 410 2080 347 2080 c 0
 345 2080 343 2080 341 2080 c 0
 216 2068 141 1896 141 1896 c 1
 -14 2000 l 1
 -14 2000 120 2250 351 2250 c 0
 590 2250 599 2003 599 2003 c 1
 598 110 l 2
EndSplineSet
Validated: 1
LCarets2: 1 0
Ligature2: "Podtablica 'liga' Ligatury zwyk+AUIA-e w +AUIA-aci+AUQA-skie w tablicy 1" c h
EndChar

StartChar: i
Encoding: 105 105 74
Width: 268
VWidth: 0
Flags: W
HStem: -360 515
VStem: -50 161<-206 154>
LayerCount: 2
Back
SplineSet
159.145507812 552.512695312 m 5
 159.28515625 -30.8837890625 l 5
 321.737304688 155.583007812 l 5
 450.41015625 58.029296875 l 5
 -0.60546875 -360.638671875 l 5
 1.125 237.572265625 l 5
 -148.298828125 94.755859375 l 5
 -287 183.374023438 l 5
 159.145507812 552.512695312 l 5
EndSplineSet
Fore
SplineSet
271 155 m 1
 399 58 l 1
 111 -206 l 1
 111 -26 l 1
 271 155 l 1
-50 154 m 1
 111 154 l 1
 111 -206 l 1
 -50 -360 l 1
 -50 154 l 1
EndSplineSet
Validated: 5
EndChar

StartChar: j
Encoding: 106 106 75
Width: 49
VWidth: 0
Flags: HMW
HStem: 0 500
VStem: -1.25 179<-58 59 59 117.3 117.3 125.3 125.3 389 389 500 500 500>
LayerCount: 2
Fore
SplineSet
98 500 m 1
 98 -58 l 1
 -51 -58 l 1
 -51 500 l 1
 98 500 l 1
EndSplineSet
Validated: 1
EndChar

StartChar: l
Encoding: 108 108 77
Width: 83
VWidth: 2048
Flags: HMW
HStem: 31 366<-1.7002 46.5996 -1.7002 46.8999>
VStem: -143 333<184.3 243.7>
LayerCount: 2
Fore
SplineSet
23 397 m 0
 71 397 104 377 133 350 c 0
 165 321 190 273 190 214 c 0
 190 155 161 100 134 78 c 0
 102 53 71 31 23 31 c 0
 -26 31 -57 52 -88 78 c 0
 -119 104 -143 155 -143 214 c 0
 -143 273 -121 320 -88 350 c 0
 -58 377 -26 397 23 397 c 0
EndSplineSet
Validated: 1
EndChar

StartChar: m
Encoding: 109 109 78
Width: 748
VWidth: 0
Flags: HMW
HStem: -61 124.702 893 21G<132 132> 1077.31 169.69
VStem: 410.339 179.661
LayerCount: 2
Fore
SplineSet
412 92 m 2
 409 896 l 1
 409 896 410 910 410 931 c 0
 410 983 401 1077 337 1077 c 0
 335 1077 333 1077 331 1077 c 0
 207 1065 132 893 132 893 c 1
 -23 997 l 1
 -23 997 111 1247 341 1247 c 0
 581 1247 590 1000 590 1000 c 1
 591 110 l 2
 591 77 606 64 626 64 c 0
 665 64 728 110 766 158 c 1
 880 68 l 1
 775 -19 715 -61 591 -61 c 0
 491 -61 412 0 412 92 c 2
EndSplineSet
EndChar

StartChar: n
Encoding: 110 110 79
Width: 676
VWidth: 0
Flags: HMW
HStem: -61 125<526 555.5 526 563> 273 170<244 250 244 244>
VStem: 415 178
LayerCount: 2
Fore
SplineSet
412 92 m 5
 412 92 413 106 413 127 c 4
 413 179 404 273 340 273 c 6
 334 273 l 5
 210 261 135 89 135 89 c 5
 -20 193 l 5
 -20 193 114 443 344 443 c 4
 584 443 593 196 593 196 c 5
 591 110 l 6
 591 77 606 64 626 64 c 4
 665 64 728 110 766 158 c 5
 880 68 l 5
 775 -19 715 -61 591 -61 c 4
 491 -61 412 0 412 92 c 5
EndSplineSet
Validated: 1
EndChar

StartChar: o
Encoding: 111 111 80
Width: 722
VWidth: 0
Flags: HMW
HStem: 0 101 989 20G
VStem: 868 106
LayerCount: 2
Fore
SplineSet
722 1081 m 1
 839 1035 l 1
 759 497 502 165 42 39 c 5
 0 158 l 1
 452 297 681 665 722 1081 c 1
EndSplineSet
EndChar

StartChar: p
Encoding: 112 112 81
Width: 361
VWidth: 3070
Flags: HMW
HStem: -61 124.258 2068 181<294 338>
VStem: 0 180<110 110 110 227 110 227> 401 179<1958 1987>
LayerCount: 2
Fore
SplineSet
180 900 m 1
 179 230 l 1
 180 110 l 2
 180 77 195 63 215 63 c 0
 254 63 317 110 355 158 c 1
 469 68 l 1
 364 -19 303 -61 180 -61 c 0
 80 -61 0 0 0 92 c 2
 0 227 l 1
 3 1965 l 1
 3 1966 l 1
 7 2037 18 2074 37 2115 c 0
 71 2190 138 2249 294 2249 c 0
 477 2249 580 2113 580 1960 c 0
 580 1851 494 1205 315 1022 c 0
 266 972 225 941 189 907 c 1
 180 900 l 1
183 1149 m 1
 270 1220 l 1
 330 1291 401 1848 401 1958 c 0
 401 2016 382 2068 294 2068 c 1
 198 2066 188 2005 180 1967 c 1
 180 1958 l 1
 182 1914 183 1641 183 1422 c 0
 183 1349 183 1282 183 1232 c 2
 183 1149 l 1
EndSplineSet
Validated: 1
EndChar

StartChar: r
Encoding: 114 114 83
Width: 138
VWidth: 0
Flags: W
HStem: -158 537
VStem: -142 492
LayerCount: 2
Fore
SplineSet
-32 379 m 1
 350 -58 l 1
 238 -158 l 1
 -142 299 l 1
 -32 379 l 1
EndSplineSet
Validated: 1
EndChar

StartChar: s
Encoding: 115 115 84
Width: 188
VWidth: 2048
Flags: HMW
HStem: 48 163 737.005 156.995
VStem: -400 157 219 151
LayerCount: 2
Fore
SplineSet
-7 847 m 0
 105 847 180 802 250 739 c 1
 322 672 380 561 380 424 c 0
 380 286 314 160 250 109 c 0
 177 51 105 1 -7 1 c 0
 -119 1 -192 49 -263 109 c 0
 -334 168 -390 286 -390 424 c 0
 -390 561 -340 670 -263 739 c 0
 -194 801 -119 847 -7 847 c 0
-2 190 m 0
 161 190 206 312 206 421 c 0
 206 544 159 663 -2 664 c 0
 -3 664 l 0
 -150 664 -210 527 -210 424 c 0
 -210 306 -150 190 -2 190 c 0
EndSplineSet
Validated: 1
EndChar

StartChar: t
Encoding: 116 116 85
Width: 56
VWidth: 0
Flags: HMW
HStem: 0 21G<168 168>
VStem: -60.1023 198.311 140.079 189.998
LayerCount: 2
Fore
SplineSet
98 2250 m 1
 277 2250 l 1
 174 1965 138 1748 138 1572 c 0
 138 1164 336.486818511 971.935652974 330 645 c 0
 325 393 225 47 48 -180 c 1
 -131 -179 l 1
 33 43 140 388 140 625 c 0
 140 958 -60 1149 -60 1550 c 0
 -60 1730 -20 1953 98 2250 c 1
EndSplineSet
Validated: 33
EndChar

StartChar: u
Encoding: 117 117 86
Width: 448
VWidth: 0
Flags: HMW
HStem: -156 118<165 182 165 182> 1040 20G<454 454>
VStem: -52 78<76 78 78 78> 454 94<1055 1057 537.5 1060 537.5 1060>
LayerCount: 2
Fore
SplineSet
234 -66 m 1
 342 -66 404 270 450 1060 c 1
 551 1060 l 1
 492 150 460.883789062 -156 228 -156 c 1
 98.68359375 -153.9140625 0 -35.29296875 0 79 c 1
 112 79 l 1
 112 0 184 -66 234 -66 c 1
EndSplineSet
EndChar

StartChar: w
Encoding: 119 119 88
Width: 439
VWidth: 0
Flags: HMW
HStem: -8 140<245.5 289> 896 21G<355 355> 1030 218<160.5 163 52 217>
VStem: -64 177<618 791 638 791>
LayerCount: 2
Fore
SplineSet
559 68 m 1
 479 15 410 -8 348 -8 c 0
 237 -8 115 69 50 188 c 0
 13 256 -14 430 -14 618 c 2
 -14 638 l 1
 -12 821 19 1186 185 1248 c 0
 222 1262 302 1261 361 1195 c 1
 362 1013 l 1
 310 1055 265 1037 249 1030 c 0
 178 999 163 855 163 727 c 0
 163 689 164 654 164 630 c 0
 164 209 300 132 371 132 c 0
 412 132 445 158 445 158 c 1
 559 68 l 1
EndSplineSet
Validated: 33
EndChar

StartChar: x
Encoding: 120 120 89
Width: 356
VWidth: 0
Flags: HMW
HStem: 708 159 2230 20G<0 179 179 179>
VStem: -294 157 0 179<92 2250 2250 2250> 325 151
LayerCount: 2
Fore
SplineSet
77 189 m 0
 258 189 308 324 308 445 c 0
 308 582 256 714 77 715 c 0
 76 715 76 715 75 715 c 0
 -87 715 -154 564 -154 449 c 0
 -154 317 -87 189 77 189 c 0
72 872 m 0
 184 872 259 827 329 764 c 1
 401 697 459 586 459 449 c 0
 459 311 393 185 329 134 c 0
 256 76 184 26 72 26 c 0
 -40 26 -113 74 -184 134 c 0
 -255 193 -311 311 -311 449 c 0
 -311 586 -261 695 -184 764 c 0
 -115 826 -40 872 72 872 c 0
0 2250 m 1
 179 2250 l 1
 180 110 l 2
 180 77 194 64 215 64 c 0
 254 64 317 110 355 158 c 1
 469 68 l 1
 364 -19 303 -61 180 -61 c 0
 80 -61 0 1 0 92 c 2
 0 2250 l 1
EndSplineSet
Validated: 5
LCarets2: 1 0
Ligature2: "Podtablica 'liga' Ligatury zwyk+AUIA-e w +AUIA-aci+AUQA-skie w tablicy 1" k s
EndChar

StartChar: y
Encoding: 121 121 90
Width: 1297
VWidth: 0
Flags: HMW
HStem: 2072.5 20G
LayerCount: 2
Fore
SplineSet
1309 2020 m 1
 1416 1927 l 1
 96 71 l 1
 -7 150 l 1
 1309 2020 l 1
EndSplineSet
Validated: 1
EndChar

StartChar: z
Encoding: 122 122 91
Width: 74
VWidth: 2048
Flags: HMW
HStem: 48 121 523 135
VStem: -250 142<269 333 269 355.5> 159 146<262.5 329.5>
LayerCount: 2
Fore
SplineSet
29 122 m 0
 123 122 159 231 159 294 c 0
 159 365 122 476 29 476 c 0
 -56 476 -108 363 -108 303 c 0
 -108 235 -56 122 29 122 c 0
26 611 m 0
 106 611 161 578 210 533 c 0
 263 485 305 405 305 306 c 0
 305 207 257 116 211 79 c 0
 158 37 107 1 26 1 c 0
 -55 1 -107 36 -159 79 c 0
 -210 122 -250 207 -250 306 c 0
 -250 405 -214 483 -159 533 c 0
 -109 578 -55 611 26 611 c 0
EndSplineSet
Validated: 1
EndChar

StartChar: braceleft
Encoding: 123 123 92
Width: 1233
VWidth: 2048
Flags: HMW
HStem: -1000 144<961 967 967 1031> 1315 143 3107 143<914.5 1031 967 1031 967 1031>
VStem: 549 187<-631 -627 -627 735 735 748 1409 2878>
LayerCount: 2
Fore
SplineSet
1031 -856 m 1
 1031 -1000 l 1
 967 -1000 l 2
 801 -1000 690 -975 634 -926 c 0
 577 -877 549 -778 549 -631 c 2
 549 735 l 2
 549 836 531 905 496 944 c 0
 460 983 395 1002 302 1002 c 2
 240 1002 l 1
 240 1145 l 1
 302 1145 l 2
 396 1145 461 1164 496 1202 c 0
 531 1240 548 1309 549 1409 c 1
 549 2882 l 2
 549 3029 577 3128 634 3176 c 1
 690 3226 801 3250 967 3250 c 2
 1031 3250 l 1
 1031 3107 l 1
 961 3107 l 2
 868 3107 807 3092 778 3064 c 1
 750 3034 736 2973 736 2878 c 2
 736 1397 l 1
 735 1292 721 1216 690 1169 c 0
 660 1122 608 1090 535 1073 c 1
 609 1055 661 1022 691 975 c 0
 721 928 736 852 736 748 c 2
 736 -627 l 2
 736 -722 750 -784 778 -813 c 0
 807 -842 868 -856 961 -856 c 2
 1031 -856 l 1
EndSplineSet
Validated: 1
EndChar

StartChar: bar
Encoding: 124 124 93
Width: 1233
VWidth: 2048
Flags: HMW
VStem: 530 172<-1000 3250 -1000 3250>
LayerCount: 2
Fore
SplineSet
702 3250 m 1
 702 -1000 l 1
 530 -1000 l 1
 530 3250 l 1
 702 3250 l 1
EndSplineSet
Validated: 1
EndChar

StartChar: braceright
Encoding: 125 125 94
Width: 1233
VWidth: 2048
Flags: HMW
HStem: -1000 144<202 266 202 272> 1315 143 3107 143<202 266 266 272 202 266>
VStem: 497 187<-627 735 1409 2878 2878 2882>
LayerCount: 2
Fore
SplineSet
202 -856 m 1
 272 -856 l 2
 365 -856 426 -842 455 -813 c 0
 483 -784 497 -722 497 -627 c 2
 497 748 l 2
 497 852 512 928 542 975 c 0
 572 1022 624 1055 698 1073 c 1
 625 1090 573 1122 543 1169 c 0
 512 1216 498 1292 497 1397 c 1
 497 2878 l 2
 497 2973 483 3034 455 3064 c 1
 426 3092 365 3107 272 3107 c 2
 202 3107 l 1
 202 3250 l 1
 266 3250 l 2
 432 3250 543 3226 599 3176 c 1
 656 3128 684 3029 684 2882 c 2
 684 1409 l 1
 685 1309 702 1240 737 1202 c 0
 772 1164 837 1145 931 1145 c 2
 993 1145 l 1
 993 1002 l 1
 931 1002 l 2
 838 1002 773 983 737 944 c 0
 702 905 684 836 684 735 c 2
 684 -631 l 2
 684 -778 656 -877 599 -926 c 0
 543 -975 432 -1000 266 -1000 c 2
 202 -1000 l 1
 202 -856 l 1
EndSplineSet
Validated: 1
EndChar

StartChar: asciitilde
Encoding: 126 126 95
Width: 1233
VWidth: 2048
Flags: HMW
HStem: 492 165<833 874.5> 614 166<367.5 398>
LayerCount: 2
Fore
SplineSet
1145 780 m 1x40
 1145 606 l 1
 1095 567 1046 538 998 520 c 1
 951 501 901 492 848 492 c 0x80
 788 492 720 509 645 543 c 0
 630 550 619 554 612 557 c 0
 561 579 518 594 484 602 c 0
 449 610 415 614 381 614 c 0x40
 328 614 278 604 232 584 c 1
 184 565 137 534 88 492 c 1x80
 88 666 l 1
 140 706 190 735 239 753 c 0
 288 771 340 780 395 780 c 0x40
 430 780 465 776 498 769 c 0
 531 762 573 748 622 727 c 0
 630 724 641 719 655 712 c 0
 732 675 802 657 864 657 c 0x80
 911 657 957 667 1002 688 c 1
 1048 708 1096 739 1145 780 c 1x40
EndSplineSet
Validated: 1
EndChar

StartChar: exclamdown
Encoding: 161 161 96
Width: 1233
VWidth: 2048
Flags: HMW
LayerCount: 2
Fore
SplineSet
516 1239 m 1
 516 1493 l 1
 719 1493 l 1
 719 1239 l 1
 516 1239 l 1
516 0 m 1
 516 655 l 1
 537 1012 l 1
 698 1012 l 1
 719 655 l 1
 719 0 l 1
 516 0 l 1
EndSplineSet
Validated: 1
EndChar

StartChar: Oacute
Encoding: 211 211 97
Width: 1271
VWidth: 0
Flags: HMW
HStem: -156 118<940 957 940 957> 657.16 21G 1040 20<1229 1229> 1473.43 20G 1473.43 20G
VStem: 286.732 173.055 312.038 133.683 723 78<76 78 78 78> 1229 94<1055 1057 537.5 1060 537.5 1060>
LayerCount: 2
Fore
SplineSet
801 119 m 2xa180
 801 8 858 -32 946 -38 c 1
 957 -38 l 2
 1132 -38 1210 180 1229 1055 c 1
 1229 1060 l 1
 1323 1057 l 1
 1323 1028 l 2
 1323 47 1164 -156 944 -156 c 2
 940 -156 l 1
 816 -154 723 -39 723 69 c 0
 723 71 723 74 723 76 c 2
 723 78 l 1
 801 128 l 1
 801 119 l 2xa180
EndSplineSet
Refer: 305 710 S 1 0 0 1 369 1797 2
Substitution2: "Podtablica 'liga' Ligatury zwyk+AUIA-e w +AUIA-aci+AUQA-skie w tablicy 0" U
EndChar

StartChar: oacute
Encoding: 243 243 98
Width: 504
VWidth: 0
Flags: HMW
HStem: -156 118<221 238 221 238> 1040 20<510 510>
VStem: 4 78<76 78 78 78> 510 94<1055 1057 537.5 1060 537.5 1060>
LayerCount: 2
Fore
SplineSet
82 119 m 2
 82 8 139 -32 227 -38 c 1
 238 -38 l 2
 413 -38 491 180 510 1055 c 1
 510 1060 l 1
 604 1057 l 1
 604 1028 l 2
 604 47 445 -156 225 -156 c 2
 221 -156 l 1
 97 -154 4 -39 4 69 c 0
 4 71 4 74 4 76 c 2
 4 78 l 1
 82 128 l 1
 82 119 l 2
EndSplineSet
Validated: 1
Substitution2: "Podtablica 'liga' Ligatury zwyk+AUIA-e w +AUIA-aci+AUQA-skie w tablicy 0" u
EndChar

StartChar: Aogonek
Encoding: 260 260 99
Width: 1484
VWidth: 0
Flags: HMW
HStem: 0 21G<240.745 240.745> 2034.38 20G
VStem: 1483.53 114
LayerCount: 2
Fore
SplineSet
1685 2054 m 1
 1799 2041 l 1
 1729 849 717 175 241 0 c 1
 201 149 l 1
 682 362 1580 950 1685 2054 c 1
EndSplineSet
Refer: 305 710 S 1 0 0 1 561 1794 2
EndChar

StartChar: aogonek
Encoding: 261 261 100
Width: 1484
VWidth: 0
Flags: HMW
HStem: 0 21G<39.7451 39.7451> 2034.38 20G
VStem: 1483.53 114
LayerCount: 2
Fore
SplineSet
1484 2054 m 1
 1598 2041 l 1
 1528 849 516 175 40 0 c 1
 0 149 l 1
 481 362 1379 950 1484 2054 c 1
EndSplineSet
Validated: 1
EndChar

StartChar: cacute
Encoding: 263 263 102
Width: 489
VWidth: 0
Flags: HMW
HStem: 1110.49 136.934
VStem: 622.31 176.177
LayerCount: 2
Fore
SplineSet
413 -32 m 1
 271 109 l 1
 392.029296875 152.850585938 489.036668656 196.31697844 553 297 c 0
 607 382 640 465 636 635 c 0
 633.235683777 752.483439496 597 923 540 1006 c 0
 496 1070 463 1091 387 1091 c 0
 339 1091 293 1081 267 1059 c 0
 230 1028 162 951 133 890 c 1
 -27 998 l 1
 26 1065 121 1179 184 1205 c 0
 230 1223 334 1265 414 1253 c 0
 538 1233 606 1173 665 1099 c 1
 754 986 823 838 823 635 c 0
 823 430 766.294921875 302.774414062 689 182 c 0
 625 82 424 -36 413 -32 c 1
EndSplineSet
LCarets2: 1 0
Ligature2: "Podtablica 'liga' Ligatury zwyk+AUIA-e w +AUIA-aci+AUQA-skie w tablicy 1" c i
EndChar

StartChar: Ccaron
Encoding: 268 268 103
Width: 906
VWidth: 3070
Flags: HMW
HStem: -757 181<572 616 572 694> 2230 20G<730 730>
VStem: 334 179 734 177
LayerCount: 2
Fore
SplineSet
730 2250 m 1
 910 2248 l 1
 907 -473 l 1
 907 -474 l 1
 903 -545 892 -582 873 -623 c 0
 839 -698 772 -757 616 -757 c 0
 433 -757 330 -621 330 -468 c 0
 330 -359 381 -50 593 93 c 0
 642 126 683 174 719 208 c 1
 728 215 l 1
 730 2250 l 1
725 -34 m 1
 645 -112 l 1
 640 -115 l 1
 637 -119 l 2
 581 -193 510 -356 509 -466 c 0
 509 -524 528 -576 616 -576 c 1
 712 -574 722 -513 730 -475 c 1
 730 -466 l 2
 730 -455 729 -453 728 -453 c 0
 728 -453 728 -454 727 -454 c 0
 726 -454 725 -441 725 -307 c 2
 725 -117 l 1
 725 -34 l 1
EndSplineSet
Refer: 305 710 S 1 0 0 1 80 1800 2
LCarets2: 1 0
Ligature2: "Podtablica 'liga' Ligatury zwyk+AUIA-e w +AUIA-aci+AUQA-skie w tablicy 1" C z
EndChar

StartChar: ccaron
Encoding: 269 269 104
Width: 181
VWidth: 3070
Flags: HMW
HStem: -757 181 2230 20G<0 0>
VStem: -400 179 -5.375 182.375
LayerCount: 2
Fore
SplineSet
0 2250 m 1
 180 2248 l 1
 177 -473 l 1
 177 -474 l 1
 173 -545 162 -582 143 -623 c 0
 109 -698 42 -757 -114 -757 c 0
 -297 -757 -400 -621 -400 -468 c 0
 -400 -359 -349 -50 -137 93 c 0
 -88 126 -47 174 -11 208 c 1
 -2 215 l 1
 0 2250 l 1
-5 -34 m 1
 -85 -112 l 1
 -90 -115 l 1
 -93 -119 l 2
 -149 -193 -220 -356 -221 -466 c 0
 -221 -524 -202 -576 -114 -576 c 1
 -18 -574 -8 -513 0 -475 c 1
 0 -466 l 2
 -0 -455 -1 -453 -2 -453 c 0
 -2 -453 -2 -454 -3 -454 c 0
 -4 -454 -5 -441 -5 -307 c 2
 -5 -117 l 1
 -5 -34 l 1
EndSplineSet
Validated: 1
LCarets2: 1 0
Ligature2: "Podtablica 'liga' Ligatury zwyk+AUIA-e w +AUIA-aci+AUQA-skie w tablicy 1" c z
EndChar

StartChar: Dcaron
Encoding: 270 270 105
Width: 957
VWidth: 3070
Flags: HMW
HStem: 7 206 1255 20G 2000 21G<294 472 294 294 1206 1384 1206 1206> 2000 21G<294 472 294 294 1206 1384 1206 1206>
VStem: 773.5 179
LayerCount: 2
Fore
SplineSet
649 -322 m 0
 667 -326 683 -328 696 -328 c 0
 772 -328 781 -272 781 -225 c 0
 781 -208 780 -193 780 -181 c 0
 780 -180 780 -179 780 -178 c 2
 780 -18 l 1
 625 -66 l 1
 559 -108 534 -154 534 -196 c 0
 534 -258 590 -309 649 -322 c 0
780 188 m 1
 780 1250 l 1
 959 1250 l 1
 959 0 l 2
 959 -1 955 -192 955 -193 c 0
 951 -264 940 -301 921 -342 c 0
 887 -417 820 -476 664 -476 c 0
 482 -476 378 -341 378 -189 c 0
 378 -188 378 -188 378 -187 c 0
 379 0 535 72 780 188 c 1
EndSplineSet
Refer: 305 710 S 1 0 0 1 120 1785 2
Ligature2: "Podtablica 'liga' Ligatury zwyk+AUIA-e w +AUIA-aci+AUQA-skie w tablicy 1" D zdotaccent
LCarets2: 1 0
EndChar

StartChar: dcaron
Encoding: 271 271 106
Width: 184
VWidth: 3070
Flags: HMW
HStem: -18 206 1230 20G<-0.00195312 178.998 178.998 178.998>
VStem: 0 179
LayerCount: 2
Fore
SplineSet
-131 -322 m 0
 -113 -326 -97 -328 -84 -328 c 0
 -8 -328 1 -272 1 -225 c 0
 1 -208 -0 -193 -0 -181 c 0
 -0 -180 -0 -179 -0 -178 c 2
 -0 -18 l 1
 -155 -66 l 1
 -221 -108 -246 -154 -246 -196 c 0
 -246 -258 -190 -309 -131 -322 c 0
-0 188 m 1
 -0 1250 l 1
 179 1250 l 1
 179 0 l 2
 179 -1 175 -192 175 -193 c 0
 171 -264 160 -301 141 -342 c 0
 107 -417 40 -476 -116 -476 c 0
 -298 -476 -402 -341 -402 -189 c 0
 -402 -188 -402 -188 -402 -187 c 0
 -401 0 -245 72 -0 188 c 1
EndSplineSet
Validated: 1
Ligature2: "Podtablica 'liga' Ligatury zwyk+AUIA-e w +AUIA-aci+AUQA-skie w tablicy 1" d zdotaccent
LCarets2: 2 0 0
EndChar

StartChar: Eogonek
Encoding: 280 280 107
Width: 1686
VWidth: 0
Flags: HMW
HStem: 60 108.75 756.707 21G 1444.99 20G
LayerCount: 2
Fore
SplineSet
1695 184 m 1
 1710 77 l 1
 400 65 l 1
 383 174 l 1
 1695 184 l 1
EndSplineSet
Refer: 305 710 S 1 0 0 1 459 1785 2
EndChar

StartChar: eogonek
Encoding: 281 281 108
Width: 1296
VWidth: 0
Flags: HMW
HStem: 65 108.75<2.75 19.75>
LayerCount: 2
Fore
SplineSet
1315 184 m 1
 1330 77 l 1
 20 65 l 1
 3 174 l 1
 1315 184 l 1
EndSplineSet
Validated: 1
EndChar

StartChar: lslash
Encoding: 322 322 110
Width: 78
VWidth: 2048
Flags: HMW
HStem: -248 366<50.7002 99 50.7002 99.3003>
VStem: -90.6 333
LayerCount: 2
Fore
SplineSet
218 44 m 1
 -67 44 l 1
 -67 44 74 158 71 160 c 5
 218 44 l 1
75 133 m 0
 123 133 156 113 185 86 c 0
 217 57 242 9 242 -50 c 0
 242 -109 214 -164 186 -186 c 0
 154 -211 124 -233 75 -233 c 0
 26 -233 -5 -212 -36 -186 c 0
 -67 -160 -91 -109 -91 -50 c 0
 -91 9 -69 56 -36 86 c 0
 -6 113 26 133 75 133 c 0
  Spiro
    75 133 o
    118.368 126.827 o
    154.292 110.164 o
    185 86 o
    213.975 51.0037 o
    234.348 4.98625 o
    242 -50 o
    233.719 -106.539 o
    212.938 -154.115 o
    186 -186 o
    153.922 -209.275 o
    118.406 -226.383 o
    75 -233 o
    31.3723 -226.605 o
    -4.36633 -209.72 o
    -36 -186 o
    -64.0126 -152.337 o
    -83.6437 -105.652 o
    -91 -50 o
    -84.0875 4.76437 o
    -64.9015 50.5593 o
    -36 86 o
    -4.81078 110.164 o
    31.1504 126.827 o
    0 0 z
  EndSpiro
EndSplineSet
EndChar

StartChar: Nacute
Encoding: 323 323 111
Width: 1375
VWidth: 0
Flags: HMW
HStem: 261.342 169.69 920.044 21G 1279.92 20G
VStem: 1035.29 179.598
LayerCount: 2
Fore
SplineSet
952 273 m 0
 825 273 747 89 747 89 c 1
 592 193 l 1
 592 193 726 443 956 443 c 0
 1196 443 1205 196 1205 196 c 1
 1205 0 l 1
 1377 156 l 2
 1377 157 1378 157 1378 158 c 2
 1492 68 l 2
 1491 67 1491 67 1490 66 c 2
 1026 -448 l 1
 1025 71 l 2
 1024 78 1024 85 1024 92 c 2
 1024 92 1025 106 1025 127 c 0
 1025 179 1016 273 952 273 c 0
EndSplineSet
Refer: 305 710 S 1 0 0 1 333 1794 2
LCarets2: 1 0
Ligature2: "Podtablica 'liga' Ligatury zwyk+AUIA-e w +AUIA-aci+AUQA-skie w tablicy 1" N i
EndChar

StartChar: nacute
Encoding: 324 324 112
Width: 751
VWidth: 0
Flags: HMW
HStem: 273.31 169.69
VStem: 415.339 179.661
LayerCount: 2
Fore
SplineSet
342 273 m 0
 215 273 137 89 137 89 c 1
 -18 193 l 1
 -18 193 116 443 346 443 c 0
 586 443 595 196 595 196 c 1
 595 0 l 1
 767 156 l 2
 767 157 768 157 768 158 c 2
 882 68 l 2
 881 67 881 67 880 66 c 2
 416 -448 l 1
 415 71 l 2
 414 78 414 85 414 92 c 2
 414 92 415 106 415 127 c 0
 415 179 406 273 342 273 c 0
EndSplineSet
Validated: 1
LCarets2: 1 0
Ligature2: "Podtablica 'liga' Ligatury zwyk+AUIA-e w +AUIA-aci+AUQA-skie w tablicy 1" n i
EndChar

StartChar: sacute
Encoding: 347 347 114
Width: 235
VWidth: 0
Flags: W
VStem: 207 137<22.3919 770.766>
LayerCount: 2
Fore
SplineSet
47 903 m 1
 47 1101 l 1
 274 966 328 714 344 514 c 1
 344 362 333 284 300 79 c 0
 282 -34 220 -143 144 -290 c 0
 32 -506 -300 -896 -487 -1087 c 1
 -487 -888 l 1
 -357 -748 -125 -461 3 -245 c 0
 77 -121 146 13 160 79 c 0
 202 279 207 368 207 410 c 1
 215 614 184 754 47 903 c 1
EndSplineSet
Validated: 33
Ligature2: "Podtablica 'liga' Ligatury zwyk+AUIA-e w +AUIA-aci+AUQA-skie w tablicy 1" s i
LCarets2: 1 0
EndChar

StartChar: Scaron
Encoding: 352 352 115
Width: 1153
VWidth: 0
Flags: HMW
HStem: 914 21G 1695 21G<366 544 366 366 1277 1455 1277 1277>
LayerCount: 2
Fore
SplineSet
908 896 m 1
 780 1000 l 1
 867 1189 1015 1257 1136 1257 c 0
 1235 1257 1317 1211 1334 1147 c 0
 1354 1068 1364 973 1364 863 c 0
 1364 710 1345 527 1308 318 c 0
 1262 61 1220 -99 1130 -378 c 0
 1101 -467 994 -794 795 -951 c 0
 685 -1038 567 -1082 466 -1082 c 0
 331 -1082 230 -1002 230 -837 c 0
 230 -748 259 -634 330 -495 c 0
 376 -405 494 -263 640 -119 c 0
 778 17 767 -17 1100 213 c 1
 1126 314 1194 457 1194 761 c 0
 1194 807 1192 856 1189 909 c 0
 1183 999 1163 1075 1110 1075 c 0
 1068 1075 1004 1026 908 896 c 1
1072 -19 m 1
 854 -147 679 -263 559 -462 c 0
 477 -599 435 -718 435 -794 c 0
 435 -848 457 -880 499 -880 c 0
 546 -880 620 -841 719 -750 c 0
 908 -577 964 -385 990 -318 c 0
 1030 -214 1062 -123 1072 -19 c 1
EndSplineSet
Refer: 305 710 S 1 0 0 1 219 1797 2
LCarets2: 1 0
Ligature2: "Podtablica 'liga' Ligatury zwyk+AUIA-e w +AUIA-aci+AUQA-skie w tablicy 1" S z
EndChar

StartChar: scaron
Encoding: 353 353 116
Width: 375
VWidth: 0
Flags: HMW
HStem: 896 21G<128 128>
LayerCount: 2
Fore
SplineSet
128 896 m 1
 -0 1000 l 1
 87 1189 235 1257 356 1257 c 0
 455 1257 537 1211 554 1147 c 0
 574 1068 584 973 584 863 c 0
 584 710 565 527 528 318 c 0
 482 61 440 -99 350 -378 c 0
 321 -467 214 -794 15 -951 c 0
 -95 -1038 -213 -1082 -314 -1082 c 0
 -449 -1082 -550 -1001 -550 -837 c 0
 -550 -748 -521 -634 -450 -495 c 0
 -404 -405 -286 -263 -140 -119 c 0
 -2 17 -13 -17 320 213 c 1
 346 314 414 457 414 761 c 0
 414 807 412 856 409 909 c 0
 403 999 383 1075 330 1075 c 0
 288 1075 224 1026 128 896 c 1
292 -19 m 1
 74 -147 -101 -263 -221 -462 c 0
 -303 -599 -345 -718 -345 -794 c 0
 -345 -848 -323 -880 -281 -880 c 0
 -234 -880 -160 -841 -61 -750 c 0
 128 -577 184 -385 210 -318 c 0
 250 -214 282 -123 292 -19 c 1
EndSplineSet
Validated: 1
LCarets2: 1 0
Ligature2: "Podtablica 'liga' Ligatury zwyk+AUIA-e w +AUIA-aci+AUQA-skie w tablicy 1" s z
EndChar

StartChar: zacute
Encoding: 378 378 118
Width: 300
VWidth: 0
Flags: HMW
HStem: 903 198
VStem: 307 146
LayerCount: 2
Fore
SplineSet
-3 903 m 1
 -3 1101 l 1
 244 1032 371.355757814 795.6707361 398 758 c 0
 477.355989288 645.803206803 487.667852196 259.110331535 402 94 c 0
 341.752312968 -22.1172519798 221 -262 -27 -383 c 1
 -103 -256 l 1
 90.423828125 -181.125976562 218.136895332 31.5376534695 268 172 c 0
 319.237988899 316.33533973 357.250901215 522.148377814 254 708 c 4
 194 816 110 896 -3 903 c 1
EndSplineSet
LCarets2: 1 0
Ligature2: "Podtablica 'liga' Ligatury zwyk+AUIA-e w +AUIA-aci+AUQA-skie w tablicy 1" z i
EndChar

StartChar: Zdotaccent
Encoding: 379 379 119
Width: 1348
VWidth: 0
Flags: HMW
HStem: 1435.86 21G 1745.05 21G 2154.63 20G 2154.63 20G
VStem: 1327.8 141
LayerCount: 2
Fore
SplineSet
1087 896 m 1
 937 1000 l 1
 1026 1098 1134 1191 1236 1191 c 0
 1277 1191 1317 1176 1354 1140 c 0
 1437 1060 1447 897 1459 786 c 0
 1466 718 1469 647 1469 577 c 0
 1469 448 1439 76 1429 -4 c 0
 1416 -108 1379 -243 1339 -320 c 0
 1302 -392 1220 -474 1093 -474 c 0
 1081 -474 1069 -474 1056 -472 c 0
 971 -462 919 -369 919 -274 c 0
 919 -250 922 -227 929 -204 c 0
 959 -98 995 -19 1080 50 c 0
 1181 133 1203 132 1288 179 c 1
 1290 192 1315 551 1315 564 c 0
 1315 616 1309 750 1291 864 c 0
 1278 945 1250 1018 1205 1018 c 0
 1174 1018 1135 984 1087 896 c 1
1288 -24 m 1
 1243 -37 1199 -51 1144 -100 c 0
 1089 -149 1071 -212 1068 -250 c 0
 1068 -253 1068 -257 1068 -260 c 0
 1068 -303 1090 -332 1119 -332 c 0
 1120 -332 l 0
 1156 -331 1181 -305 1222 -246 c 0
 1257 -195 1283 -111 1288 -24 c 1
EndSplineSet
Refer: 305 710 S 1 0 0 1 432 1797 2
LCarets2: 1 0
Ligature2: "Podtablica 'liga' Ligatury zwyk+AUIA-e w +AUIA-aci+AUQA-skie w tablicy 1" R z
EndChar

StartChar: zdotaccent
Encoding: 380 380 120
Width: 375
VWidth: 0
Flags: HMW
VStem: 347 141
LayerCount: 2
Fore
SplineSet
126 896 m 1
 -24 1000 l 1
 65 1098 173 1191 275 1191 c 0
 316 1191 356 1176 393 1140 c 0
 476 1060 486 897 498 786 c 0
 505 718 508 647 508 577 c 0
 508 448 478 76 468 -4 c 0
 455 -108 418 -243 378 -320 c 0
 341 -392 259 -474 132 -474 c 0
 120 -474 108 -474 95 -472 c 0
 10 -462 -42 -369 -42 -274 c 0
 -42 -250 -39 -227 -32 -204 c 0
 -2 -98 34 -19 119 50 c 0
 220 133 242 132 327 179 c 1
 329 192 354 551 354 564 c 0
 354 616 348 750 330 864 c 0
 317 945 289 1018 244 1018 c 0
 213 1018 174 984 126 896 c 1
327 -24 m 1
 282 -37 238 -51 183 -100 c 0
 128 -149 110 -212 107 -250 c 0
 107 -253 107 -257 107 -260 c 0
 107 -303 129 -332 158 -332 c 0
 159 -332 l 0
 195 -331 220 -305 261 -246 c 0
 296 -195 322 -111 327 -24 c 1
EndSplineSet
Validated: 1
LCarets2: 1 0
Ligature2: "Podtablica 'liga' Ligatury zwyk+AUIA-e w +AUIA-aci+AUQA-skie w tablicy 1" r z
EndChar

StartChar: zcaron
Encoding: 382 382 121
Width: 371
VWidth: 0
Flags: W
HStem: -425 127<76.7169 207.38>
VStem: -75 148<-296.405 -137.76> 365 131<170.447 634.071>
LayerCount: 2
Fore
SplineSet
321 589 m 1
 296 677 135 883 24 889 c 2
 4 890 l 1
 112 1012 l 1
 119 1009 l 0
 271 947 382 786 419 704 c 0
 472 589 496 475 496 365 c 0
 496 179 474 -104 411 -214 c 1
 375 -278 324 -367 239 -396 c 0
 179 -417 129 -425 92 -425 c 0
 64 -425 42 -421 29 -414 c 1
 -34 -383 -73 -356 -75 -275 c 0
 -75 -272 -75 -268 -75 -264 c 0
 -75 -162 -33 -97 43 -20 c 0
 134 71 204 102 363 203 c 1
 364 234 365 361 365 373 c 0
 365 422 353 481 321 589 c 1
135 -288 m 1
 163 -272 204 -246 256 -185 c 0
 293 -141 315 -59 330 20 c 1
 245 -24 228 -24 150 -121 c 1
 75 -214 73 -248 73 -281 c 0
 73 -284 73 -288 73 -291 c 0
 73 -292 77 -298 95 -298 c 0
 108 -298 124 -295 135 -288 c 1
EndSplineSet
Validated: 1
EndChar

StartChar: luGLY
Encoding: 983212 983212 124
Width: 86
VWidth: 0
Flags: HMW
HStem: -142.302 364.302
VStem: 0 180<113 443>
LayerCount: 2
Fore
SplineSet
0 161 m 1
 133 80 l 5
 106 -5 90.8603515625 -28.943359375 73 -73 c 4
 43.0006472693 -147.000262403 -89 -263 -214 -173 c 0
 -246.834960938 -149.359375 -305 -80 -305 -21 c 0
 -305 38 -281 133 -243 170 c 0
 -201.457025878 210.449737961 -132 227 -85 217 c 0
 -58.5911399174 211.381093599 -20 184 0 145 c 1
 0 161 l 1
EndSplineSet
EndChar

StartChar: luGL
Encoding: 983213 983213 125
Width: 101
VWidth: 0
Flags: HMW
HStem: 31 366<-92.7002 -54.9902 -92.7002 -54.7183>
VStem: -234 413.727 0 179.802
LayerCount: 2
Fore
SplineSet
0 440 m 1xa0
 179 440 l 1
 180 246 l 1xc0
 297 112 355 -79 355 -237 c 0
 355 -398 296 -525 179 -525 c 0
 -1 -525 -0 -240 -0 -149 c 2
 -0 48 l 1xa0
 -19 38 -41 31 -68 31 c 0
 -117 31 -148 52 -179 78 c 0
 -210 104 -234 155 -234 214 c 0xc0
 -234 273 -212 320 -179 350 c 0
 -149 377 -117 397 -68 397 c 0
 -42 397 -19 391 0 381 c 1
 0 440 l 1xa0
180 143 m 1xa0
 180 -131 l 2
 180 -164 183 -345 204 -345 c 0
 222 -345 242 -266 242 -161 c 0
 242 -68 226 47 180 143 c 1xa0
EndSplineSet
Validated: 33
EndChar

StartChar: luKL
Encoding: 983214 983214 126
Width: 93
VWidth: 0
Flags: HMW
HStem: -36.8178 101.585 1001 366<-113.7 -67.9692> 1123.38 21G 1490 20G<0 0>
VStem: 0 78<1176.15 1213.7 1176.15 1510> 0 179.881 260.641 94.7712
LayerCount: 2
Fore
SplineSet
0 1510 m 1xba
 179 1510 l 1
 180 997 l 1
 273 786 355 310 355 156 c 0
 355 57 322 -13 236 -32 c 0
 222 -35 207 -37 191 -37 c 0
 101 -37 0 14 0 92 c 2
 0 864 l 2
 0 906 1 946 1 982 c 0
 1 1002 0 1021 0 1039 c 1
 -28 1018 -47 1001 -89 1001 c 0
 -138 1001 -169 1022 -200 1048 c 0
 -231 1074 -255 1125 -255 1184 c 0
 -255 1243 -233 1290 -200 1320 c 0
 -170 1347 -138 1367 -89 1367 c 0xd6
 -41 1367 -8 1347 21 1320 c 0
 53 1291 78 1243 78 1184 c 0
 78 1168 76 1153 73 1138 c 1
 75 1133 -3 1128 0 1123 c 1
 0 1510 l 1xba
180 616 m 1
 180 110 l 2
 180 90 205 65 228 65 c 0
 239 65 261 75 261 102 c 0
 261 120 227 477 180 616 c 1
EndSplineSet
Validated: 5
EndChar

StartChar: dolTW
Encoding: 983041 983041 128
Width: 355
VWidth: 3070
Flags: HMW
HStem: -61 124.258
VStem: 0 180
LayerCount: 2
Fore
SplineSet
0 250 m 1
 180 250 l 1
 180 110 l 2
 180 77 194 63 215 63 c 0
 254 63 317 110 355 158 c 1
 469 68 l 1
 364 -19 303 -61 180 -61 c 0
 80 -61 0 0 0 92 c 2
 0 250 l 1
EndSplineSet
Validated: 1
EndChar

StartChar: stemG
Encoding: 983042 983042 129
Width: 180
VWidth: 0
Flags: HMW
HStem: 1230 20G<0 180 180 180>
VStem: 0 180<252 1250 252 1250 252 1250>
LayerCount: 2
Fore
SplineSet
0 1250 m 5
 180 1250 l 5
 180 252 l 5
 0 250 l 5
 0 1250 l 5
EndSplineSet
Validated: 1
EndChar

StartChar: brzuchD
Encoding: 983043 983043 130
Width: 181
VWidth: 3070
Flags: HMW
HStem: 750 21G<180 180> 2068 181<294 338>
VStem: 3 180.375 401 179<1958 1987>
LayerCount: 2
Fore
SplineSet
180 750 m 1
 0 752 l 1
 3 1965 l 1
 3 1966 l 1
 7 2037 18 2074 37 2115 c 0
 71 2190 138 2249 294 2249 c 0
 477 2249 580 2113 580 1960 c 0
 580 1851 528 1164 315 1022 c 0
 266 989 225 941 189 907 c 1
 180 900 l 1
 180 750 l 1
183 1149 m 1
 263 1227 l 1
 268 1230 l 1
 271 1234 l 1
 331 1305 400 1848 401 1958 c 0
 401 2016 382 2068 294 2068 c 1
 198 2066 188 2005 180 1967 c 1
 180 1958 l 1
 182 1914 183 1641 183 1422 c 0
 183 1349 183 1282 183 1232 c 2
 183 1149 l 1
EndSplineSet
Validated: 1
EndChar

StartChar: prostaA
Encoding: 983044 983044 131
Width: 847
VWidth: 0
Flags: HMW
VStem: -1 954<150 1000>
LayerCount: 2
Fore
SplineSet
846 1092 m 1
 953 1000 l 1
 102 71 l 1
 -1 150 l 1
 846 1092 l 1
EndSplineSet
Validated: 1
EndChar

StartChar: prostaY
Encoding: 983045 983045 132
Width: 1498
VWidth: 0
Flags: HMW
HStem: 2072.5 20G<1489.06 1489.06> 2072.5 20G<1489.06 1489.06>
LayerCount: 2
Fore
SplineSet
1489 2092 m 1x80
 1596 2000 l 1
 102 71 l 1
 -1 150 l 1
 1489 2092 l 1x80
EndSplineSet
Validated: 1
EndChar

StartChar: brzuchM
Encoding: 983046 983046 133
Width: 353
VWidth: 3070
Flags: HMW
HStem: 1566 181<294 338>
VStem: 3 180.375<1271.91 1464 1271.91 1464> 401 179<1456 1485>
LayerCount: 2
Fore
SplineSet
183 1083 m 1
 263 1161 l 1
 268 1164 l 1
 271 1168 l 1
 331 1239 400 1346 401 1456 c 0
 401 1514 382 1566 294 1566 c 1
 198 1564 187 1495 180 1456 c 1
 182 1412 183 1384 183 1288 c 0
 183 1256 183 1216 183 1166 c 2
 183 1083 l 1
179 499 m 1
 0 499 l 1
 3 1463 l 1
 3 1464 l 1
 7 1535 18 1572 37 1613 c 0
 71 1688 138 1747 294 1747 c 0
 477 1747 580 1611 580 1458 c 0
 580 1349 528 1098 315 956 c 0
 266 923 225 875 189 841 c 1
 180 834 l 1
 179 499 l 1
EndSplineSet
Validated: 1
EndChar

StartChar: dolMK
Encoding: 983047 983047 134
Width: 357
VWidth: 0
Flags: HMW
HStem: -448 636<0 0>
VStem: 412 183
LayerCount: 2
Fore
SplineSet
0 188 m 1
 180 187 l 1
 179 0 l 1
 358 157 l 1
 472 68 l 1
 0 -448 l 1
 0 188 l 1
EndSplineSet
Validated: 1
EndChar

StartChar: o.alt
Encoding: 983048 983048 135
Width: 548
VWidth: 0
Flags: HMW
HStem: 908 101<944 974>
VStem: -6 106<0 9>
LayerCount: 2
Fore
SplineSet
100 70 m 1
 -6 79 l 1
 33 569 353 905 587 1089 c 1
 671 1009 l 1
 397 825 149 535 100 70 c 1
EndSplineSet
Validated: 1
EndChar

StartChar: u.alt
Encoding: 983049 983049 136
Width: 501
VWidth: 0
Flags: HMW
HStem: 918 21G 1227 108
VStem: -69 84
LayerCount: 2
Fore
SplineSet
553 973 m 1
 553 1081 514 1252 376 1257 c 1
 372 1257 l 2
 143.724414195 1257 22.1891491753 940.784641908 -4 44 c 1
 90 41 l 1
 144 920 223.840238189 1139 359 1139 c 2
 370 1139 l 1
 430 1133 462 1089 468 972 c 9
 499 973 553 973 553 973 c 1
EndSplineSet
EndChar

StartChar: tj
Encoding: 983050 983050 137
Width: 176
VWidth: 0
Flags: HMW
HStem: -878.967 145.603 -671.684 104.954
VStem: -563.526 105.971 -388.579 134.39
LayerCount: 2
Fore
SplineSet
187.10546875 -65.8466796875 m 5
 51.673828125 -517.185546875 -78.5830078125 -697.303710938 -274.654296875 -813.013671875 c 4
 -320.021484375 -839.456054688 -318.393770052 -851.164956843 -358.444231329 -851.164956843 c 0
 -370.347631619 -851.164956843 -426.958007812 -850.130859375 -438.239257812 -848.141601562 c 4
 -559.716796875 -826.721679688 -599.411276016 -693.663358025 -599.411276016 -551.235797321 c 0
 -599.411276016 -530.857218046 -642.677734375 -510.287109375 -639.069335938 -489.82421875 c 4
 -632.64453125 -453.385742188 -618.978515625 -416.194335938 -599.750976562 -382.013671875 c 4
 -507.319335938 -220.612304688 -418.69921875 -149.926757812 -279.44140625 -131.833984375 c 5
 -259.864257812 -112.946289062 -238.317382812 -94.40625 -216.1328125 -78.009765625 c 4
 -137.6484375 -18.7373046875 -106.260742188 49.853515625 140.095703125 145.528320312 c 5
 209.865234375 -23.1494140625 l 5
 186.115234375 -31.1474609375 164.3359375 -39.4921875 144.872070312 -46.21484375 c 5
 160.282226562 -50.962890625 174.359375 -57.5068359375 187.10546875 -65.8466796875 c 5
-213.55859375 -259.208984375 m 5
 -237.015625 -288.58203125 -262.326171875 -322.706054688 -291.16796875 -365.344726562 c 4
 -298.17578125 -376.294921875 -312.073242188 -420.553710938 -319.540039062 -462.900390625 c 4
 -322.849609375 -481.671875 -280.037013032 -500.276685906 -280.037013032 -515.738967242 c 0
 -280.037013032 -536.780820915 -320.986328125 -552.002929688 -310.200195312 -553.904296875 c 4
 -309.435546875 -554.0390625 -263.638874222 -554.10767137 -262.808056202 -554.10767137 c 0
 -245.439372393 -554.10767137 -258.323242188 -524.124023438 -203.106445312 -441.797851562 c 4
 -172.7578125 -396.377929688 -157.469726562 -361.502929688 -152.607421875 -333.928710938 c 4
 -151.559570312 -327.985351562 -106.056552866 -322.439503377 -106.056552866 -317.275738374 c 0
 -106.056552866 -283.934490302 -172.028320312 -266.532226562 -202.7265625 -261.119140625 c 4
 -206.665039062 -260.424804688 -209.620117188 -259.904296875 -213.55859375 -259.208984375 c 5
-22.2421875 -107.120117188 m 5
 -57.4033203125 -122.245117188 -86.654296875 -138.411132812 -115.790039062 -159.674804688 c 5
 -94.7021484375 -172.532226562 -76.6259765625 -190.950195312 -62.0244140625 -211.802734375 c 5
 -48.01171875 -172.641601562 -34.693359375 -137.418945312 -22.2421875 -107.120117188 c 5
-423.075195312 -335.994140625 m 5
 -426.55078125 -338.426757812 -429.21484375 -342.01953125 -432.690429688 -344.452148438 c 4
 -494.607421875 -407.661132812 -530.859375 -486.564453125 -542.494140625 -552.546875 c 4
 -545.208984375 -567.9453125 -501.552945911 -582.699709094 -501.552945911 -596.4571323 c 0
 -501.552945911 -646.9304869 -528.46484375 -683.979492188 -493.640625 -690.120117188 c 4
 -489.997070312 -690.762695312 -441.353022299 -691.405577573 -436.791856052 -691.405577573 c 0
 -436.422427874 -691.405577573 -481.046875 -691.401367188 -480.665039062 -691.392578125 c 4
 -418.333984375 -689.182617188 -364.6953125 -667.162109375 -318.009765625 -632.74609375 c 5
 -340.202148438 -642.483398438 -314.573814135 -648.417466722 -329.543933864 -648.417466722 c 0
 -332.391357388 -648.417466722 -380.079101562 -648.203125 -382.59765625 -647.758789062 c 4
 -390.4765625 -646.370117188 -397.022460938 -643.184570312 -401.079101562 -637.392578125 c 4
 -438.161132812 -590.955078125 -409.802692282 -537.104760312 -409.802692282 -479.99232525 c 0
 -409.802692282 -461.523001401 -453.0625 -442.712890625 -449.709960938 -423.701171875 c 4
 -444.674804688 -395.141601562 -435.352539062 -365.307617188 -423.075195312 -335.994140625 c 5
EndSplineSet
Validated: 37
EndChar

StartChar: aogonek.alt
Encoding: 983053 983053 138
Width: 1292
VWidth: 0
Flags: HMW
HStem: 2023.38 20G
VStem: 0 114<42 55.625>
LayerCount: 2
Fore
SplineSet
114 72 m 1
 0 155 l 1
 69 1347 845 1829 1321 2004 c 1
 1425 1916 l 1
 801 1680 218 1176 114 72 c 1
EndSplineSet
Validated: 1
EndChar

StartChar: luM
Encoding: 983054 983054 139
Width: 750
VWidth: 0
Flags: HMW
HStem: 893 21G<134 134> 1077.31 169.69
VStem: 412.339 179.661
LayerCount: 2
Fore
SplineSet
414 838 m 1
 414 838 l 1
 411 896 l 1
 411 896 412 910 412 931 c 0
 412 983 403 1077 339 1077 c 0
 337 1077 335 1077 333 1077 c 0
 209 1065 134 893 134 893 c 1
 -21 997 l 1
 -21 997 113 1247 343 1247 c 0
 583 1247 592 1000 592 1000 c 1
 593 837 l 1
 414 838 l 1
EndSplineSet
Validated: 5
EndChar

StartChar: dzi
Encoding: 983056 983056 141
Width: 559
VWidth: 0
Flags: HMW
HStem: 273 170<275 281 275 275>
VStem: -79 649<193 196>
LayerCount: 2
Fore
SplineSet
701 244 m 0
 717 183 679.062262474 20.0482856119 644 -28 c 0
 617 -65 559 -145 437.25 -203 c 1
 355 -30 l 1
 377.291015625 -41.1455078125 527 60 492.25 202 c 0
 468.840654521 297.658332607 398.356445312 301 331 301 c 1
 207 289 126 48 126 48 c 1
 -19 162 l 5
 -19 162 99.3116164579 441.473088065 327 474 c 0
 614 515 677.583007812 333.276367188 701 244 c 0
EndSplineSet
Ligature2: "Podtablica 'liga' Ligatury zwyk+AUIA-e w +AUIA-aci+AUQA-skie w tablicy 1" d zacute
Ligature2: "Podtablica 'liga' Ligatury zwyk+AUIA-e w +AUIA-aci+AUQA-skie w tablicy 1" d z i
LCarets2: 2 282 120
EndChar

StartChar: gi
Encoding: 983057 983057 142
Width: 351
VWidth: 0
Flags: HMW
HStem: 1230 20G<0 180 180 180>
VStem: 0 180<1250 1250>
LayerCount: 2
Fore
SplineSet
0 1250 m 1
 180 1250 l 1
 180 189 l 1
 180 2 l 1
 357 160 l 1
 471 70 l 1
 0 -446 l 1
 1 190 l 1
 0 1250 l 1
EndSplineSet
Validated: 1
Ligature2: "Podtablica 'liga' Ligatury zwyk+AUIA-e w +AUIA-aci+AUQA-skie w tablicy 1" g j
Ligature2: "Podtablica 'liga' Ligatury zwyk+AUIA-e w +AUIA-aci+AUQA-skie w tablicy 1" g i
LCarets2: 1 0
EndChar

StartChar: Gi
Encoding: 983058 983058 143
Width: 1112
VWidth: 0
Flags: HMW
HStem: 1230 20<741 921 921 921>
VStem: 741 180<1250 1250>
LayerCount: 2
Fore
SplineSet
741 1250 m 1
 921 1250 l 1
 921 189 l 1
 921 2 l 1
 1098 160 l 1
 1212 70 l 1
 741 -446 l 1
 742 190 l 1
 741 1250 l 1
EndSplineSet
Refer: 305 710 S 1 0 0 1 192 1800 2
Ligature2: "Podtablica 'liga' Ligatury zwyk+AUIA-e w +AUIA-aci+AUQA-skie w tablicy 1" G j
Ligature2: "Podtablica 'liga' Ligatury zwyk+AUIA-e w +AUIA-aci+AUQA-skie w tablicy 1" G i
LCarets2: 1 0
EndChar

StartChar: ki
Encoding: 983059 983059 144
Width: 357
VWidth: 0
Flags: HMW
HStem: 2230.8 20G
VStem: 0 179<0 0 0 2250.8>
LayerCount: 2
Fore
SplineSet
0 2251 m 1
 180 2250 l 1
 179 0 l 1
 358 157 l 1
 472 68 l 1
 0 -448 l 1
 0 2251 l 1
EndSplineSet
Validated: 1
Ligature2: "Podtablica 'liga' Ligatury zwyk+AUIA-e w +AUIA-aci+AUQA-skie w tablicy 1" k j
Ligature2: "Podtablica 'liga' Ligatury zwyk+AUIA-e w +AUIA-aci+AUQA-skie w tablicy 1" k i
LCarets2: 1 0
EndChar

StartChar: Ki
Encoding: 983060 983060 145
Width: 1084
VWidth: 0
Flags: HMW
HStem: 2231.8 20
VStem: 723 179<1 1 1 2251.8>
LayerCount: 2
Fore
SplineSet
723 2252 m 1
 903 2251 l 1
 902 1 l 1
 1081 158 l 1
 1195 69 l 1
 723 -447 l 1
 723 2252 l 1
EndSplineSet
Refer: 305 710 S 1 0 0 1 168 1806 2
Ligature2: "Podtablica 'liga' Ligatury zwyk+AUIA-e w +AUIA-aci+AUQA-skie w tablicy 1" K j
Ligature2: "Podtablica 'liga' Ligatury zwyk+AUIA-e w +AUIA-aci+AUQA-skie w tablicy 1" K i
LCarets2: 1 0
EndChar

StartChar: bi
Encoding: 983063 983063 146
Width: 353
VWidth: 3070
Flags: HMW
HStem: 1566 181<294 338>
VStem: 0 179<0 0 0 543.5> 401 179<1456 1485>
LayerCount: 2
Fore
SplineSet
183 1083 m 1
 263 1161 l 1
 268 1164 l 1
 271 1168 l 1
 331 1239 400 1346 401 1456 c 0
 401 1514 382 1566 294 1566 c 1
 198 1564 187 1495 180 1456 c 1
 182 1412 183 1384 183 1288 c 0
 183 1256 183 1216 183 1166 c 2
 183 1083 l 1
179 524 m 1
 179 0 l 1
 358 157 l 1
 472 68 l 1
 0 -448 l 1
 0 544 l 1
 3 1463 l 1
 3 1464 l 1
 7 1535 18 1572 37 1613 c 0
 71 1688 138 1747 294 1747 c 0
 477 1747 580 1611 580 1458 c 0
 580 1349 528 1098 315 956 c 0
 266 923 225 875 189 841 c 1
 180 834 l 1
 179 524 l 1
EndSplineSet
Validated: 1
Ligature2: "Podtablica 'liga' Ligatury zwyk+AUIA-e w +AUIA-aci+AUQA-skie w tablicy 1" b j
Ligature2: "Podtablica 'liga' Ligatury zwyk+AUIA-e w +AUIA-aci+AUQA-skie w tablicy 1" b i
LCarets2: 1 0
EndChar

StartChar: Bi
Encoding: 983064 983064 147
Width: 969
VWidth: 3070
Flags: HMW
HStem: 1571 181<898 942>
VStem: 604 179<5 5 5 548.5> 1005 179<1461 1490>
LayerCount: 2
Fore
SplineSet
787 1088 m 1
 867 1166 l 1
 872 1169 l 1
 875 1173 l 1
 935 1244 1004 1351 1005 1461 c 0
 1005 1519 986 1571 898 1571 c 1
 802 1569 791 1500 784 1461 c 1
 786 1418 787 1389 787 1293 c 0
 787 1261 787 1221 787 1171 c 2
 787 1088 l 1
783 528 m 1
 783 5 l 1
 962 162 l 1
 1076 73 l 1
 604 -443 l 1
 604 548 l 1
 607 1468 l 1
 607 1469 l 1
 611 1540 622 1577 641 1618 c 0
 675 1693 742 1752 898 1752 c 0
 1081 1752 1184 1616 1184 1463 c 0
 1184 1354 1132 1103 919 961 c 0
 870 928 829 880 793 846 c 1
 784 839 l 1
 783 528 l 1
EndSplineSet
Refer: 305 710 S 1 0 0 1 120 1794 2
Ligature2: "Podtablica 'liga' Ligatury zwyk+AUIA-e w +AUIA-aci+AUQA-skie w tablicy 1" B j
Ligature2: "Podtablica 'liga' Ligatury zwyk+AUIA-e w +AUIA-aci+AUQA-skie w tablicy 1" B i
LCarets2: 1 5
EndChar

StartChar: wi
Encoding: 983065 983065 148
Width: 506
VWidth: 0
Flags: HMW
HStem: 896 21G<355 355> 1030 218<160.5 163 52 217>
VStem: -64 177
LayerCount: 2
Fore
SplineSet
154 398 m 1
 245 -69 l 1
 504 158 l 1
 602 19 l 1
 130 -448 l 1
 49 -94 -30 278 -34 638 c 1
 -32 941 19 1218 185 1248 c 0
 240 1258 313 1230 404 1108 c 1
 405 926 l 1
 335 1023 274 1039 239 1030 c 0
 162 1010 143 855 143 727 c 0
 143 689 154 422 154 398 c 1
EndSplineSet
Validated: 33
LCarets2: 1 1
Ligature2: "Podtablica 'liga' Ligatury zwyk+AUIA-e w +AUIA-aci+AUQA-skie w tablicy 1" w i
EndChar

StartChar: Wi
Encoding: 983066 983066 149
Width: 1073
VWidth: 0
Flags: HMW
HStem: 893 21<1055 1055> 1027 218<860.5 863 752 917>
VStem: 636 177
LayerCount: 2
Fore
SplineSet
824 394 m 1
 879 -3 l 1
 1058 154 l 1
 1172 65 l 1
 700 -451 l 1
 672 -97 640 275 636 635 c 1
 638 818 669 1245 835 1245 c 0
 891 1245 963 1197 1054 1075 c 1
 1055 893 l 1
 985 990 935 1027 899 1027 c 0
 822 1027 813 852 813 724 c 0
 813 686 824 418 824 394 c 1
EndSplineSet
Refer: 305 710 S 1 0 0 1 168 1788 2
LCarets2: 1 0
Ligature2: "Podtablica 'liga' Ligatury zwyk+AUIA-e w +AUIA-aci+AUQA-skie w tablicy 1" W i
EndChar

StartChar: fii
Encoding: 983067 983067 150
Width: 354
VWidth: 0
Flags: HMW
HStem: 1853 21G<355 355> 1989 255<88.7183 145.5 -13.2993 188.5>
VStem: -184.269 185.269<1133.22 1201 1018.5 1324.54>
LayerCount: 2
Fore
SplineSet
-184 1094 m 0
 -184 1109 -184 1125 -184 1142 c 0
 -184 1508 -139 2244 112 2244 c 0
 179 2244 259 2192 354 2067 c 1
 355 1853 l 1
 276 1950 213 1989 164 1989 c 0
 13 1989 0 1626 0 1355 c 0
 0 1298 1 1245 1 1201 c 2
 1 1118 l 2
 1 919 59 473 75 378 c 0
 80 348 93 321 99 292 c 1
 179 0 l 1
 358 157 l 1
 472 68 l 1
 0 -448 l 1
 -81 291 l 1
 -100 410 -182 911 -184 1094 c 0
EndSplineSet
Validated: 1
LCarets2: 1 0
Ligature2: "Podtablica 'liga' Ligatury zwyk+AUIA-e w +AUIA-aci+AUQA-skie w tablicy 1" f i
EndChar

StartChar: Fii
Encoding: 983068 983068 151
Width: 1099
VWidth: 0
Flags: HMW
HStem: 1997 255<793.718 850.5 691.701 893.5> 2500 21G<299 477 299 299 1210 1388 1210 1210> 3037 20G<755 932 932 932>
VStem: 520.731 185.269<1141.22 1209 1026.5 1332.54>
LayerCount: 2
Fore
SplineSet
521 1102 m 0
 521 1117 521 1133 521 1150 c 0
 521 1516 566 2252 817 2252 c 0
 884 2252 964 2200 1059 2075 c 1
 1060 1861 l 1
 981 1958 918 1997 869 1997 c 0
 718 1997 705 1634 705 1363 c 0
 705 1306 706 1253 706 1209 c 2
 706 1126 l 2
 706 927 764 481 780 386 c 0
 785 356 798 329 804 300 c 1
 884 8 l 1
 1063 165 l 1
 1177 76 l 1
 705 -440 l 1
 624 299 l 1
 605 418 523 919 521 1102 c 0
EndSplineSet
Refer: 305 710 S 1 0 0 1 145 1780 2
LCarets2: 1 0
Ligature2: "Podtablica 'liga' Ligatury zwyk+AUIA-e w +AUIA-aci+AUQA-skie w tablicy 1" F i
EndChar

StartChar: hi
Encoding: 983069 983069 152
Width: 781
VWidth: 0
Flags: HMW
HStem: 1896 21G<140.999 140.999> 1896 21G<140.999 140.999> 2080.31 169.69
VStem: 430.75 179
LayerCount: 2
Fore
SplineSet
347 2080 m 0xb0
 219 2080 141 1896 141 1896 c 1
 -14 2000 l 1
 -14 2000 120 2250 351 2250 c 0
 590 2250 599 2003 599 2003 c 1
 609 187 l 1
 611 187 l 1
 610 0 l 1
 773 144 l 1
 777 149 781 154 784 158 c 1
 787 156 l 1
 789 157 l 1
 902 68 l 1
 431 -448 l 1
 431 71 l 2
 430 78 430 85 430 92 c 2
 418 1899 l 1
 418 1899 419 1913 419 1934 c 0
 419 1987 410 2080 347 2080 c 0xb0
EndSplineSet
Validated: 1
LCarets2: 1 0
Ligature2: "Podtablica 'liga' Ligatury zwyk+AUIA-e w +AUIA-aci+AUQA-skie w tablicy 1" h i
EndChar

StartChar: Hi
Encoding: 983070 983070 153
Width: 1248
VWidth: 0
Flags: HMW
HStem: 1894 21<610 610> 2078.31 169.69
VStem: 899.75 179<-2 -2 -2 69.1914 -2 69.1914>
LayerCount: 2
Fore
SplineSet
816 2078 m 0
 688 2078 610 1894 610 1894 c 1
 455 1998 l 1
 455 1998 589 2248 820 2248 c 0
 1059 2248 1068 2001 1068 2001 c 1
 1078 185 l 1
 1080 185 l 1
 1079 -2 l 1
 1242 142 l 1
 1246 147 1250 152 1253 156 c 1
 1256 154 l 1
 1258 155 l 1
 1371 66 l 1
 900 -450 l 1
 900 69 l 2
 899 76 899 83 899 90 c 2
 887 1897 l 1
 887 1897 888 1911 888 1932 c 0
 888 1985 879 2078 816 2078 c 0
EndSplineSet
Refer: 305 710 S 1 0 0 1 204 1788 2
LCarets2: 1 0
Ligature2: "Podtablica 'liga' Ligatury zwyk+AUIA-e w +AUIA-aci+AUQA-skie w tablicy 1" H i
EndChar

StartChar: ti
Encoding: 983071 983071 154
Width: 160
VWidth: 0
Flags: HMW
HStem: -878.967 145.514 2230 20G<98 277 277 277>
VStem: -563.526 105.786 -389.053 134.863 -60 198<1368 1640> 140 190<574 791.5>
LayerCount: 2
Fore
SplineSet
176 0 m 1
 121 -468 24 -668 -149 -816 c 0
 -201 -860 -254 -879 -304 -879 c 0
 -445 -879 -564 -727 -564 -561 c 0
 -564 -524 -557 -485 -544 -448 c 0
 -481 -273 -406 -188 -272 -146 c 1
 -256 -123 -238 -102 -219 -82 c 0
 -155 -14 -135 56 61 180 c 1
 119 352 140 515 140 625 c 0
 140 958 -60 1149 -60 1550 c 0
 -60 1730 -20 1953 98 2250 c 1
 277 2250 l 1
 174 1965 138 1748 138 1572 c 0
 138 1164 330 972 330 645 c 0
 330 503 294 276 191 48 c 1
 191 46 l 1
 190 46 l 1
 183 31 176 17 169 3 c 1
 172 2 174 1 176 0 c 1
-185 -260 m 1
 -203 -293 -222 -331 -243 -378 c 0
 -248 -390 -254 -436 -254 -479 c 0
 -254 -524 -248 -567 -229 -567 c 0
 -212 -567 -185 -533 -143 -438 c 0
 -121 -388 -112 -351 -112 -323 c 0
 -112 -277 -137 -259 -174 -259 c 0
 -177 -259 -181 -260 -185 -260 c 1
-23 -77 m 1
 -55 -98 -82 -119 -106 -145 c 1
 -83 -155 -62 -169 -44 -187 c 1
 -37 -146 -30 -109 -23 -77 c 1
-378 -372 m 1
 -381 -375 -383 -379 -386 -382 c 0
 -436 -455 -458 -538 -458 -606 c 0
 -458 -679 -431 -733 -386 -733 c 0
 -382 -733 -378 -733 -373 -732 c 0
 -312 -719 -263 -688 -223 -646 c 1
 -258 -670 -288 -679 -304 -665 c 0
 -363 -614 -389 -543 -389 -465 c 0
 -389 -434 -385 -403 -378 -372 c 1
EndSplineSet
Validated: 1
LCarets2: 1 0
Ligature2: "Podtablica 'liga' Ligatury zwyk+AUIA-e w +AUIA-aci+AUQA-skie w tablicy 1" t i
EndChar

StartChar: Ti
Encoding: 983072 983072 155
Width: 802
VWidth: 0
Flags: HMW
HStem: -885.967 145.514 2223 20<756 935 935 935>
VStem: 94.4741 105.786 268.947 134.863 598 198<1361 1633> 798 190<567 784.5>
LayerCount: 2
Fore
SplineSet
834 -7 m 1
 779 -475 682 -675 509 -823 c 0
 457 -867 404 -886 354 -886 c 0
 213 -886 94 -734 94 -568 c 0
 94 -531 101 -492 114 -455 c 0
 177 -280 252 -195 386 -153 c 1
 402 -130 420 -109 439 -89 c 0
 503 -21 523 49 719 173 c 1
 777 345 798 508 798 618 c 0
 798 951 598 1142 598 1543 c 0
 598 1723 638 1946 756 2243 c 1
 935 2243 l 1
 832 1958 796 1741 796 1565 c 0
 796 1157 988 965 988 638 c 0
 988 496 952 269 849 41 c 1
 849 39 l 1
 848 39 l 1
 841 24 834 10 827 -4 c 1
 830 -5 832 -6 834 -7 c 1
473 -267 m 1
 455 -300 436 -338 415 -385 c 0
 410 -397 404 -443 404 -486 c 0
 404 -531 410 -574 429 -574 c 0
 446 -574 473 -540 515 -445 c 0
 537 -395 546 -358 546 -330 c 0
 546 -284 521 -266 484 -266 c 0
 481 -266 477 -267 473 -267 c 1
635 -84 m 1
 603 -105 576 -126 552 -152 c 1
 575 -162 596 -176 614 -194 c 1
 621 -153 628 -116 635 -84 c 1
280 -379 m 1
 277 -382 275 -386 272 -389 c 0
 222 -462 200 -545 200 -613 c 0
 200 -686 227 -740 272 -740 c 0
 276 -740 280 -740 285 -739 c 0
 346 -726 395 -695 435 -653 c 1
 400 -677 370 -686 354 -672 c 0
 295 -621 269 -550 269 -472 c 0
 269 -441 273 -410 280 -379 c 1
EndSplineSet
Refer: 305 710 S 1 0 0 1 60 1806 2
LCarets2: 1 0
Ligature2: "Podtablica 'liga' Ligatury zwyk+AUIA-e w +AUIA-aci+AUQA-skie w tablicy 1" T i
EndChar

StartChar: di
Encoding: 983073 983073 156
Width: 56
VWidth: 0
Flags: HMW
HStem: -878.967 145.514 1231 20G<98 277 277 277>
VStem: -583.526 105.786 -409.053 134.863 -2 176<903.5 1034> 96 182<388 528.5>
LayerCount: 2
Fore
SplineSet
98 1251 m 1xf8
 277 1251 l 1
 200 1166 174 1080 174 992 c 0xf8
 174 815 278 630 278 433 c 0
 278 322 245 209 143 90 c 1
 171 46 l 1
 149 34 129 22 110 12 c 1
 126 10 142 6 156 0 c 1
 101 -468 4 -668 -169 -816 c 0
 -221 -860 -274 -879 -324 -879 c 0
 -465 -879 -584 -727 -584 -561 c 0
 -584 -524 -577 -485 -564 -448 c 0
 -501 -273 -426 -188 -292 -146 c 1
 -276 -123 -258 -102 -239 -82 c 0
 -178 -17 -156 50 20 166 c 1
 76 256 96 345 96 431 c 0xf4
 96 626 -2 812 -2 989 c 0
 -2 1079 23 1166 98 1251 c 1xf8
-205 -260 m 1
 -223 -293 -242 -331 -263 -378 c 0
 -268 -390 -274 -436 -274 -479 c 0
 -274 -524 -268 -567 -249 -567 c 0
 -232 -567 -205 -533 -163 -438 c 0
 -141 -388 -132 -351 -132 -323 c 0
 -132 -277 -157 -259 -194 -259 c 0
 -197 -259 -201 -260 -205 -260 c 1
-43 -77 m 1
 -75 -98 -102 -119 -126 -145 c 1
 -103 -155 -82 -169 -64 -187 c 1
 -57 -146 -50 -109 -43 -77 c 1
-398 -372 m 1
 -401 -375 -403 -379 -406 -382 c 0
 -456 -455 -478 -538 -478 -606 c 0
 -478 -679 -451 -733 -406 -733 c 0
 -402 -733 -398 -733 -393 -732 c 0
 -332 -719 -283 -688 -243 -646 c 1
 -278 -670 -308 -679 -324 -665 c 0
 -383 -614 -409 -543 -409 -465 c 0
 -409 -434 -405 -403 -398 -372 c 1
EndSplineSet
Validated: 1
LCarets2: 1 0
Ligature2: "Podtablica 'liga' Ligatury zwyk+AUIA-e w +AUIA-aci+AUQA-skie w tablicy 1" d i
EndChar

StartChar: mi
Encoding: 983074 983074 157
Width: 750
VWidth: 0
Flags: HMW
HStem: 893 21G<134.001 134.001> 1077.31 169.69
VStem: 413.5 179.413
LayerCount: 2
Fore
SplineSet
768 158 m 1
 885 68 l 1
 414 -448 l 1
 414 188 l 2
 414 188 l 2
 411 896 l 1
 411 896 412 910 412 931 c 0
 412 983 403 1077 339 1077 c 0
 337 1077 335 1077 333 1077 c 0
 209 1065 134 893 134 893 c 1
 -21 997 l 1
 -21 997 113 1247 343 1247 c 0
 583 1247 592 1000 592 1000 c 1
 593 187 l 2
 593 187 593 187 594 187 c 2
 592 0 l 1
 768 158 l 1
EndSplineSet
Validated: 5
LCarets2: 1 0
Ligature2: "Podtablica 'liga' Ligatury zwyk+AUIA-e w +AUIA-aci+AUQA-skie w tablicy 1" m i
EndChar

StartChar: Mi
Encoding: 983075 983075 158
Width: 1245
VWidth: 0
Flags: HMW
HStem: 903 21<608 608> 1087.31 169.69
VStem: 887.5 179.413
LayerCount: 2
Fore
SplineSet
1242 168 m 1
 1359 78 l 1
 888 -438 l 1
 888 198 l 2
 888 198 l 2
 885 906 l 1
 885 906 886 920 886 941 c 0
 886 993 877 1087 813 1087 c 0
 811 1087 809 1087 807 1087 c 0
 683 1075 608 903 608 903 c 1
 453 1007 l 1
 453 1007 587 1257 817 1257 c 0
 1057 1257 1066 1010 1066 1010 c 1
 1067 197 l 2
 1067 197 1067 197 1068 197 c 2
 1066 10 l 1
 1242 168 l 1
EndSplineSet
Refer: 305 710 S 1 0 0 1 186 1794 2
LCarets2: 1 0
Ligature2: "Podtablica 'liga' Ligatury zwyk+AUIA-e w +AUIA-aci+AUQA-skie w tablicy 1" M i
EndChar

StartChar: to
Encoding: 983076 983076 159
Width: 173
VWidth: 0
Flags: HMW
HStem: -13.3665 162.269 2230 20G<128 128>
VStem: -200.487 156.129 -30 198 177.12 184.103
LayerCount: 2
Fore
SplineSet
128 2250 m 1
 307 2250 l 1
 204 1965 168 1748 168 1572 c 0
 168 1164 360 972 360 645 c 0
 360 635 361 605 361 564 c 0
 361 418 346 129 209 25 c 0
 175 -1 131 -13 86 -13 c 0
 -46 -13 -197 89 -200 253 c 0
 -200 267 -200 280 -200 293 c 0
 -200 565 -129 697 93 944 c 1
 35 1121 -30 1293 -30 1550 c 0
 -30 1730 10 1953 128 2250 c 1
153 729 m 1
 -16 525 -21 485 -40 370 c 0
 -43 352 -44 333 -44 314 c 0
 -44 232 -19 149 27 149 c 0
 44 149 64 161 86 189 c 0
 161 284 177 417 177 514 c 0
 177 564 173 604 170 625 c 0
 166 661 160 696 153 729 c 1
EndSplineSet
Validated: 1
EndChar

StartChar: To
Encoding: 983077 983077 160
Width: 702
VWidth: 0
Flags: HMW
HStem: -11.3665 162.269 2232 20<724 903 903 903>
VStem: 395.513 156.129 566 198<1423.5 1642> 773.12 184.103
LayerCount: 2
Fore
SplineSet
724 2252 m 1
 903 2252 l 1
 800 1967 764 1750 764 1574 c 0
 764 1166 956 974 956 647 c 0
 956 637 957 607 957 566 c 0
 957 420 942 131 805 27 c 0
 771 1 727 -11 682 -11 c 0
 550 -11 399 91 396 255 c 0
 396 269 396 282 396 295 c 0
 396 567 467 699 689 946 c 1
 631 1123 566 1295 566 1552 c 0
 566 1732 606 1955 724 2252 c 1
749 731 m 1
 580 527 575 487 556 372 c 0
 553 354 552 335 552 316 c 0
 552 234 577 151 623 151 c 0
 640 151 660 163 682 191 c 0
 757 286 773 419 773 516 c 0
 773 566 769 606 766 627 c 0
 762 663 756 698 749 731 c 1
EndSplineSet
Refer: 305 710 S 1 0 0 1 84.25 1806 2
EndChar

StartChar: kly
Encoding: 983082 983082 163
Width: 86
VWidth: 0
Flags: HMW
HStem: -142.302 364.302
VStem: 0 180<113 2250>
LayerCount: 2
Fore
SplineSet
0 2250 m 1
 179 2250 l 1
 180 113 l 2
 180 80 164 6 160 -14 c 0
 142 -105 41 -142 -27 -142 c 0
 -32 -142 -37 -142 -42 -142 c 1
 -50 -143 -59 -144 -69 -144 c 0
 -118 -144 -149 -123 -180 -97 c 0
 -211 -71 -235 -20 -235 39 c 0
 -235 98 -213 145 -180 175 c 0
 -150 202 -118 222 -69 222 c 0
 -42 222 -20 184 0 145 c 1
 0 2250 l 1
EndSplineSet
Validated: 1
LCarets2: 1 0
Ligature2: "Podtablica 'liga' Ligatury zwyk+AUIA-e w +AUIA-aci+AUQA-skie w tablicy 1" k lslash
EndChar

StartChar: Kly
Encoding: 983083 983083 164
Width: 761
VWidth: 0
Flags: HMW
HStem: -75.3017 364.302 2230 20<713.497 892.497 892.497 892.497>
VStem: 713.497 180
LayerCount: 2
Fore
SplineSet
713 2250 m 1
 892 2250 l 1
 893 113 l 2
 894 80 878 6 874 -14 c 0
 855 -105 754 -142 687 -142 c 0
 681 -142 676 -142 671 -142 c 1
 663 -143 654 -144 644 -144 c 0
 596 -144 565 -123 533 -97 c 0
 503 -71 479 -20 479 39 c 0
 479 98 500 145 533 175 c 0
 563 202 596 222 644 222 c 0
 672 222 694 184 713 145 c 1
 713 2250 l 1
EndSplineSet
Refer: 305 710 S 1 0 0 1 156 1800 2
LCarets2: 1 0
Ligature2: "Podtablica 'liga' Ligatury zwyk+AUIA-e w +AUIA-aci+AUQA-skie w tablicy 1" K lslash
EndChar

StartChar: Di
Encoding: 983084 983084 165
Width: 784
VWidth: 0
Flags: HMW
HStem: -884.967 145.514 1225 20<776 955 955 955>
VStem: 94.4741 105.786 268.947 134.863 676 176<897.5 1028> 774 182<382 522.5>
LayerCount: 2
Fore
SplineSet
776 1245 m 1xd8
 955 1245 l 1
 878 1160 852 1074 852 986 c 0xd8
 852 809 956 624 956 427 c 0
 956 316 923 203 821 84 c 1
 849 40 l 1
 827 28 807 16 788 6 c 1
 804 4 820 0 834 -6 c 1
 779 -474 682 -674 509 -822 c 0
 457 -866 404 -885 354 -885 c 0
 213 -885 94 -733 94 -567 c 0
 94 -530 101 -491 114 -454 c 0
 177 -279 252 -194 386 -152 c 1
 402 -129 420 -108 439 -88 c 0
 500 -23 522 44 698 160 c 1
 754 250 774 339 774 425 c 0xd4
 774 620 676 806 676 983 c 0
 676 1073 701 1160 776 1245 c 1xd8
473 -266 m 1
 455 -299 436 -337 415 -384 c 0
 410 -396 404 -442 404 -485 c 0
 404 -530 410 -573 429 -573 c 0
 446 -573 473 -539 515 -444 c 0
 537 -394 546 -357 546 -329 c 0
 546 -283 521 -265 484 -265 c 0
 481 -265 477 -266 473 -266 c 1
635 -83 m 1
 603 -104 576 -125 552 -151 c 1
 575 -161 596 -175 614 -193 c 1
 621 -152 628 -115 635 -83 c 1
280 -378 m 1
 277 -381 275 -385 272 -388 c 0
 222 -461 200 -544 200 -612 c 0
 200 -685 227 -739 272 -739 c 0
 276 -739 280 -739 285 -738 c 0
 346 -725 395 -694 435 -652 c 1
 400 -676 370 -685 354 -671 c 0
 295 -620 269 -549 269 -471 c 0
 269 -440 273 -409 280 -378 c 1
EndSplineSet
Refer: 305 710 S 1 0 0 1 150 1806 2
LCarets2: 1 0
Ligature2: "Podtablica 'liga' Ligatury zwyk+AUIA-e w +AUIA-aci+AUQA-skie w tablicy 1" D i
EndChar

StartChar: ps
Encoding: 983085 983085 166
Width: 361
VWidth: 3070
Flags: HMW
HStem: -61 124.258 72 163 761.005 156.995 2068 181<294 338>
VStem: -541 157 0 180<110 110 110 227 110 227> 78 151 401 179<1958 1987>
LayerCount: 2
Fore
SplineSet
87 188 m 0x6a
 268 188 318 323 318 444 c 0
 318 581 266 713 87 714 c 0
 86 714 86 714 85 714 c 0
 -77 714 -144 563 -144 448 c 0
 -144 316 -77 188 87 188 c 0x6a
82 871 m 0
 194 871 269 826 339 763 c 1
 411 696 469 585 469 448 c 0
 469 310 403 184 339 133 c 0
 266 75 194 25 82 25 c 0
 -30 25 -103 73 -174 133 c 0
 -245 192 -301 310 -301 448 c 0
 -301 585 -251 694 -174 763 c 0
 -105 825 -30 871 82 871 c 0
183 1149 m 1x95
 263 1227 l 1
 268 1230 l 1
 271 1234 l 1
 331 1305 400 1848 401 1958 c 0
 401 2016 382 2068 294 2068 c 1
 198 2066 188 2005 180 1967 c 1
 180 1958 l 1
 182 1914 183 1641 183 1422 c 0
 183 1349 183 1282 183 1232 c 2
 183 1149 l 1x95
180 900 m 1
 179 230 l 1
 180 110 l 2
 180 77 195 63 215 63 c 0
 254 63 317 110 355 158 c 1
 469 68 l 1
 364 -19 303 -61 180 -61 c 0
 80 -61 0 0 0 92 c 2
 0 227 l 1
 3 1965 l 1
 3 1966 l 1
 7 2037 18 2074 37 2115 c 0
 71 2190 138 2249 294 2249 c 0
 477 2249 580 2113 580 1960 c 0
 580 1851 528 1164 315 1022 c 0
 266 989 225 941 189 907 c 1
 180 900 l 1
EndSplineSet
Validated: 5
LCarets2: 1 0
Ligature2: "Podtablica 'liga' Ligatury zwyk+AUIA-e w +AUIA-aci+AUQA-skie w tablicy 1" p s
EndChar

StartChar: Ps
Encoding: 983086 983086 167
Width: 934
VWidth: 3070
Flags: HMW
HStem: -61 124.258 72 163 761.005 156.995 2068 181<874 918>
VStem: 39 157 580 180<110 110 110 227 110 227> 658 151 981 179<1958 1987>
LayerCount: 2
Fore
SplineSet
667 188 m 0x6a
 848 188 898 323 898 444 c 0
 898 581 846 713 667 714 c 0
 666 714 666 714 665 714 c 0
 503 714 436 563 436 448 c 0
 436 316 503 188 667 188 c 0x6a
662 871 m 0
 774 871 849 826 919 763 c 1
 991 696 1049 585 1049 448 c 0
 1049 310 983 184 919 133 c 0
 846 75 774 25 662 25 c 0
 550 25 477 73 406 133 c 0
 335 192 279 310 279 448 c 0
 279 585 329 694 406 763 c 0
 475 825 550 871 662 871 c 0
763 1149 m 1x95
 843 1227 l 1
 848 1230 l 1
 851 1234 l 1
 911 1305 980 1848 981 1958 c 0
 981 2016 962 2068 874 2068 c 1
 778 2066 768 2005 760 1967 c 1
 760 1958 l 1
 762 1914 763 1641 763 1422 c 0
 763 1349 763 1282 763 1232 c 2
 763 1149 l 1x95
760 900 m 1
 759 230 l 1
 760 110 l 2
 760 77 775 63 795 63 c 0
 834 63 897 110 935 158 c 1
 1049 68 l 1
 944 -19 883 -61 760 -61 c 0
 660 -61 580 0 580 92 c 2
 580 227 l 1
 583 1965 l 1
 583 1966 l 1
 587 2037 598 2074 617 2115 c 0
 651 2190 718 2249 874 2249 c 0
 1057 2249 1160 2113 1160 1960 c 0
 1160 1851 1108 1164 895 1022 c 0
 846 989 805 941 769 907 c 1
 760 900 l 1
EndSplineSet
Refer: 305 710 S 1 0 0 1 102 1800 2
LCarets2: 1 0
Ligature2: "Podtablica 'liga' Ligatury zwyk+AUIA-e w +AUIA-aci+AUQA-skie w tablicy 1" P s
EndChar

StartChar: ksz
Encoding: 983087 983087 168
Width: 733
VWidth: 0
LigCaretCntFixed: 1
Flags: HMW
HStem: -61 125<606.5 636.5 606.5 676.5>
LayerCount: 2
Fore
SplineSet
-175 2250 m 5
 4 2250 l 5
 570 110 l 6
 579 77 596 64 617 64 c 4
 656 64 707 110 732 158 c 5
 870 68 l 5
 788 -19 738 -61 615 -61 c 4
 515 -61 419 1 395 92 c 6
 -175 2250 l 5
EndSplineSet
Validated: 1
Ligature2: "Podtablica 'liga' Ligatury zwyk+AUIA-e w +AUIA-aci+AUQA-skie w tablicy 1" g scaron
Ligature2: "Podtablica 'liga' Ligatury zwyk+AUIA-e w +AUIA-aci+AUQA-skie w tablicy 1" g s z
Ligature2: "Podtablica 'liga' Ligatury zwyk+AUIA-e w +AUIA-aci+AUQA-skie w tablicy 1" k zdotaccent
Ligature2: "Podtablica 'liga' Ligatury zwyk+AUIA-e w +AUIA-aci+AUQA-skie w tablicy 1" k r z
Ligature2: "Podtablica 'liga' Ligatury zwyk+AUIA-e w +AUIA-aci+AUQA-skie w tablicy 1" k scaron
Ligature2: "Podtablica 'liga' Ligatury zwyk+AUIA-e w +AUIA-aci+AUQA-skie w tablicy 1" k s z
LCarets2: 2 288 288
EndChar

StartChar: Ksz
Encoding: 983088 983088 169
Width: 2148
VWidth: 0
Flags: HMW
HStem: -61 125<2020.5 2050.5 2020.5 2090.5>
LayerCount: 2
Fore
SplineSet
1239 2250 m 1
 1418 2250 l 1
 1984 110 l 2
 1993 77 2010 64 2031 64 c 0
 2070 64 2121 110 2146 158 c 1
 2284 68 l 1
 2202 -19 2152 -61 2029 -61 c 0
 1929 -61 1833 1 1809 92 c 2
 1239 2250 l 1
EndSplineSet
Refer: 305 710 S 1 0 0 1 450 1776 2
EndChar

StartChar: psz
Encoding: 983089 983089 170
Width: 722
VWidth: 3070
LigCaretCntFixed: 1
Flags: HMW
HStem: -61 124<596.5 626.5 596.5 666.5> 2068 181<157 200.5 31 201>
VStem: -113 973
LayerCount: 2
Fore
SplineSet
288 1149 m 5
 348 1227 l 5
 352 1230 l 5
 354 1234 l 5
 363 1249 366 1285 366 1333 c 4
 366 1515 316 1871 294 1958 c 4
 279 2016 245 2068 157 2068 c 5
 79 2066 69 2026 69 1991 c 4
 69 1982 70 1974 70 1967 c 5
 73 1958 l 6
 87 1914 160 1641 218 1422 c 4
 238 1349 253 1282 267 1232 c 5
 288 1149 l 5
351 900 m 5
 526 230 l 5
 560 110 l 6
 569 77 586 63 607 63 c 4
 646 63 697 110 722 158 c 5
 860 68 l 5
 778 -19 728 -61 605 -61 c 4
 505 -61 409 0 385 92 c 5
 348 227 l 5
 -107 1965 l 5
 -107 1966 l 5
 -115 2006 -119 2035 -119 2060 c 4
 -119 2080 -117 2097 -113 2115 c 5
 -99 2190 -47 2249 109 2249 c 4
 292 2249 432 2113 472 1960 c 4
 490 1893 545 1610 545 1367 c 4
 545 1214 523 1077 455 1022 c 4
 415 989 386 941 359 907 c 5
 351 900 l 5
EndSplineSet
Validated: 1
Ligature2: "Podtablica 'liga' Ligatury zwyk+AUIA-e w +AUIA-aci+AUQA-skie w tablicy 1" b scaron
Ligature2: "Podtablica 'liga' Ligatury zwyk+AUIA-e w +AUIA-aci+AUQA-skie w tablicy 1" b s z
Ligature2: "Podtablica 'liga' Ligatury zwyk+AUIA-e w +AUIA-aci+AUQA-skie w tablicy 1" p zdotaccent
Ligature2: "Podtablica 'liga' Ligatury zwyk+AUIA-e w +AUIA-aci+AUQA-skie w tablicy 1" p r z
Ligature2: "Podtablica 'liga' Ligatury zwyk+AUIA-e w +AUIA-aci+AUQA-skie w tablicy 1" p scaron
Ligature2: "Podtablica 'liga' Ligatury zwyk+AUIA-e w +AUIA-aci+AUQA-skie w tablicy 1" p s z
LCarets2: 2 288 288
EndChar

StartChar: Psz
Encoding: 983090 983090 171
Width: 1735
VWidth: 3070
Flags: HW
HStem: -61 124<1572.28 1713.56> 2068 181<1087.95 1290.55> 2871 21G<305 496.215 1192.1 1394>
VStem: 897 188<1967 2065.7> 1382 178<1199.7 1922.8>
LayerCount: 2
Fore
SplineSet
1304 1149 m 1
 1363 1227 l 1
 1368 1230 l 1
 1370 1234 l 1
 1378 1249 1382 1284 1382 1332 c 0
 1382 1514 1331 1871 1309 1958 c 0
 1293 2016 1261 2068 1173 2068 c 1
 1095 2066 1085 2025 1085 1990 c 0
 1085 1982 1085 1974 1085 1967 c 1
 1088 1958 l 1
 1101 1914 1175 1641 1232 1422 c 0
 1252 1349 1269 1282 1282 1232 c 2
 1304 1149 l 1
1367 900 m 1
 1542 230 l 1
 1575 110 l 2
 1584 77 1602 63 1623 63 c 0
 1662 63 1712 110 1737 158 c 1
 1875 68 l 1
 1793 -19 1743 -61 1620 -61 c 0
 1520 -61 1424 0 1400 92 c 2
 1364 227 l 1
 909 1965 l 1
 909 1966 l 1
 901 2005 897 2033 897 2058 c 0
 897 2079 900 2096 903 2115 c 0
 918 2190 969 2249 1125 2249 c 0
 1308 2249 1447 2113 1487 1960 c 0
 1505 1893 1560 1610 1560 1368 c 0
 1560 1214 1538 1077 1470 1022 c 0
 1429 989 1401 941 1374 907 c 1
 1367 900 l 1
EndSplineSet
Refer: 305 710 S 1 0 0 1 216 1794 2
EndChar

StartChar: fsz
Encoding: 983091 983091 172
Width: 837
VWidth: 0
LigCaretCntFixed: 1
Flags: HMW
HStem: -31 159<726 778 726 798.5> 1853 21G<378 378> 1853 21G<378 378> 1989 255<60 64.5 -98.5 175.5>
LayerCount: 2
Fore
SplineSet
986 59 m 1xb0
 902 -4 831 -31 766 -31 c 0
 624 -31 510 99 354 291 c 0
 257 410 99 757 10 1094 c 1
 5 1116 l 1
 -45 1314 -115 1660 -115 1917 c 0
 -115 2104 -78 2244 31 2244 c 0
 98 2244 193 2192 321 2067 c 1
 378 1853 l 1
 274 1950 200 1989 151 1989 c 0
 83 1989 58 1914 58 1807 c 0
 58 1629 125 1361 167 1201 c 1
 189 1118 l 1
 281 767 428 473 486 378 c 0
 611 176 699 128 753 128 c 0
 803 128 826 167 826 167 c 1
 986 59 l 1xb0
EndSplineSet
Validated: 1
Ligature2: "Podtablica 'liga' Ligatury zwyk+AUIA-e w +AUIA-aci+AUQA-skie w tablicy 1" w scaron
Ligature2: "Podtablica 'liga' Ligatury zwyk+AUIA-e w +AUIA-aci+AUQA-skie w tablicy 1" w s z
Ligature2: "Podtablica 'liga' Ligatury zwyk+AUIA-e w +AUIA-aci+AUQA-skie w tablicy 1" f zdotaccent
Ligature2: "Podtablica 'liga' Ligatury zwyk+AUIA-e w +AUIA-aci+AUQA-skie w tablicy 1" f r z
Ligature2: "Podtablica 'liga' Ligatury zwyk+AUIA-e w +AUIA-aci+AUQA-skie w tablicy 1" f scaron
Ligature2: "Podtablica 'liga' Ligatury zwyk+AUIA-e w +AUIA-aci+AUQA-skie w tablicy 1" f s z
LCarets2: 2 292 292
EndChar

StartChar: Fsz
Encoding: 983092 983092 173
Width: 1787
VWidth: 0
Flags: HMW
HStem: -31 159<1686 1738 1686 1758.5> 1853 21<1338 1338> 1989 255<1020 1024.5 861.5 1135.5>
LayerCount: 2
Fore
SplineSet
1946 59 m 1
 1862 -4 1791 -31 1726 -31 c 0
 1584 -31 1470 99 1314 291 c 0
 1217 410 1059 757 970 1094 c 1
 965 1116 l 1
 915 1314 845 1660 845 1917 c 0
 845 2104 882 2244 991 2244 c 0
 1058 2244 1153 2192 1281 2067 c 1
 1338 1853 l 1
 1234 1950 1160 1989 1111 1989 c 0
 1043 1989 1018 1914 1018 1807 c 0
 1018 1629 1085 1361 1127 1201 c 1
 1149 1118 l 1
 1241 767 1388 473 1446 378 c 0
 1571 176 1659 128 1713 128 c 0
 1763 128 1786 167 1786 167 c 1
 1946 59 l 1
EndSplineSet
Refer: 305 710 S 1 0 0 1 174 1788 2
EndChar

StartChar: hsz
Encoding: 983093 983093 174
Width: 1280
VWidth: 0
Flags: HMW
HStem: -61 125<1156.5 1186.5 1156.5 1227> 1896 21G<181 181> 1896 21G<181 181> 2080 170<332 339 332 332>
LayerCount: 2
Fore
SplineSet
1120 110 m 2xd0
 1129 77 1146 64 1167 64 c 0
 1206 64 1257 110 1282 158 c 1
 1420 68 l 1
 1338 -19 1289 -61 1165 -61 c 0
 1065 -61 970 1 946 92 c 2
 457 1899 l 1
 457 1899 455 1913 449 1934 c 0
 435 1987 402 2080 339 2080 c 2
 332 2080 l 1
 210 2068 181 1896 181 1896 c 1
 -2 2000 l 1
 -2 2000 66 2250 297 2250 c 0
 536 2250 610 2003 610 2003 c 1
 1120 110 l 2xd0
EndSplineSet
Validated: 1
Ligature2: "Podtablica 'liga' Ligatury zwyk+AUIA-e w +AUIA-aci+AUQA-skie w tablicy 1" c h zdotaccent
Ligature2: "Podtablica 'liga' Ligatury zwyk+AUIA-e w +AUIA-aci+AUQA-skie w tablicy 1" c h r z
Ligature2: "Podtablica 'liga' Ligatury zwyk+AUIA-e w +AUIA-aci+AUQA-skie w tablicy 1" c h scaron
Ligature2: "Podtablica 'liga' Ligatury zwyk+AUIA-e w +AUIA-aci+AUQA-skie w tablicy 1" c h s z
Ligature2: "Podtablica 'liga' Ligatury zwyk+AUIA-e w +AUIA-aci+AUQA-skie w tablicy 1" h zdotaccent
Ligature2: "Podtablica 'liga' Ligatury zwyk+AUIA-e w +AUIA-aci+AUQA-skie w tablicy 1" h r z
Ligature2: "Podtablica 'liga' Ligatury zwyk+AUIA-e w +AUIA-aci+AUQA-skie w tablicy 1" h scaron
Ligature2: "Podtablica 'liga' Ligatury zwyk+AUIA-e w +AUIA-aci+AUQA-skie w tablicy 1" h s z
EndChar

StartChar: Hsz
Encoding: 983094 983094 175
Width: 1985
VWidth: 0
Flags: HMW
HStem: -61 125<1856.5 1886.5 1856.5 1927> 1896 21<881 881> 2080 170<1032 1039 1032 1032>
LayerCount: 2
Fore
SplineSet
1820 110 m 2
 1829 77 1846 64 1867 64 c 0
 1906 64 1957 110 1982 158 c 1
 2120 68 l 1
 2038 -19 1989 -61 1865 -61 c 0
 1765 -61 1670 1 1646 92 c 2
 1157 1899 l 1
 1157 1899 1155 1913 1149 1934 c 0
 1135 1987 1102 2080 1039 2080 c 2
 1032 2080 l 1
 910 2068 881 1896 881 1896 c 1
 698 2000 l 1
 698 2000 766 2250 997 2250 c 0
 1236 2250 1310 2003 1310 2003 c 1
 1820 110 l 2
EndSplineSet
Refer: 305 710 S 1 0 0 1 186 1794 2
EndChar

StartChar: tsz
Encoding: 983095 983095 176
Width: 501
VWidth: 3070
Flags: HMW
HStem: -757 181<411.5 454 410 581>
VStem: -177 181<2248 2250>
LayerCount: 2
Fore
SplineSet
-177 2250 m 5
 4 2248 l 5
 719 -473 l 5
 719 -474 l 5
 727 -513 731 -541 731 -566 c 4
 731 -586 728 -604 724 -623 c 5
 710 -698 659 -757 503 -757 c 4
 320 -757 180 -621 140 -468 c 4
 129 -426 117 -355 117 -275 c 4
 117 -147 147 5 255 93 c 4
 295 126 324 174 351 208 c 5
 359 215 l 5
 -177 2250 l 5
421 -34 m 5
 361 -112 l 5
 357 -115 l 5
 355 -119 l 6
 329 -172 308 -270 308 -362 c 4
 308 -399 311 -435 319 -466 c 4
 334 -524 366 -576 454 -576 c 5
 533 -574 543 -533 543 -497 c 4
 543 -489 542 -482 542 -475 c 5
 540 -466 l 6
 537 -455 536 -453 535 -453 c 6
 534 -454 l 6
 533 -454 529 -441 493 -307 c 4
 473 -234 456 -167 442 -117 c 5
 421 -34 l 5
EndSplineSet
Validated: 1
LCarets2: 2 0 0
Ligature2: "Podtablica 'liga' Ligatury zwyk+AUIA-e w +AUIA-aci+AUQA-skie w tablicy 1" d scaron
Ligature2: "Podtablica 'liga' Ligatury zwyk+AUIA-e w +AUIA-aci+AUQA-skie w tablicy 1" d s z
Ligature2: "Podtablica 'liga' Ligatury zwyk+AUIA-e w +AUIA-aci+AUQA-skie w tablicy 1" t zdotaccent
Ligature2: "Podtablica 'liga' Ligatury zwyk+AUIA-e w +AUIA-aci+AUQA-skie w tablicy 1" t r z
Ligature2: "Podtablica 'liga' Ligatury zwyk+AUIA-e w +AUIA-aci+AUQA-skie w tablicy 1" t scaron
Ligature2: "Podtablica 'liga' Ligatury zwyk+AUIA-e w +AUIA-aci+AUQA-skie w tablicy 1" t s z
EndChar

StartChar: Tsz
Encoding: 983096 983096 177
Width: 1563
VWidth: 3070
Flags: HMW
HStem: -757 181<1511.5 1554 1510 1681>
VStem: 923 181<2248 2250>
LayerCount: 2
Fore
SplineSet
923 2250 m 1
 1104 2248 l 1
 1819 -473 l 1
 1819 -474 l 1
 1827 -513 1831 -541 1831 -566 c 0
 1831 -586 1828 -604 1824 -623 c 1
 1810 -698 1759 -757 1603 -757 c 0
 1420 -757 1280 -621 1240 -468 c 0
 1229 -426 1217 -355 1217 -275 c 0
 1217 -147 1247 5 1355 93 c 0
 1395 126 1424 174 1451 208 c 1
 1459 215 l 1
 923 2250 l 1
1521 -34 m 1
 1461 -112 l 1
 1457 -115 l 1
 1455 -119 l 2
 1429 -172 1408 -270 1408 -362 c 0
 1408 -399 1411 -435 1419 -466 c 0
 1434 -524 1466 -576 1554 -576 c 1
 1633 -574 1643 -533 1643 -497 c 0
 1643 -489 1642 -482 1642 -475 c 1
 1640 -466 l 2
 1637 -455 1636 -453 1635 -453 c 2
 1634 -454 l 2
 1633 -454 1629 -441 1593 -307 c 0
 1573 -234 1556 -167 1542 -117 c 1
 1521 -34 l 1
EndSplineSet
Refer: 305 710 S 1 0 0 1 186 1800 2
EndChar

StartChar: kszi
Encoding: 983097 983097 178
Width: 719
VWidth: 0
Flags: W
HStem: 2231 20G<-170.724 4>
LayerCount: 2
Fore
SplineSet
-176 2251 m 5
 4 2250 l 5
 596 0 l 5
 734 157 l 5
 872 68 l 5
 536 -448 l 5
 -176 2251 l 5
EndSplineSet
Validated: 1
LCarets2: 2 0 0
Ligature2: "Podtablica 'liga' Ligatury zwyk+AUIA-e w +AUIA-aci+AUQA-skie w tablicy 1" k s i
EndChar

StartChar: Kszi
Encoding: 983098 983098 179
Width: 1699
VWidth: 0
Flags: HW
HStem: 2500 21G<303 494.316 1190.2 1392> 3037 20G<601.869 974>
LayerCount: 2
Fore
SplineSet
794 2252 m 1
 974 2251 l 1
 1566 1 l 1
 1703 158 l 1
 1841 69 l 1
 1505 -447 l 1
 794 2252 l 1
EndSplineSet
Refer: 305 710 S 1 0 0 1 156 1770 2
LCarets2: 2 0 0
Ligature2: "Podtablica 'liga' Ligatury zwyk+AUIA-e w +AUIA-aci+AUQA-skie w tablicy 1" K s i
EndChar

StartChar: pszi
Encoding: 983099 983099 180
Width: 748
VWidth: 3070
Flags: HMW
HStem: 2068 181<186 229.5 60 230>
VStem: -83 974
LayerCount: 2
Fore
SplineSet
317 1149 m 1
 377 1227 l 1
 381 1230 l 1
 383 1234 l 1
 392 1249 395 1285 395 1333 c 0
 395 1515 345 1871 323 1958 c 0
 308 2016 274 2068 186 2068 c 1
 108 2066 98 2026 98 1991 c 0
 98 1982 99 1974 99 1967 c 1
 102 1958 l 2
 116 1914 188 1641 246 1422 c 0
 266 1349 282 1282 296 1232 c 1
 317 1149 l 1
568 186 m 1
 616 0 l 1
 754 157 l 1
 891 68 l 1
 556 -448 l 1
 388 188 l 1
 -78 1965 l 1
 -78 1966 l 1
 -86 2005 -90 2033 -90 2058 c 0
 -90 2078 -87 2096 -83 2115 c 1
 -69 2190 -18 2249 138 2249 c 0
 321 2249 460 2113 500 1960 c 0
 518 1893 574 1608 574 1365 c 0
 574 1213 552 1077 484 1022 c 0
 444 989 415 941 388 907 c 1
 380 900 l 1
 568 187 l 1
 568 186 l 1
EndSplineSet
Validated: 1
LCarets2: 2 0 0
Ligature2: "Podtablica 'liga' Ligatury zwyk+AUIA-e w +AUIA-aci+AUQA-skie w tablicy 1" p s i
EndChar

StartChar: Pszi
Encoding: 983100 983100 181
Width: 1526
VWidth: 3070
Flags: HW
HStem: 2071 181<881.955 1084.55> 2500 21G<303 494.367 1190.25 1392> 3037 20G<601.869 811.616>
VStem: 691 188<1970 2068.7> 1176 178<1202.7 1925.8>
LayerCount: 2
Fore
SplineSet
1098 1152 m 1
 1157 1230 l 1
 1162 1233 l 1
 1164 1237 l 1
 1172 1252 1176 1287 1176 1335 c 0
 1176 1517 1125 1874 1103 1961 c 0
 1087 2019 1055 2071 967 2071 c 1
 889 2069 879 2028 879 1993 c 0
 879 1985 879 1977 879 1970 c 1
 882 1961 l 1
 895 1918 969 1644 1026 1425 c 0
 1046 1352 1063 1285 1076 1235 c 2
 1098 1152 l 1
1349 189 m 1
 1397 3 l 1
 1534 160 l 1
 1672 71 l 1
 1336 -445 l 1
 1168 191 l 1
 703 1968 l 1
 703 1969 l 1
 695 2008 691 2036 691 2061 c 0
 691 2082 694 2099 697 2118 c 0
 712 2193 763 2252 919 2252 c 0
 1102 2252 1241 2116 1281 1963 c 0
 1299 1896 1354 1613 1354 1371 c 0
 1354 1217 1332 1080 1264 1025 c 0
 1223 992 1195 944 1168 910 c 1
 1161 903 l 1
 1349 190 l 1
 1349 189 l 1
EndSplineSet
Refer: 305 710 S 1 0 0 1 186 1800 2
LCarets2: 2 0 0
Ligature2: "Podtablica 'liga' Ligatury zwyk+AUIA-e w +AUIA-aci+AUQA-skie w tablicy 1" P s i
EndChar

StartChar: fsi
Encoding: 983101 983101 182
Width: 862
VWidth: 0
Flags: HMW
HStem: 1853 21G<414 414> 1853 21G<414 414> 1989 255<-58.5 211.5>
LayerCount: 2
Fore
SplineSet
74 1094 m 0x60
 69 1109 66 1125 61 1142 c 0
 4 1358 -72 1704 -72 1951 c 0
 -72 2121 -36 2244 67 2244 c 0
 134 2244 228 2192 356 2067 c 1
 414 1853 l 1
 310 1950 236 1989 187 1989 c 0
 125 1989 102 1927 102 1836 c 0
 102 1706 148 1514 190 1355 c 0
 205 1298 219 1245 231 1201 c 2
 252 1118 l 1
 304 919 481 473 522 378 c 0
 535 348 565 275 579 246 c 1
 705 -70 l 1
 864 157 l 1
 1000 68 l 1
 665 -448 l 1
 389 291 l 1
 339 410 124 911 74 1094 c 0x60
EndSplineSet
Validated: 1
LCarets2: 2 0 0
Ligature2: "Podtablica 'liga' Ligatury zwyk+AUIA-e w +AUIA-aci+AUQA-skie w tablicy 1" w sacute
Ligature2: "Podtablica 'liga' Ligatury zwyk+AUIA-e w +AUIA-aci+AUQA-skie w tablicy 1" w s i
EndChar

StartChar: gl
Encoding: 983103 983103 184
Width: 101
VWidth: 0
Flags: HMW
HStem: 31 366<-91.5811 -53.8711 -91.5811 -53.5991> 1230 20<0 180 180 180>
VStem: -232.881 413.727 0 180<252 1250 252 1250 252 1250> 1.11882 179.802
LayerCount: 2
Fore
SplineSet
0 1250 m 1x50
 180 1250 l 1
 180 252 l 1
 0 250 l 1
 0 1250 l 1x50
1 440 m 1x88
 180 440 l 1
 181 246 l 1x80
 298 112 356 -79 356 -237 c 0
 356 -398 297 -525 181 -525 c 0
 1 -525 1 -240 1 -149 c 2
 1 48 l 1x88
 -18 38 -40 31 -67 31 c 0
 -116 31 -147 52 -178 78 c 0
 -209 104 -233 155 -233 214 c 0x80
 -233 273 -211 320 -178 350 c 0
 -148 377 -116 397 -67 397 c 0
 -40 397 -18 391 1 381 c 1
 1 440 l 1x88
181 143 m 1x88
 181 -131 l 2
 181 -164 184 -345 205 -345 c 0
 224 -345 243 -266 243 -161 c 0
 243 -68 227 47 181 143 c 1x88
EndSplineSet
Validated: 5
LCarets2: 1 0
Ligature2: "Podtablica 'liga' Ligatury zwyk+AUIA-e w +AUIA-aci+AUQA-skie w tablicy 1" g l
EndChar

StartChar: Gl
Encoding: 983104 983104 185
Width: 889
VWidth: 0
Flags: HMW
HStem: 31 366<698.419 736.129 698.419 736.401> 1230 20<790 970 970 970>
VStem: 557.119 413.727 790 180<252 1250 252 1250 252 1250> 791.119 179.802
LayerCount: 2
Fore
SplineSet
790 1250 m 1x50
 970 1250 l 1
 970 252 l 1
 790 250 l 1
 790 1250 l 1x50
791 440 m 1x80
 970 440 l 1
 971 246 l 1
 1088 112 1146 -79 1146 -237 c 0
 1146 -398 1087 -525 971 -525 c 0
 791 -525 791 -240 791 -149 c 2
 791 48 l 1
 772 38 750 31 723 31 c 0
 674 31 643 52 612 78 c 0
 581 104 557 155 557 214 c 0
 557 273 579 320 612 350 c 0
 642 377 674 397 723 397 c 0
 750 397 772 391 791 381 c 1
 791 440 l 1x80
971 143 m 1
 971 -131 l 2
 971 -164 974 -345 995 -345 c 0
 1014 -345 1033 -266 1033 -161 c 0
 1033 -68 1017 47 971 143 c 1
EndSplineSet
Refer: 305 710 S 1 0 0 1 192 1788 2
LCarets2: 1 0
Ligature2: "Podtablica 'liga' Ligatury zwyk+AUIA-e w +AUIA-aci+AUQA-skie w tablicy 1" G l
EndChar

StartChar: gly
Encoding: 983105 983105 186
Width: 86
VWidth: 0
Flags: HMW
HStem: -142.302 364.302 1230 20<0 180 180 180>
VStem: 0 180<252 443 252 1250 443 443>
LayerCount: 2
Fore
SplineSet
0 1250 m 1
 180 1250 l 1
 180 252 l 1
 0 250 l 1
 0 1250 l 1
0 443 m 1
 179 443 l 1
 180 113 l 2
 180 80 164 6 160 -14 c 0
 142 -105 41 -142 -27 -142 c 0
 -32 -142 -37 -142 -42 -142 c 1
 -50 -143 -59 -144 -69 -144 c 0
 -118 -144 -149 -123 -180 -97 c 0
 -211 -71 -235 -20 -235 39 c 0
 -235 98 -213 145 -180 175 c 0
 -150 202 -118 222 -69 222 c 0
 -42 222 -20 184 0 145 c 1
 0 443 l 1
EndSplineSet
Validated: 5
LCarets2: 1 0
Ligature2: "Podtablica 'liga' Ligatury zwyk+AUIA-e w +AUIA-aci+AUQA-skie w tablicy 1" g lslash
EndChar

StartChar: Gly
Encoding: 983106 983106 187
Width: 906
VWidth: 0
Flags: HMW
HStem: -142.302 364.302 1230 20<810 990 990 990>
VStem: 810 180<252 443 252 1250 443 443>
LayerCount: 2
Fore
SplineSet
810 1250 m 1
 990 1250 l 1
 990 252 l 1
 810 250 l 1
 810 1250 l 1
810 443 m 1
 989 443 l 1
 990 113 l 2
 990 80 974 6 970 -14 c 0
 952 -105 851 -142 783 -142 c 0
 778 -142 773 -142 768 -142 c 1
 760 -143 751 -144 741 -144 c 0
 692 -144 661 -123 630 -97 c 0
 599 -71 575 -20 575 39 c 0
 575 98 597 145 630 175 c 0
 660 202 692 222 741 222 c 0
 768 222 790 184 810 145 c 1
 810 443 l 1
EndSplineSet
Refer: 305 710 S 1 0 0 1 222 1800 2
LCarets2: 1 0
Ligature2: "Podtablica 'liga' Ligatury zwyk+AUIA-e w +AUIA-aci+AUQA-skie w tablicy 1" G lslash
EndChar

StartChar: bl
Encoding: 983109 983109 190
Width: 101
VWidth: 0
Flags: HMW
HStem: 31 366<-92.7002 -54.9902 -92.7002 -54.7183> 1230 20<0 180 180 180> 1566 181<294 338>
VStem: -234 413.727 0 179.802 0 180<-131 -131 -131 48.3301 -131 48.3301 252 1250 380.653 440 440 440 499 499> 3 180.375<1271.91 1464 1271.91 1464> 401 179<1456 1485>
LayerCount: 2
Fore
SplineSet
0 1250 m 1x44
 180 1250 l 1
 180 252 l 1
 0 250 l 1
 0 1250 l 1x44
0 440 m 1x88
 179 440 l 1
 180 246 l 1x90
 297 112 355 -79 355 -237 c 0
 355 -398 296 -525 179 -525 c 0
 -1 -525 0 -240 0 -149 c 2
 0 48 l 1x88
 -19 38 -41 31 -68 31 c 0
 -117 31 -148 52 -179 78 c 0
 -210 104 -234 155 -234 214 c 0x90
 -234 273 -212 320 -179 350 c 0
 -149 377 -117 397 -68 397 c 0
 -42 397 -19 391 0 381 c 1
 0 440 l 1x88
180 143 m 1x88
 180 -131 l 2
 180 -164 183 -345 204 -345 c 0
 222 -345 242 -266 242 -161 c 0
 242 -68 226 47 180 143 c 1x88
183 1083 m 1x23
 263 1161 l 1
 268 1164 l 1
 271 1168 l 1
 331 1239 400 1346 401 1456 c 0
 401 1514 382 1566 294 1566 c 1
 198 1564 187 1495 180 1456 c 1
 182 1412 183 1384 183 1288 c 0
 183 1256 183 1216 183 1166 c 2
 183 1083 l 1x23
179 499 m 1
 0 499 l 1
 3 1463 l 1
 3 1464 l 1
 7 1535 18 1572 37 1613 c 0
 71 1688 138 1747 294 1747 c 0
 477 1747 580 1611 580 1458 c 0
 580 1349 528 1098 315 956 c 0
 266 923 225 875 189 841 c 1
 180 834 l 1
 179 499 l 1
EndSplineSet
Validated: 37
LCarets2: 1 0
Ligature2: "Podtablica 'liga' Ligatury zwyk+AUIA-e w +AUIA-aci+AUQA-skie w tablicy 1" b l
EndChar

StartChar: Bl
Encoding: 983110 983110 191
Width: 730
VWidth: 0
Flags: HMW
HStem: 31 366<507.3 545.01 507.3 545.282> 1230 20<600 780 780 780> 1566 181<894 938>
VStem: 366 413.727 600 179.802 600 180<-131 -131 -131 48.3301 -131 48.3301 252 1250 380.653 440 440 440 499 499> 603 180.375<1271.91 1464 1271.91 1464> 1001 179<1456 1485>
LayerCount: 2
Fore
SplineSet
600 1250 m 1x44
 780 1250 l 1
 780 252 l 1
 600 250 l 1
 600 1250 l 1x44
600 440 m 1x88
 779 440 l 1
 780 246 l 1x90
 897 112 955 -79 955 -237 c 0
 955 -398 896 -525 779 -525 c 0
 599 -525 600 -240 600 -149 c 2
 600 48 l 1x88
 581 38 559 31 532 31 c 0
 483 31 452 52 421 78 c 0
 390 104 366 155 366 214 c 0x90
 366 273 388 320 421 350 c 0
 451 377 483 397 532 397 c 0
 558 397 581 391 600 381 c 1
 600 440 l 1x88
780 143 m 1x88
 780 -131 l 2
 780 -164 783 -345 804 -345 c 0
 822 -345 842 -266 842 -161 c 0
 842 -68 826 47 780 143 c 1x88
783 1083 m 1x23
 863 1161 l 1
 868 1164 l 1
 871 1168 l 1
 931 1239 1000 1346 1001 1456 c 0
 1001 1514 982 1566 894 1566 c 1
 798 1564 787 1495 780 1456 c 1
 782 1412 783 1384 783 1288 c 0
 783 1256 783 1216 783 1166 c 2
 783 1083 l 1x23
779 499 m 1
 600 499 l 1
 603 1463 l 1
 603 1464 l 1
 607 1535 618 1572 637 1613 c 0
 671 1688 738 1747 894 1747 c 0
 1077 1747 1180 1611 1180 1458 c 0
 1180 1349 1128 1098 915 956 c 0
 866 923 825 875 789 841 c 1
 780 834 l 1
 779 499 l 1
EndSplineSet
Refer: 305 710 S 1 0 0 1 192 1794 2
LCarets2: 1 0
Ligature2: "Podtablica 'liga' Ligatury zwyk+AUIA-e w +AUIA-aci+AUQA-skie w tablicy 1" B l
EndChar

StartChar: Hly
Encoding: 983118 983118 199
Width: 1060
VWidth: 0
Flags: HMW
HStem: -143.752 364.302 1230 20<943.234 1123.23 1123.23 1123.23> 1825 20<943.234 1123.23 1123.23 1123.23> 1900 21<664 664> 2084.31 169.69
VStem: 942.339 179.661 943 180<111.55 441.55> 943.234 180
LayerCount: 2
Fore
SplineSet
944 1845 m 1x18
 944 1845 l 1
 941 1903 l 1
 941 1903 942 1917 942 1938 c 0
 942 1990 933 2084 869 2084 c 0
 867 2084 865 2084 863 2084 c 0
 739 2072 664 1900 664 1900 c 1
 509 2004 l 1
 509 2004 643 2254 873 2254 c 0
 1113 2254 1122 2007 1122 2007 c 1
 1123 1844 l 1
 944 1845 l 1x18
943 1845 m 1x20
 1123 1845 l 1
 1123 847 l 1
 943 845 l 1
 943 1845 l 1x20
943 442 m 1x02
 1122 442 l 1
 1123 112 l 2
 1123 78 1107 4 1103 -16 c 0
 1085 -106 984 -144 916 -144 c 0
 911 -144 906 -144 901 -143 c 1
 893 -145 884 -145 874 -145 c 0
 825 -145 794 -124 763 -99 c 0
 732 -73 708 -22 708 38 c 0
 708 97 730 144 763 174 c 0
 793 201 825 221 874 221 c 0
 901 221 923 182 943 144 c 1
 943 442 l 1x02
943 1250 m 1x40
 1123 1250 l 1
 1123 252 l 1
 943 250 l 1
 943 1250 l 1x40
EndSplineSet
Refer: 305 710 S 1 0 0 1 174 1800 2
LCarets2: 1 0
Ligature2: "Podtablica 'liga' Ligatury zwyk+AUIA-e w +AUIA-aci+AUQA-skie w tablicy 1" H lslash
EndChar

StartChar: pii
Encoding: 983061 983061 200
Width: 361
VWidth: 3070
Flags: W
HStem: 2068 181<190.953 395.731>
VStem: 0 180<0 900 1149 2060.17> 401 179<1458.35 2059.77>
LayerCount: 2
Fore
SplineSet
183 1149 m 1
 263 1227 l 1
 268 1230 l 1
 271 1234 l 1
 331 1305 400 1848 401 1958 c 0
 401 2016 382 2068 294 2068 c 1
 198 2066 188 2005 180 1967 c 1
 180 1958 l 1
 182 1914 183 1641 183 1422 c 0
 183 1349 183 1282 183 1232 c 2
 183 1149 l 1
180 186 m 1
 179 0 l 1
 358 157 l 1
 472 68 l 1
 0 -448 l 1
 0 188 l 1
 3 1965 l 1
 3 1966 l 1
 7 2037 18 2074 37 2115 c 0
 71 2190 138 2249 294 2249 c 0
 477 2249 580 2113 580 1960 c 0
 580 1851 528 1164 315 1022 c 0
 266 989 225 941 189 907 c 1
 180 900 l 1
 180 187 l 1
 180 186 l 1
EndSplineSet
Validated: 5
Ligature2: "Podtablica 'liga' Ligatury zwyk+AUIA-e w +AUIA-aci+AUQA-skie w tablicy 1" p j
Ligature2: "Podtablica 'liga' Ligatury zwyk+AUIA-e w +AUIA-aci+AUQA-skie w tablicy 1" p i
LCarets2: 1 0
EndChar

StartChar: Pii
Encoding: 983062 983062 201
Width: 925
VWidth: 3070
Flags: HW
HStem: 2071 181<744.953 949.731> 2500 21G<299 495.532 1191.42 1388> 3037 20G<738.627 948.373>
VStem: 554 180<3 903 1152 2063.17> 955 179<1461.35 2062.77>
LayerCount: 2
Fore
SplineSet
737 1152 m 1
 817 1230 l 1
 822 1233 l 1
 825 1237 l 1
 885 1308 954 1851 955 1961 c 0
 955 2019 936 2071 848 2071 c 1
 752 2069 742 2008 734 1970 c 1
 734 1961 l 1
 736 1918 737 1644 737 1425 c 0
 737 1352 737 1285 737 1235 c 2
 737 1152 l 1
734 189 m 1
 733 3 l 1
 912 160 l 1
 1026 71 l 1
 554 -445 l 1
 554 191 l 1
 557 1968 l 1
 557 1969 l 1
 561 2040 572 2077 591 2118 c 0
 625 2193 692 2252 848 2252 c 0
 1031 2252 1134 2116 1134 1963 c 0
 1134 1854 1082 1167 869 1025 c 0
 820 992 779 944 743 910 c 1
 734 903 l 1
 734 190 l 1
 734 189 l 1
EndSplineSet
Refer: 305 710 S 1 0 0 1 96 1794 2
Ligature2: "Podtablica 'liga' Ligatury zwyk+AUIA-e w +AUIA-aci+AUQA-skie w tablicy 1" P j
Ligature2: "Podtablica 'liga' Ligatury zwyk+AUIA-e w +AUIA-aci+AUQA-skie w tablicy 1" P i
LCarets2: 1 0
EndChar

StartChar: brzuchPS
Encoding: 983209 983209 205
Width: 396
VWidth: 3070
Flags: W
HStem: 2248 181<264.066 544.539>
VStem: 3 177<752 931.666 1149 2156.45> 602 195<1394.74 2190.2>
LayerCount: 2
Fore
SplineSet
180 750 m 1
 0 752 l 1
 3 1965 l 1
 3 1966 l 1
 7 2067 17 2174 67 2245 c 0
 117 2316 168 2429 384 2429 c 0
 627 2429 752 2210 780 2060 c 0
 786 2026 797 1930 797 1808 c 0
 797 1541 747 1152 495 1022 c 0
 442 995 216 934 180 900 c 1
 180 750 l 1
183 1149 m 1
 428 1235 l 1
 572 1342 602 1627 602 1836 c 0
 602 1937 595 2020 591 2058 c 0
 582 2143 542 2248 394 2248 c 1
 238 2246 188 2045 180 1967 c 1
 180 1958 l 1
 182 1914 183 1368 183 1149 c 1
EndSplineSet
Validated: 1
EndChar

StartChar: zd
Encoding: 983133 983133 219
Width: 111
VWidth: 0
Flags: W
HStem: -1 21G<-25 212.5> 1436 154<226.381 404.932>
VStem: -17 204<1031.98 1405.36> 126 182<138.57 735.983> 409 154<1241.41 1430.84>
LayerCount: 2
Fore
SplineSet
156 860 m 1xe8
 140 948 122 977 96 1065 c 1
 94 1063 94 1062 94 1061 c 0
 94 1060 94 1060 95 1060 c 0
 117 1060 313 1167 372 1240 c 0
 397 1270 409 1307 409 1340 c 0
 409 1392 381 1436 330 1436 c 0
 326 1436 323 1435 319 1435 c 0
 212 1423 187 1299 187 1186 c 0xe8
 187 1093 204 1006 204 992 c 0
 204 815 308 630 308 433 c 0
 308 316 271 125 154 -1 c 1
 -25 0 l 1
 90 123 126 314 126 431 c 0xd8
 126 626 14 813 -2 989 c 0
 -12 1099 -17 1182 -17 1254 c 0
 -17 1347 27 1421 118 1510 c 0
 168 1559 245 1590 321 1590 c 0
 443 1590 563 1512 563 1307 c 0
 563 1305 563 1302 562 1300 c 0
 559 1074 362 986 156 860 c 1xe8
EndSplineSet
Validated: 5
EndChar

StartChar: ml
Encoding: 983137 983137 223
Width: 101
VWidth: 0
Flags: W
HStem: 31 366<-92.7002 -54.9902 -92.7002 -54.7183> 893 21G<-276 -276> 1077.31 169.69
VStem: -234 413.727 0 179.802 0 180<252 910> 2.339 179.661
LayerCount: 2
Fore
SplineSet
0 910 m 1xe4
 180 910 l 1
 180 252 l 1
 0 250 l 1
 0 910 l 1xe4
EndSplineSet
Refer: 125 983213 S 1 0 0 1 0 0 2
Refer: 139 983054 S 1 0 0 1 -410 0 2
Validated: 5
EndChar

StartChar: mly
Encoding: 983139 983139 225
Width: 86
VWidth: 0
Flags: HW
HStem: -142.302 364.302 893 21G<-276 -276> 1077.31 169.69
VStem: 0 180<113 443 252 950> 2.339 179.661
LayerCount: 2
Fore
SplineSet
0 950 m 1xf0
 180 950 l 1
 180 252 l 1
 0 250 l 1
 0 950 l 1xf0
EndSplineSet
Refer: 124 983212 S 1 0 0 1 0 0 2
Refer: 139 983054 S 1 0 0 1 -410 0 2
EndChar

StartChar: po
Encoding: 983143 983143 229
Width: 766
VWidth: 0
Flags: W
HStem: 2068 181<190.953 395.731>
VStem: 0 180<-418 907 1149 2060.17> 401 179<1458.35 2059.77>
LayerCount: 2
Fore
SplineSet
0 1250 m 1
 180 1250 l 1
 180 -418 l 1
 0 -420 l 1
 0 1250 l 1
180 750 m 1
 0 752 l 1
 3 1965 l 1
 3 1966 l 1
 7 2037 18 2074 37 2115 c 0
 71 2190 138 2249 294 2249 c 0
 477 2249 580 2113 580 1960 c 0
 580 1851 528 1164 315 1022 c 0
 266 989 225 941 189 907 c 1
 180 900 l 1
 180 750 l 1
183 1149 m 1
 263 1227 l 1
 268 1230 l 1
 271 1234 l 1
 331 1305 400 1848 401 1958 c 0
 401 2016 382 2068 294 2068 c 1
 198 2066 188 2005 180 1967 c 1
 180 1958 l 1
 182 1914 183 1641 183 1422 c 0
 183 1349 183 1282 183 1232 c 2
 183 1149 l 1
EndSplineSet
Validated: 5
EndChar

StartChar: psze
Encoding: 983147 983147 233
Width: 1724
VWidth: 0
Flags: W
HStem: 904 180<564.199 1802 1804 1872> 1306 178<561.244 1166.05>
VStem: 376 180<1095.41 1300.34>
LayerCount: 2
Fore
SplineSet
1374 904 m 1
 1374 1084 l 1
 1872 1084 l 1
 1874 904 l 1
 1374 904 l 1
1804 1084 m 1
 1802 904 l 1
 660 908 l 1
 658 908 l 1
 588 912 550 922 510 942 c 0
 434 976 376 1042 376 1198 c 0
 376 1382 512 1484 664 1484 c 0
 774 1484 1460 1432 1602 1220 c 0
 1636 1170 1684 1130 1718 1094 c 1
 1724 1084 l 1
 1804 1084 l 1
1476 1088 m 1
 1398 1168 l 1
 1394 1172 l 1
 1390 1176 l 1
 1320 1236 776 1304 666 1306 c 0
 608 1306 556 1286 556 1198 c 1
 558 1102 620 1092 658 1084 c 1
 666 1084 l 1
 710 1087 984 1088 1202 1088 c 0
 1275 1088 1342 1088 1392 1088 c 2
 1476 1088 l 1
EndSplineSet
Validated: 5
EndChar

StartChar: pszy
Encoding: 983149 983149 235
Width: 1663
VWidth: 0
Flags: W
HStem: 3 191<463.413 670.771> 1960 20G<1653.45 1700.45>
VStem: 276 178<210.39 428.883>
LayerCount: 2
Fore
SplineSet
1176 775 m 1
 1021 865 l 1
 1665 1980 l 1
 1821 1892 l 1
 1176 775 l 1
1271 1298 m 1
 1425 1206 l 1
 816 157 l 1
 816 156 l 1
 777 97 749 70 712 44 c 0
 678 20 638 3 590 3 c 0
 543 3 488 18 422 57 c 0
 322 115 276 204 276 296 c 0
 276 348 291 401 319 450 c 0
 374 544 762 1113 1018 1130 c 0
 1077 1134 1136 1155 1184 1166 c 1
 1196 1168 l 1
 1271 1298 l 1
1068 954 m 1
 960 926 l 1
 954 926 l 1
 950 924 l 1
 862 893 531 457 475 362 c 0
 463 340 454 318 454 296 c 0
 454 267 469 238 513 213 c 1
 538 199 559 194 577 194 c 0
 619 194 644 224 662 244 c 1
 667 252 l 1
 686 290 822 528 932 717 c 0
 968 781 1002 838 1027 882 c 2
 1068 954 l 1
EndSplineSet
Validated: 5
EndChar

StartChar: spsze
Encoding: 983151 983151 237
Width: 1816
VWidth: 3070
Flags: W
HStem: 890 180<563.035 1570 1788.33 1968> 1492 194<529.498 1325.1>
VStem: 290 182<1154 1434.08>
LayerCount: 2
Fore
SplineSet
1970 1070 m 1
 1968 890 l 1
 754 892 l 1
 652 896 546 906 474 956 c 0
 404 1006 290 1058 290 1274 c 0
 290 1516 509 1642 660 1670 c 0
 694 1676 790 1686 912 1686 c 0
 1179 1686 1568 1636 1698 1384 c 0
 1725 1332 1786 1106 1820 1070 c 1
 1970 1070 l 1
1570 1072 m 1
 1484 1318 l 1
 1378 1462 1093 1492 883 1492 c 0
 783 1492 699 1485 662 1480 c 0
 577 1471 472 1432 472 1284 c 1
 474 1128 674 1078 752 1070 c 1
 762 1070 l 1
 805 1072 1352 1072 1570 1072 c 1
EndSplineSet
Validated: 5
EndChar

StartChar: spszy
Encoding: 983153 983153 239
Width: 1780
VWidth: 3070
Flags: W
HStem: 1 197<487.02 749.613> 1970 20G<1771.45 1816.7>
VStem: 245 168<247.228 567.986>
LayerCount: 2
Fore
SplineSet
1783 1990 m 1
 1938 1898 l 1
 994 269 l 1
 994 268 l 1
 940 183 878 95 799 59 c 0
 751 36 695 1 616 1 c 0
 565 1 505 16 432 58 c 0
 292 139 245 278 245 405 c 0
 245 468 257 527 274 575 c 0
 310 678 618 1332 1022 1332 c 0
 1028 1332 1034 1332 1040 1332 c 0
 1093 1329 1287 1278 1357 1278 c 0
 1364 1278 1369 1279 1373 1280 c 1
 1783 1990 l 1
1246 1066 m 1
 991 1114 l 1
 727 1084 485 589 438 483 c 0
 425 451 413 414 413 376 c 0
 413 321 438 264 514 219 c 1
 541 205 568 198 594 198 c 0
 703 198 803 305 840 356 c 1
 844 364 l 1
 864 402 1137 876 1246 1066 c 1
EndSplineSet
Validated: 1
EndChar

StartChar: tkt
Encoding: 983159 983159 245
Width: 853
VWidth: 0
Flags: W
HStem: 73 797 1453 796 1640 20G<390 570>
VStem: 0 180<1949.57 2249> 390 180<662 1660> 771 179<74 363.84>
LayerCount: 2
Fore
SplineSet
390 1660 m 1xbc
 570 1660 l 1
 570 662 l 1
 390 660 l 1
 390 1660 l 1xbc
EndSplineSet
Refer: 251 983208 S 1 0 0 1 0 0 2
Refer: 252 983207 N 1 0 0 1 0 0 2
Validated: 5
EndChar

StartChar: Zcaron
Encoding: 381 381 247
Width: 532
VWidth: 0
Flags: W
HStem: -1005 156<38.1454 254.729>
VStem: -136 170<-846.917 -427.877> 485 171<-406.368 -24 179.548 588.194>
LayerCount: 2
Fore
SplineSet
91 -849 m 0
 434 -844 485 -209 485 -42 c 0
 485 -35 485 -29 485 -24 c 1
 348 -96 278 -173 160 -321 c 1
 90 -406 34 -603 34 -731 c 0
 34 -800 51 -849 90 -849 c 0
 91 -849 l 0
9 -980 m 0
 -104 -931 -136 -796 -136 -680 c 0
 -136 -634 -131 -592 -124 -558 c 0
 -95 -417 -41 -328 45 -211 c 0
 153 -65 253 29 487 179 c 1
 493 190 497 246 497 303 c 0
 497 330 496 356 494 379 c 0
 488 452 489 512 422 596 c 1
 336 697 179 855 7 879 c 2
 3 880 l 1
 3 1105 l 1
 10 1102 l 2
 213 1005 462 818 525 711 c 0
 591 596 640 501 650 393 c 0
 654 354 656 306 656 254 c 0
 656 -62 592 -568 514 -694 c 0
 423 -842 289 -1005 122 -1005 c 0
 86 -1005 48 -997 9 -980 c 0
EndSplineSet
Validated: 1
EndChar

StartChar: luTp
Encoding: 983211 983211 249
Width: 710
VWidth: 0
Flags: HW
HStem: 2230 20G<0 187.5>
VStem: 0 180<1651.33 2249>
LayerCount: 2
Fore
SplineSet
794 159 m 5
 798 4 l 5
 56 213 0 765 0 1210 c 1
 180 1211 l 1
 180 762 278 324 794 159 c 5
EndSplineSet
EndChar

StartChar: luTl
Encoding: 983210 983210 250
Width: 557
VWidth: 0
Flags: HW
VStem: 348 180<81 678.669>
LayerCount: 2
Fore
SplineSet
2 917 m 5
 -2 1121 l 5
 510 913 738 540 738 81 c 1
 558 80 l 1
 557 515 378 746 2 917 c 5
EndSplineSet
EndChar

StartChar: luDp
Encoding: 983208 983208 251
Width: 853
VWidth: 0
Flags: W
HStem: 1453 796
VStem: 0 180<1949.57 2249>
LayerCount: 2
Fore
SplineSet
526 1657 m 1
 530 1453 l 1
 124 1645 22 1955 0 2249 c 1
 180 2250 l 1
 195 1961 283 1817 526 1657 c 1
EndSplineSet
Validated: 1
EndChar

StartChar: luDl
Encoding: 983207 983207 252
Width: 853
VWidth: 0
Flags: W
HStem: 73 797
VStem: 771 179<74 363.84>
LayerCount: 2
Fore
SplineSet
424 666 m 1
 420 870 l 1
 826 678 928 368 950 74 c 1
 771 73 l 1
 756 362 668 506 424 666 c 1
EndSplineSet
Validated: 1
EndChar

StartChar: stly
Encoding: 983167 983167 258
Width: 86
VWidth: 0
Flags: W
HStem: -142 365<-185.985 3.3618 10 137.697> 0 21G<284 284> 2111 198<271.078 491.252>
VStem: 10 180<145 223> 48 190<1331.61 2080.43> 55.8977 198.311 256.079 189.998 583 167<1513.62 2010.24>
LayerCount: 2
Fore
SplineSet
10 223 m 1xb3
 189 223 l 1
 190 113 l 2
 190 80 174 6 170 -14 c 0
 152 -105 51 -142 -17 -142 c 0
 -22 -142 -27 -142 -32 -142 c 1
 -40 -143 -49 -144 -59 -144 c 0
 -108 -144 -139 -123 -170 -97 c 0
 -201 -71 -225 -20 -225 39 c 0
 -225 98 -203 145 -170 175 c 0
 -140 202 -108 222 -59 222 c 0
 -32 222 -10 184 10 145 c 1
 10 223 l 1xb3
EndSplineSet
Refer: 202 983078 S 1 0 0 1 60 0 2
Validated: 5
EndChar

StartChar: sici
Encoding: 983169 983169 260
Width: 566
VWidth: 0
Flags: W
VStem: 732 150<85.2832 1095.76>
LayerCount: 2
Fore
SplineSet
686 1066 m 1
 638 1152 561 1185 442 1164 c 1
 295 1133 105 985 112 976 c 1
 0 1079 l 2
 -8 1086 335 1352 526 1320 c 1
 680 1303 748 1255 793 1190 c 1
 861 1106 877 937 886 804 c 1
 891 697 906 516 882 276 c 1
 830 0 776 -81 674 -290 c 0
 566 -511 265 -888 -47 -1087 c 1
 -47 -888 l 1
 206 -700 411 -464 523 -245 c 0
 629 -37 688 79 718 300 c 1
 732 451 732 587 732 732 c 0
 732 831 722 946 686 1066 c 1
EndSplineSet
Validated: 33
EndChar

StartChar: szcz
Encoding: 983171 983171 262
Width: 627
VWidth: 0
Flags: W
HStem: -1152 200<-81.9362 172.104> -412 121 63 135 1246 181<328.248 584.132>
VStem: -310 214<-947.074 -499.047> 110 142<-191 -127 -191 -104.5> 519 146<-197.5 -130.5> 684 180<395.411 1135.37>
LayerCount: 2
Fore
SplineSet
118 946 m 1
 -10 1050 l 1
 77 1239 335 1427 456 1427 c 0
 555 1427 700 1314 741 1262 c 0
 832 1148 864 973 864 863 c 0
 864 710 825 527 788 318 c 0
 742 61 700 -99 610 -378 c 0
 581 -467 474 -864 275 -1021 c 0
 165 -1108 47 -1152 -54 -1152 c 0
 -189 -1152 -310 -955 -310 -790 c 0
 -310 -701 -271 -532 -210 -388 c 0
 -159 -270 -86 -153 60 -9 c 0
 198 127 330 154 580 213 c 1
 606 314 634 459 674 761 c 0
 678 795 684 840 684 891 c 0
 684 952 675 1021 645 1086 c 0
 590 1205 534 1246 443 1246 c 0
 439 1246 435 1245 430 1245 c 0
 357 1242 214 1076 118 946 c 1
528 0 m 1
 343 -36 120 -161 23 -372 c 0
 -46 -521 -96 -685 -96 -760 c 0
 -96 -767 -96 -775 -96 -784 c 0
 -96 -845 -91 -944 -21 -950 c 0
 -10 -951 1 -952 11 -952 c 0
 98 -952 169 -914 233 -812 c 0
 371 -591 427 -378 453 -310 c 0
 493 -206 506 -102 528 0 c 1
EndSplineSet
Refer: 91 122 N 1 0 0 1 360 -460 2
Validated: 5
EndChar

StartChar: cent
Encoding: 162 162 265
Width: 1233
VWidth: 2048
Flags: W
HStem: -27 154<543.951 698 801 1024.81> 991 154<544.156 698 801 1024.81>
VStem: 213 193<281.483 837.133> 698 103<-313 -21.8742 127 991 1140.13 1432>
LayerCount: 2
Fore
SplineSet
1061 1077 m 1
 1061 905 l 1
 1016 932 972 952 929 967 c 0
 886 982 843 990 801 993 c 1
 801 123 l 1
 843 126 886 136 930 150 c 0
 973 166 1017 186 1061 213 c 1
 1061 41 l 1
 1012 20 966 4 923 -7 c 0
 880 -18 839 -25 801 -27 c 1
 801 -313 l 1
 698 -313 l 1
 698 -27 l 1
 548 -12 430 47 343 152 c 0
 256 256 213 392 213 559 c 0
 213 726 257 862 344 968 c 0
 432 1073 550 1132 698 1145 c 1
 698 1432 l 1
 801 1432 l 1
 801 1145 l 1
 839 1143 880 1136 923 1125 c 0
 966 1114 1012 1098 1061 1077 c 1
698 127 m 1
 698 991 l 1
 610 983 539 940 486 861 c 0
 433 782 406 682 406 559 c 0
 406 436 433 336 486 258 c 0
 539 179 610 136 698 127 c 1
EndSplineSet
Validated: 1
EndChar

StartChar: sterling
Encoding: 163 163 266
Width: 1233
VWidth: 2048
Flags: W
HStem: 0 170<139 375 575 1112> 635 143<176 375 575 946> 1366 154<659.953 1057.52>
VStem: 375 200<170 635 778 1277.71>
LayerCount: 2
Fore
SplineSet
1092 1462 m 1
 1092 1278 l 1
 1051 1307 1009 1329 966 1344 c 0
 924 1359 881 1366 836 1366 c 0
 747 1366 681 1336 638 1276 c 0
 596 1217 575 1123 575 995 c 2
 575 778 l 1
 946 778 l 1
 946 635 l 1
 575 635 l 1
 575 170 l 1
 1112 170 l 1
 1112 0 l 1
 139 0 l 1
 139 170 l 1
 375 170 l 1
 375 635 l 1
 176 635 l 1
 176 778 l 1
 375 778 l 1
 375 1016 l 2
 375 1185 412 1312 484 1395 c 0
 558 1478 668 1520 817 1520 c 0
 860 1520 905 1515 950 1506 c 0
 996 1496 1043 1481 1092 1462 c 1
EndSplineSet
Validated: 1
EndChar

StartChar: currency
Encoding: 164 164 267
Width: 1233
VWidth: 2048
Flags: W
HStem: 301 125<500.988 804.756> 856 127<500.741 805.148>
VStem: 311 127<488.576 793.525> 868 125<489.889 793.233>
LayerCount: 2
Fore
SplineSet
868 643 m 0
 868 703 847 754 806 794 c 0
 765 836 714 856 653 856 c 0
 593 856 542 836 500 794 c 0
 459 754 438 703 438 643 c 0
 438 582 459 530 500 488 c 0
 542 447 593 426 653 426 c 0
 714 426 765 447 806 489 c 0
 847 531 868 582 868 643 c 0
844 924 m 1
 1010 1090 l 1
 1100 997 l 1
 934 831 l 1
 954 798 969 766 978 736 c 0
 988 704 993 673 993 641 c 0
 993 608 988 576 978 546 c 0
 968 515 953 485 932 455 c 1
 1100 289 l 1
 1006 195 l 1
 840 362 l 1
 809 341 779 326 748 316 c 0
 718 306 686 301 653 301 c 0
 621 301 589 306 557 316 c 0
 525 325 493 339 461 358 c 1
 297 195 l 1
 205 285 l 1
 371 451 l 1
 350 485 335 518 326 548 c 0
 316 580 311 610 311 641 c 0
 311 674 316 706 326 738 c 0
 337 768 352 799 373 829 c 1
 205 995 l 1
 299 1090 l 1
 465 922 l 1
 496 943 526 958 556 968 c 0
 587 978 619 983 653 983 c 0
 684 983 715 978 746 968 c 0
 777 959 810 944 844 924 c 1
EndSplineSet
Validated: 1
EndChar

StartChar: yen
Encoding: 165 165 268
Width: 1233
VWidth: 2048
Flags: W
HStem: 0 21G<514 717> 524 111<115 514 717 1118> 821 111<115 358 866 1118>
VStem: 514 203<0 524 635 670>
LayerCount: 2
Fore
SplineSet
37 1493 m 1
 252 1493 l 1
 616 834 l 1
 979 1493 l 1
 1196 1493 l 1
 866 932 l 1
 1118 932 l 1
 1118 821 l 1
 803 821 l 1
 717 670 l 1
 717 635 l 1
 1118 635 l 1
 1118 524 l 1
 717 524 l 1
 717 0 l 1
 514 0 l 1
 514 524 l 1
 115 524 l 1
 115 635 l 1
 514 635 l 1
 514 670 l 1
 424 821 l 1
 115 821 l 1
 115 932 l 1
 358 932 l 1
 37 1493 l 1
EndSplineSet
Validated: 1
EndChar

StartChar: brokenbar
Encoding: 166 166 269
Width: 1233
VWidth: 2048
Flags: W
VStem: 530 172<-350 408 674 1432>
LayerCount: 2
Fore
SplineSet
702 1432 m 1
 702 674 l 1
 530 674 l 1
 530 1432 l 1
 702 1432 l 1
702 408 m 1
 702 -350 l 1
 530 -350 l 1
 530 408 l 1
 702 408 l 1
EndSplineSet
Validated: 1
EndChar

StartChar: section
Encoding: 167 167 270
Width: 1233
VWidth: 2048
Flags: W
HStem: -195 144<308.64 728.208> 7 20G<279 308> 1376 144<490.271 908.302>
VStem: 199 163<615.376 886.383> 264 185<1116.26 1338.38> 786 185<-10.1522 224.296> 872 164<458.212 729.357>
LayerCount: 2
Fore
SplineSet
936 1462 m 1xe8
 936 1298 l 1
 881 1324 829 1344 782 1356 c 0
 734 1370 691 1376 653 1376 c 0
 588 1376 538 1363 502 1336 c 0
 467 1309 449 1272 449 1225 c 0
 449 1165 517 1097 654 1020 c 0
 671 1010 685 1002 694 997 c 0
 835 918 928 852 971 801 c 0xec
 1014 750 1036 690 1036 623 c 0xe2
 1036 563 1021 510 990 463 c 0
 960 416 914 375 852 340 c 1
 893 305 923 270 942 234 c 0
 961 197 971 158 971 115 c 0
 971 20 937 -55 869 -111 c 0
 801 -167 709 -195 594 -195 c 0
 545 -195 495 -190 444 -180 c 0
 392 -171 337 -156 279 -137 c 1
 279 27 l 1
 337 1 391 -18 440 -32 c 0
 489 -44 533 -51 571 -51 c 0
 639 -51 692 -37 730 -9 c 0
 767 19 786 58 786 109 c 0
 786 177 712 252 565 334 c 1
 541 348 l 1
 398 428 306 494 263 544 c 0
 220 596 199 655 199 723 c 0xf4
 199 784 214 838 246 886 c 0
 276 933 322 973 383 1006 c 1
 343 1035 313 1069 294 1106 c 0
 274 1143 264 1185 264 1231 c 0
 264 1318 297 1388 364 1440 c 0
 431 1494 520 1520 631 1520 c 0
 679 1520 728 1515 780 1506 c 0
 830 1496 883 1481 936 1462 c 1xe8
485 936 m 1
 444 906 413 876 392 846 c 0
 372 816 362 785 362 754 c 0
 362 703 386 656 432 610 c 0
 480 566 585 499 750 410 c 1
 791 440 822 470 842 500 c 0
 862 530 872 561 872 592 c 0xf2
 872 643 848 691 800 736 c 0
 753 781 648 848 485 936 c 1
EndSplineSet
Validated: 1
EndChar

StartChar: dieresis
Encoding: 168 168 271
Width: 1233
VWidth: 2048
Flags: W
HStem: 1350 202<319 522 711 913>
VStem: 319 203<1350 1552> 711 202<1350 1552>
LayerCount: 2
Fore
SplineSet
319 1552 m 1
 522 1552 l 1
 522 1350 l 1
 319 1350 l 1
 319 1552 l 1
711 1552 m 1
 913 1552 l 1
 913 1350 l 1
 711 1350 l 1
 711 1552 l 1
EndSplineSet
Validated: 1
EndChar

StartChar: copyright
Encoding: 169 169 272
Width: 1233
VWidth: 2048
Flags: W
HStem: 125 102<392.268 840.432> 369 98<484.935 859.071> 1018 98<480.334 851.049> 1255 103<390.186 844.818>
VStem: 0 102<520.5 965.565> 250 135<542.46 941.343> 1130 103<517.568 966.959>
LayerCount: 2
Fore
SplineSet
864 1071 m 1
 864 963 l 1
 825 982 788 996 750 1004 c 0
 714 1014 676 1018 637 1018 c 0
 559 1018 498 993 452 944 c 0
 408 894 385 826 385 741 c 0
 385 653 408 585 455 538 c 0
 502 491 568 467 655 467 c 0
 692 467 728 471 762 480 c 0
 797 488 831 501 864 518 c 1
 864 414 l 1
 829 399 793 387 755 380 c 0
 717 373 678 369 637 369 c 0
 517 369 422 402 354 469 c 0
 284 536 250 626 250 741 c 0
 250 856 285 948 354 1015 c 0
 423 1082 518 1116 637 1116 c 0
 678 1116 717 1112 755 1105 c 0
 793 1098 829 1086 864 1071 c 1
616 1255 m 0
 545 1255 480 1243 420 1218 c 0
 359 1193 304 1156 254 1106 c 0
 204 1056 166 1000 140 939 c 0
 115 878 102 812 102 741 c 0
 102 672 115 606 140 546 c 0
 166 484 204 429 254 379 c 0
 305 328 360 290 420 265 c 0
 481 240 546 227 616 227 c 0
 687 227 752 240 812 265 c 0
 873 290 928 328 979 379 c 0
 1030 430 1068 485 1092 546 c 0
 1118 606 1130 671 1130 741 c 0
 1130 812 1117 878 1092 939 c 0
 1067 1000 1029 1056 979 1106 c 0
 929 1156 874 1193 814 1218 c 0
 753 1243 687 1255 616 1255 c 0
616 1358 m 0
 701 1358 779 1343 852 1313 c 0
 925 1283 991 1238 1051 1178 c 0
 1111 1117 1156 1050 1187 977 c 0
 1218 904 1233 825 1233 741 c 0
 1233 658 1218 580 1188 507 c 0
 1157 434 1112 368 1051 307 c 0
 990 246 924 201 851 170 c 0
 778 140 700 125 616 125 c 0
 533 125 455 140 382 170 c 0
 309 201 243 246 182 307 c 0
 121 368 76 434 46 507 c 0
 15 580 0 658 0 741 c 0
 0 825 15 904 46 977 c 0
 77 1050 122 1117 182 1178 c 0
 242 1238 308 1283 381 1313 c 0
 454 1343 532 1358 616 1358 c 0
EndSplineSet
Validated: 1
EndChar

StartChar: ordfeminine
Encoding: 170 170 273
Width: 1233
VWidth: 2048
Flags: W
HStem: 469 123<293 961> 698 119<452.251 733.455> 1104 115<479.942 811> 1405 115<355.208 750.111>
VStem: 270 146<848.73 1069.6> 811 143<717 829 890.26 1104 1219 1357.54>
LayerCount: 2
Fore
SplineSet
684 1104 m 2
 588 1104 519 1093 478 1070 c 0
 437 1047 416 1010 416 958 c 0
 416 915 430 881 460 856 c 0
 488 830 527 817 575 817 c 0
 645 817 702 841 746 888 c 0
 789 936 811 998 811 1075 c 2
 811 1104 l 1
 684 1104 l 2
954 1165 m 2
 954 717 l 1
 811 717 l 1
 811 829 l 1
 778 786 740 753 696 731 c 0
 653 709 604 698 549 698 c 0
 463 698 395 721 345 766 c 0
 295 811 270 873 270 950 c 0
 270 1036 301 1102 364 1149 c 0
 426 1196 514 1219 629 1219 c 2
 811 1219 l 1
 811 1223 l 2
 811 1283 791 1328 752 1359 c 0
 712 1390 653 1405 575 1405 c 0
 541 1405 503 1399 462 1388 c 0
 420 1376 377 1359 332 1337 c 1
 332 1464 l 1
 377 1483 422 1497 468 1506 c 0
 512 1515 556 1520 598 1520 c 0
 721 1520 811 1491 868 1434 c 0
 925 1377 954 1287 954 1165 c 2
293 592 m 1
 961 592 l 1
 961 469 l 1
 293 469 l 1
 293 592 l 1
EndSplineSet
Validated: 1
EndChar

StartChar: guillemotleft
Encoding: 171 171 274
Width: 1233
VWidth: 2048
Flags: W
HStem: 141 918
VStem: 119 923
LayerCount: 2
Fore
SplineSet
588 1059 m 1
 588 868 l 1
 287 600 l 1
 588 332 l 1
 588 141 l 1
 119 559 l 1
 119 641 l 1
 588 1059 l 1
1042 1059 m 1
 1042 868 l 1
 741 600 l 1
 1042 332 l 1
 1042 141 l 1
 573 559 l 1
 573 641 l 1
 1042 1059 l 1
EndSplineSet
Validated: 1
EndChar

StartChar: logicalnot
Encoding: 172 172 275
Width: 1233
VWidth: 2048
Flags: W
HStem: 690 172<88 977>
VStem: 977 168<371 690>
LayerCount: 2
Fore
SplineSet
88 862 m 1
 1145 862 l 1
 1145 371 l 1
 977 371 l 1
 977 690 l 1
 88 690 l 1
 88 862 l 1
EndSplineSet
Validated: 1
EndChar

StartChar: uni00AD
Encoding: 173 173 276
Width: 1233
VWidth: 2048
Flags: W
HStem: 479 164<356 877>
VStem: 356 521<479 643>
LayerCount: 2
Fore
SplineSet
356 643 m 1
 877 643 l 1
 877 479 l 1
 356 479 l 1
 356 643 l 1
EndSplineSet
Validated: 1
EndChar

StartChar: registered
Encoding: 174 174 277
Width: 1233
VWidth: 2048
Flags: W
HStem: 125 102<392.268 840.432> 702 82<492 642.704> 1016 84<492 719.816> 1255 103<390.186 844.818>
VStem: 0 102<520.5 965.565> 362 130<406 702 784 1016> 758 133<804.547 995.756> 1130 103<517.568 966.959>
LayerCount: 2
Fore
SplineSet
600 1100 m 2
 698 1100 771 1084 819 1051 c 0
 867 1018 891 968 891 901 c 0
 891 854 876 814 847 784 c 0
 818 752 776 732 723 723 c 1
 736 720 752 707 771 684 c 0
 790 662 813 631 838 592 c 1
 952 406 l 1
 809 406 l 1
 702 580 l 2
 669 633 643 667 622 681 c 0
 602 695 577 702 547 702 c 2
 492 702 l 1
 492 406 l 1
 362 406 l 1
 362 1100 l 1
 600 1100 l 2
594 1016 m 2
 492 1016 l 1
 492 784 l 1
 594 784 l 2
 654 784 696 793 721 811 c 0
 746 829 758 859 758 901 c 0
 758 942 746 972 721 990 c 0
 696 1007 654 1016 594 1016 c 2
616 1358 m 0
 701 1358 779 1343 852 1313 c 0
 925 1283 991 1238 1051 1178 c 0
 1111 1117 1156 1050 1187 977 c 0
 1218 904 1233 825 1233 741 c 0
 1233 658 1218 580 1188 507 c 0
 1157 434 1112 368 1051 307 c 0
 990 246 924 201 851 170 c 0
 778 140 700 125 616 125 c 0
 533 125 455 140 382 170 c 0
 309 201 243 246 182 307 c 0
 121 368 76 434 46 507 c 0
 15 580 0 658 0 741 c 0
 0 825 15 904 46 977 c 0
 77 1050 122 1117 182 1178 c 0
 242 1238 308 1283 381 1313 c 0
 454 1343 532 1358 616 1358 c 0
616 1255 m 0
 545 1255 480 1243 420 1218 c 0
 359 1193 304 1156 254 1106 c 0
 204 1056 166 1000 140 939 c 0
 115 878 102 812 102 741 c 0
 102 672 115 606 140 546 c 0
 166 484 204 429 254 379 c 0
 305 328 360 290 420 265 c 0
 481 240 546 227 616 227 c 0
 687 227 752 240 812 265 c 0
 873 290 928 328 979 379 c 0
 1030 430 1068 485 1092 546 c 0
 1118 606 1130 671 1130 741 c 0
 1130 812 1117 878 1092 939 c 0
 1067 1000 1029 1056 979 1106 c 0
 929 1156 874 1193 814 1218 c 0
 753 1243 687 1255 616 1255 c 0
EndSplineSet
Validated: 1
EndChar

StartChar: macron
Encoding: 175 175 278
Width: 1233
VWidth: 2048
Flags: W
HStem: 1378 148<317 915>
VStem: 317 598<1378 1526>
LayerCount: 2
Fore
SplineSet
317 1526 m 1
 915 1526 l 1
 915 1378 l 1
 317 1378 l 1
 317 1526 l 1
EndSplineSet
Validated: 1
EndChar

StartChar: degree
Encoding: 176 176 279
Width: 1233
VWidth: 2048
Flags: W
HStem: 885 127<477.343 756.017> 1391 129<479.686 753.421>
VStem: 299 127<1063.32 1337.67> 807 127<1061.47 1336.89>
LayerCount: 2
Fore
SplineSet
616 1520 m 0
 659 1520 700 1512 740 1496 c 0
 778 1479 813 1456 842 1425 c 1
 872 1395 895 1361 910 1323 c 0
 926 1285 934 1244 934 1200 c 0
 934 1112 903 1038 841 976 c 0
 779 916 703 885 614 885 c 0
 524 885 449 915 389 975 c 0
 329 1035 299 1110 299 1200 c 0
 299 1289 330 1365 391 1427 c 0
 452 1489 527 1520 616 1520 c 0
616 1391 m 0
 563 1391 518 1372 482 1336 c 0
 444 1298 426 1253 426 1200 c 0
 426 1147 444 1102 480 1066 c 0
 517 1030 561 1012 614 1012 c 0
 667 1012 713 1030 750 1067 c 0
 788 1104 807 1148 807 1200 c 0
 807 1253 788 1298 751 1335 c 0
 714 1372 669 1391 616 1391 c 0
EndSplineSet
Validated: 1
EndChar

StartChar: plusminus
Encoding: 177 177 280
Width: 1233
VWidth: 2048
Flags: W
HStem: 0 170<88 1145> 672 170<88 532 700 1145>
VStem: 532 168<340 672 842 1171>
LayerCount: 2
Fore
SplineSet
88 170 m 1
 1145 170 l 1
 1145 0 l 1
 88 0 l 1
 88 170 l 1
700 1171 m 1
 700 842 l 1
 1145 842 l 1
 1145 672 l 1
 700 672 l 1
 700 340 l 1
 532 340 l 1
 532 672 l 1
 88 672 l 1
 88 842 l 1
 532 842 l 1
 532 1171 l 1
 700 1171 l 1
EndSplineSet
Validated: 1
EndChar

StartChar: uni00B2
Encoding: 178 178 281
Width: 1233
VWidth: 2048
Flags: W
HStem: 668 114<483 893> 1411 109<362.054 683.445>
VStem: 735 152<1128.63 1376.99>
LayerCount: 2
Fore
SplineSet
483 782 m 1
 893 782 l 1
 893 668 l 1
 322 668 l 1
 322 778 l 1
 553 1004 l 1
 620 1069 668 1121 694 1162 c 0
 722 1203 735 1240 735 1274 c 0
 735 1315 718 1348 685 1373 c 0
 652 1398 608 1411 553 1411 c 0
 520 1411 485 1405 448 1393 c 0
 410 1381 370 1363 328 1339 c 1
 328 1464 l 1
 371 1483 413 1497 454 1506 c 0
 494 1515 534 1520 573 1520 c 0
 668 1520 744 1498 801 1454 c 0
 858 1409 887 1351 887 1280 c 0
 887 1242 875 1203 850 1164 c 0
 825 1124 773 1065 694 987 c 2
 483 782 l 1
EndSplineSet
Validated: 1
EndChar

StartChar: uni00B3
Encoding: 179 179 282
Width: 1233
VWidth: 2048
Flags: W
HStem: 653 109<328.153 711.161> 1061 108<487 701.443> 1411 109<356.153 702.49>
VStem: 752 151<1196.39 1384.3> 772 152<800.803 1025.55>
LayerCount: 2
Fore
SplineSet
731 1120 m 1xf0
 794 1106 842 1081 874 1045 c 0
 908 1009 924 964 924 911 c 0
 924 828 892 765 829 720 c 0
 766 675 675 653 557 653 c 0
 518 653 480 656 442 664 c 0
 404 670 365 681 326 694 c 1
 326 815 l 1
 372 797 414 784 452 775 c 0
 489 766 523 762 553 762 c 0
 620 762 674 776 713 802 c 0
 752 830 772 866 772 911 c 0xe8
 772 960 754 998 717 1023 c 0
 680 1048 626 1061 553 1061 c 2
 487 1061 l 1
 487 1169 l 1
 561 1169 l 2
 623 1169 670 1180 703 1200 c 0
 736 1222 752 1252 752 1292 c 0
 752 1329 736 1358 704 1380 c 0
 672 1400 627 1411 569 1411 c 0
 540 1411 506 1407 469 1399 c 0
 432 1391 393 1379 354 1364 c 1
 354 1485 l 1
 400 1496 442 1505 482 1511 c 0
 520 1517 557 1520 590 1520 c 0
 687 1520 763 1500 819 1461 c 0
 875 1422 903 1369 903 1303 c 0
 903 1256 888 1216 859 1186 c 0
 830 1154 787 1133 731 1120 c 1xf0
EndSplineSet
Validated: 1
EndChar

StartChar: acute
Encoding: 180 180 283
Width: 1233
VWidth: 2048
Flags: W
HStem: 1262 376
VStem: 475 479
LayerCount: 2
Fore
SplineSet
756 1638 m 1
 954 1638 l 1
 629 1262 l 1
 475 1262 l 1
 756 1638 l 1
EndSplineSet
Validated: 1
EndChar

StartChar: mu
Encoding: 181 181 284
Width: 1233
VWidth: 2048
Flags: W
HStem: -29 160<447.574 784.399 1021.5 1180.97>
VStem: 195 184<-428 127 208.406 1120> 866 185<218.691 1120>
LayerCount: 2
Fore
SplineSet
195 -428 m 1
 195 1120 l 1
 379 1120 l 1
 379 424 l 2
 379 329 399 257 439 206 c 0
 479 156 536 131 610 131 c 0
 695 131 758 159 802 216 c 0
 844 273 866 356 866 467 c 2
 866 1120 l 1
 1051 1120 l 1
 1051 256 l 2
 1051 217 1056 188 1067 169 c 0
 1078 150 1094 141 1116 141 c 0
 1122 141 1130 143 1140 146 c 0
 1149 149 1163 155 1182 164 c 1
 1182 16 l 1
 1157 1 1133 -11 1110 -18 c 0
 1087 -25 1065 -29 1042 -29 c 0
 1001 -29 968 -16 942 10 c 0
 918 37 901 76 893 129 c 1
 862 76 825 36 780 10 c 0
 736 -16 684 -29 625 -29 c 0
 564 -29 512 -16 470 9 c 0
 427 34 391 74 362 127 c 1
 362 -428 l 1
 195 -428 l 1
EndSplineSet
Validated: 1
EndChar

StartChar: paragraph
Encoding: 182 182 285
Width: 1233
VWidth: 2048
Flags: W
HStem: 1370 123<698 889>
VStem: 106 592<840.068 1301.81> 557 141<-197 656.492> 889 141<-197 1370>
LayerCount: 2
Fore
SplineSet
582 1493 m 2xd0
 1030 1493 l 1
 1030 -197 l 1
 889 -197 l 1
 889 1370 l 1
 698 1370 l 1
 698 -197 l 1
 557 -197 l 1
 557 649 l 1xb0
 414 660 303 703 224 776 c 0
 145 850 106 948 106 1071 c 0
 106 1198 150 1300 236 1377 c 0
 324 1454 439 1493 582 1493 c 2xd0
EndSplineSet
Validated: 1
EndChar

StartChar: periodcentered
Encoding: 183 183 286
Width: 1233
VWidth: 2048
Flags: W
HStem: 559 305<489 741>
VStem: 489 252<559 864>
LayerCount: 2
Fore
SplineSet
489 864 m 1
 741 864 l 1
 741 559 l 1
 489 559 l 1
 489 864 l 1
EndSplineSet
Validated: 1
EndChar

StartChar: cedilla
Encoding: 184 184 287
Width: 1233
VWidth: 2048
Flags: W
HStem: -395 123<396.36 639.01> -20 20G<582 718.5>
VStem: 670 139<-255.545 -53.0055>
LayerCount: 2
Fore
SplineSet
700 0 m 1
 737 -41 765 -80 782 -114 c 0
 800 -150 809 -183 809 -215 c 0
 809 -274 789 -319 749 -350 c 0
 709 -380 650 -395 571 -395 c 0
 541 -395 512 -393 482 -389 c 0
 454 -385 424 -379 395 -371 c 1
 395 -240 l 1
 418 -251 442 -260 466 -264 c 0
 492 -270 520 -272 551 -272 c 0
 590 -272 619 -264 640 -248 c 0
 660 -232 670 -209 670 -178 c 0
 670 -158 663 -134 648 -104 c 0
 633 -76 611 -41 582 0 c 1
 700 0 l 1
EndSplineSet
Validated: 1
EndChar

StartChar: uni00B9
Encoding: 185 185 288
Width: 1233
VWidth: 2048
Flags: W
HStem: 668 110<362 567 711 915> 1348 116<344 458.22>
VStem: 567 144<778 1389>
LayerCount: 2
Fore
SplineSet
362 778 m 1
 567 778 l 1
 567 1389 l 1
 344 1348 l 1
 344 1464 l 1
 573 1503 l 1
 711 1503 l 1
 711 778 l 1
 915 778 l 1
 915 668 l 1
 362 668 l 1
 362 778 l 1
EndSplineSet
Validated: 1
EndChar

StartChar: ordmasculine
Encoding: 186 186 289
Width: 1233
VWidth: 2048
Flags: W
HStem: 469 123<276 952> 698 117<474.707 757.53> 1403 117<474.922 757.521>
VStem: 244 155<888.474 1328.57> 834 155<891.591 1328.57>
LayerCount: 2
Fore
SplineSet
616 1403 m 0
 548 1403 495 1377 456 1325 c 0
 418 1273 399 1201 399 1108 c 0
 399 1015 418 943 456 892 c 0
 495 841 548 815 616 815 c 0
 683 815 736 841 776 894 c 0
 814 946 834 1017 834 1108 c 0
 834 1201 815 1273 776 1325 c 0
 738 1377 685 1403 616 1403 c 0
616 1520 m 0
 729 1520 820 1483 888 1408 c 0
 955 1333 989 1233 989 1108 c 0
 989 983 955 884 888 810 c 0
 821 735 730 698 616 698 c 0
 503 698 412 735 345 810 c 0
 278 884 244 983 244 1108 c 0
 244 1233 278 1333 346 1408 c 0
 413 1483 503 1520 616 1520 c 0
276 592 m 1
 952 592 l 1
 952 469 l 1
 276 469 l 1
 276 592 l 1
EndSplineSet
Validated: 1
EndChar

StartChar: guillemotright
Encoding: 187 187 290
Width: 1233
VWidth: 2048
Flags: W
HStem: 141 918
VStem: 193 923
LayerCount: 2
Fore
SplineSet
647 1059 m 1
 1116 641 l 1
 1116 559 l 1
 647 141 l 1
 647 332 l 1
 948 600 l 1
 647 868 l 1
 647 1059 l 1
193 1059 m 1
 662 641 l 1
 662 559 l 1
 193 141 l 1
 193 332 l 1
 494 600 l 1
 193 868 l 1
 193 1059 l 1
EndSplineSet
Validated: 1
EndChar

StartChar: onequarter
Encoding: 188 188 291
Width: 1233
VWidth: 2048
Flags: W
HStem: -84 111<565 839 977 1093> 824 110<104 309 453 657> 1504 116<86 200.22> 1639 20G<197.564 453>
VStem: 309 144<934 1545> 839 138<-270 -84 27 440>
LayerCount: 2
Fore
SplineSet
815 565 m 1
 977 565 l 1
 977 27 l 1
 1093 27 l 1
 1093 -84 l 1
 977 -84 l 1
 977 -270 l 1
 839 -270 l 1
 839 -84 l 1
 452 -84 l 1
 452 37 l 1
 815 565 l 1
839 440 m 1
 565 27 l 1
 839 27 l 1
 839 440 l 1
104 934 m 1
 309 934 l 1
 309 1545 l 1
 86 1504 l 1
 86 1620 l 1
 315 1659 l 1
 453 1659 l 1
 453 934 l 1
 657 934 l 1
 657 824 l 1
 104 824 l 1
 104 934 l 1
51 504 m 1
 27 612 l 1
 1087 874 l 1
 1114 766 l 1
 51 504 l 1
EndSplineSet
Validated: 1
EndChar

StartChar: onehalf
Encoding: 189 189 292
Width: 1233
VWidth: 2048
Flags: W
HStem: -270 114<684 1094> 473 109<563.035 884.445> 824 110<104 309 453 657> 1504 116<86 200.22> 1639 20G<197.564 453>
VStem: 309 144<934 1545> 936 152<190.63 438.986>
LayerCount: 2
Fore
SplineSet
104 934 m 1
 309 934 l 1
 309 1545 l 1
 86 1504 l 1
 86 1620 l 1
 315 1659 l 1
 453 1659 l 1
 453 934 l 1
 657 934 l 1
 657 824 l 1
 104 824 l 1
 104 934 l 1
51 504 m 1
 27 612 l 1
 1087 874 l 1
 1114 766 l 1
 51 504 l 1
684 -156 m 1
 1094 -156 l 1
 1094 -270 l 1
 523 -270 l 1
 523 -160 l 1
 754 66 l 1
 821 131 868 183 896 224 c 0
 922 265 936 302 936 336 c 0
 936 377 919 410 886 435 c 0
 853 460 809 473 754 473 c 0
 721 473 686 467 648 455 c 0
 611 443 571 425 529 401 c 1
 529 526 l 1
 572 545 614 559 654 568 c 0
 695 577 735 582 774 582 c 0
 869 582 945 560 1002 516 c 0
 1059 471 1088 413 1088 342 c 0
 1088 304 1076 265 1051 226 c 0
 1026 186 974 127 895 49 c 2
 684 -156 l 1
EndSplineSet
Validated: 1
EndChar

StartChar: threequarters
Encoding: 190 190 293
Width: 1233
VWidth: 2048
Flags: W
HStem: -84 111<565 839 977 1093> 809 109<101.153 484.161> 1217 108<260 474.443> 1520 21G<127 146.5> 1567 109<129.154 475.49>
VStem: 525 151<1352.39 1540.3> 545 152<956.803 1181.55> 839 138<-270 -84 27 440>
LayerCount: 2
Fore
SplineSet
815 565 m 1xf9
 977 565 l 1
 977 27 l 1
 1093 27 l 1
 1093 -84 l 1
 977 -84 l 1
 977 -270 l 1
 839 -270 l 1
 839 -84 l 1
 452 -84 l 1
 452 37 l 1
 815 565 l 1xf9
839 440 m 1
 565 27 l 1
 839 27 l 1
 839 440 l 1
504 1276 m 1
 567 1262 614 1237 648 1201 c 0
 680 1165 697 1120 697 1067 c 0
 697 984 665 921 602 876 c 0
 539 831 448 809 330 809 c 0
 291 809 253 812 215 820 c 0
 177 826 138 837 99 850 c 1
 99 971 l 1
 145 953 187 940 224 931 c 0
 262 922 296 918 326 918 c 0
 393 918 447 932 486 958 c 0
 525 986 545 1022 545 1067 c 0xfb
 545 1116 527 1154 490 1179 c 0
 453 1204 399 1217 326 1217 c 2
 260 1217 l 1
 260 1325 l 1
 334 1325 l 2
 396 1325 443 1336 476 1356 c 0
 509 1378 525 1408 525 1448 c 0
 525 1485 509 1514 477 1536 c 0
 445 1556 400 1567 342 1567 c 0
 313 1567 279 1563 242 1555 c 0
 205 1547 166 1535 127 1520 c 1
 127 1641 l 1
 173 1652 216 1661 254 1667 c 0
 294 1673 330 1676 363 1676 c 0
 460 1676 536 1656 592 1617 c 0
 648 1578 676 1525 676 1459 c 0xfd
 676 1412 661 1372 632 1342 c 0
 603 1310 560 1289 504 1276 c 1
51 504 m 1
 27 612 l 1
 1087 874 l 1
 1114 766 l 1
 51 504 l 1
EndSplineSet
Validated: 1
EndChar

StartChar: questiondown
Encoding: 191 191 294
Width: 1233
VWidth: 2048
Flags: W
HStem: -27 164<456.881 870.416> 1239 254<543 745>
VStem: 193 202<193.659 486.656> 543 202<747.922 1092 1239 1493>
LayerCount: 2
Fore
SplineSet
549 1092 m 1
 739 1092 l 1
 739 938 l 2
 739 873 729 817 708 772 c 0
 688 726 650 676 594 621 c 2
 504 532 l 1
 463 493 434 458 418 429 c 0
 403 400 395 369 395 336 c 0
 395 277 417 229 460 192 c 0
 504 155 562 137 635 137 c 0
 687 137 743 148 802 172 c 0
 861 194 924 229 989 274 c 1
 989 86 l 1
 926 48 863 20 800 1 c 0
 736 -18 669 -27 600 -27 c 0
 476 -27 377 5 304 69 c 0
 230 133 193 219 193 326 c 0
 193 377 204 424 226 468 c 0
 249 511 291 564 354 625 c 2
 442 711 l 1
 487 754 515 789 528 817 c 0
 541 845 547 880 547 922 c 2
 547 927 l 1
 548 942 549 956 549 969 c 2
 549 1092 l 1
745 1239 m 1
 543 1239 l 1
 543 1493 l 1
 745 1493 l 1
 745 1239 l 1
EndSplineSet
Validated: 1
EndChar

StartChar: multiply
Encoding: 215 215 295
Width: 1233
VWidth: 2048
Flags: W
HStem: 174 934
VStem: 150 933
LayerCount: 2
Fore
SplineSet
150 293 m 1
 500 641 l 1
 150 991 l 1
 266 1108 l 1
 616 758 l 1
 967 1108 l 1
 1083 991 l 1
 733 641 l 1
 1081 293 l 1
 965 174 l 1
 616 524 l 1
 268 174 l 1
 150 293 l 1
EndSplineSet
Validated: 1
EndChar

StartChar: divide
Encoding: 247 247 296
Width: 1233
VWidth: 2048
Flags: W
HStem: 150 245<494 739> 557 170<88 1145> 889 246<494 739>
VStem: 494 245<150 395 889 1135>
LayerCount: 2
Fore
SplineSet
494 395 m 1
 739 395 l 1
 739 150 l 1
 494 150 l 1
 494 395 l 1
494 1135 m 1
 739 1135 l 1
 739 889 l 1
 494 889 l 1
 494 1135 l 1
88 727 m 1
 1145 727 l 1
 1145 557 l 1
 88 557 l 1
 88 727 l 1
EndSplineSet
Validated: 1
EndChar

StartChar: uni02B9
Encoding: 697 697 297
Width: 1233
VWidth: 2048
Flags: W
HStem: 1140 498<557 637>
VStem: 492 255
LayerCount: 2
Fore
SplineSet
492 1140 m 1
 557 1638 l 1
 747 1638 l 1
 637 1140 l 1
 492 1140 l 1
EndSplineSet
Validated: 1
EndChar

StartChar: uni02BB
Encoding: 699 699 298
Width: 1233
VWidth: 2048
Flags: W
HStem: 967 589<659 715>
VStem: 463 252<967 1174>
LayerCount: 2
Fore
SplineSet
715 967 m 1
 463 967 l 1
 463 1174 l 1
 659 1556 l 1
 813 1556 l 1
 715 1174 l 1
 715 967 l 1
EndSplineSet
Validated: 1
EndChar

StartChar: afii57929
Encoding: 700 700 299
Width: 1233
VWidth: 2048
Flags: W
HStem: 967 589<561 616>
VStem: 561 252<1350 1556>
LayerCount: 2
Fore
SplineSet
561 1556 m 1
 813 1556 l 1
 813 1350 l 1
 616 967 l 1
 463 967 l 1
 561 1350 l 1
 561 1556 l 1
EndSplineSet
Validated: 1
EndChar

StartChar: afii64937
Encoding: 701 701 300
Width: 1233
VWidth: 2048
Flags: W
HStem: 1218 123<637.132 737> 1475 254<625 737>
VStem: 496 241<1475 1729> 496 129<1350.91 1475>
LayerCount: 2
Fore
SplineSet
496 1475 m 2xe0
 496 1729 l 1
 737 1729 l 1
 737 1475 l 1xe0
 625 1475 l 1xd0
 625 1386 662 1341 737 1341 c 1
 737 1218 l 1
 576 1218 496 1304 496 1475 c 2xe0
EndSplineSet
Validated: 1
EndChar

StartChar: uni02BE
Encoding: 702 702 301
Width: 1233
VWidth: 2048
Flags: W
HStem: 1007 123<480 586.635> 1433 123<480 586.635>
VStem: 632 122<1167.92 1395.27>
LayerCount: 2
Fore
SplineSet
480 1007 m 1
 480 1130 l 1
 523 1130 559 1145 588 1174 c 0
 617 1203 632 1239 632 1282 c 0
 632 1324 617 1360 588 1389 c 0
 559 1418 523 1433 480 1433 c 1
 480 1556 l 1
 556 1556 621 1529 674 1476 c 0
 727 1423 754 1359 754 1282 c 0
 754 1205 727 1140 674 1087 c 0
 621 1034 556 1007 480 1007 c 1
EndSplineSet
Validated: 1
EndChar

StartChar: uni02BF
Encoding: 703 703 302
Width: 1233
VWidth: 2048
Flags: W
HStem: 1007 123<647.365 754> 1433 123<647.365 754>
VStem: 480 122<1167.92 1395.27>
LayerCount: 2
Fore
SplineSet
754 1007 m 1
 677 1007 611 1034 558 1087 c 1
 506 1140 480 1205 480 1282 c 0
 480 1359 506 1423 558 1476 c 0
 611 1529 677 1556 754 1556 c 1
 754 1433 l 1
 711 1433 675 1418 646 1389 c 0
 617 1360 602 1324 602 1282 c 0
 602 1239 617 1203 646 1174 c 0
 675 1145 711 1130 754 1130 c 1
 754 1007 l 1
EndSplineSet
Validated: 1
EndChar

StartChar: uni02C0
Encoding: 704 704 303
Width: 1233
VWidth: 2048
Flags: W
HStem: 1693 87<360.828 697.159>
VStem: 510 127<910 1290.29> 760 123<1409.98 1638.8>
LayerCount: 2
Fore
SplineSet
509 1357 m 1
 549 1357 l 2
 630 1357 688 1378 724 1421 c 0
 748 1449 760 1481 760 1518 c 0
 760 1568 748 1605 724 1629 c 0
 683 1672 624 1693 549 1693 c 0
 515 1693 482 1689 449 1681 c 0
 416 1673 383 1661 350 1645 c 1
 350 1741 l 1
 382 1754 415 1764 449 1770 c 0
 483 1777 518 1780 554 1780 c 0
 669 1780 756 1751 814 1692 c 0
 860 1645 883 1587 883 1518 c 0
 883 1455 860 1402 815 1359 c 0
 768 1314 708 1286 637 1275 c 1
 637 910 l 1
 510 910 l 1
 509 1357 l 1
EndSplineSet
Validated: 1
EndChar

StartChar: uni02C1
Encoding: 705 705 304
Width: 1233
VWidth: 2048
Flags: W
HStem: 1693 87<535.944 872.172>
VStem: 350 123<1409.98 1638.8> 596 127<910 1290.29>
LayerCount: 2
Fore
SplineSet
723 1357 m 1
 723 910 l 1
 596 910 l 1
 596 1275 l 1
 525 1286 465 1314 418 1359 c 0
 373 1402 350 1455 350 1518 c 0
 350 1587 373 1645 420 1692 c 1
 477 1751 564 1780 679 1780 c 0
 715 1780 750 1777 784 1770 c 0
 818 1764 851 1754 883 1741 c 1
 883 1645 l 1
 850 1661 817 1673 784 1681 c 0
 751 1689 718 1693 684 1693 c 0
 609 1693 550 1672 509 1629 c 0
 485 1605 473 1568 473 1518 c 0
 473 1481 485 1449 509 1421 c 0
 545 1378 603 1357 684 1357 c 2
 723 1357 l 1
EndSplineSet
Validated: 1
EndChar

StartChar: circumflex
Encoding: 710 710 305
Width: 1233
VWidth: 2048
Flags: W
HStem: 1262 376
VStem: 297 639
LayerCount: 2
Fore
SplineSet
543 1638 m 1
 690 1638 l 1
 936 1262 l 1
 797 1262 l 1
 616 1507 l 1
 436 1262 l 1
 297 1262 l 1
 543 1638 l 1
EndSplineSet
Validated: 1
EndChar

StartChar: caron
Encoding: 711 711 306
Width: 1233
VWidth: 2048
Flags: W
HStem: 1262 376
VStem: 297 639
LayerCount: 2
Fore
SplineSet
543 1262 m 1
 297 1638 l 1
 436 1638 l 1
 616 1393 l 1
 797 1638 l 1
 936 1638 l 1
 690 1262 l 1
 543 1262 l 1
EndSplineSet
Validated: 1
EndChar

StartChar: uni02C8
Encoding: 712 712 307
Width: 1233
VWidth: 2048
Flags: W
HStem: 999 555<548 684>
VStem: 548 136<999 1554>
LayerCount: 2
Fore
SplineSet
684 1554 m 1
 684 999 l 1
 548 999 l 1
 548 1554 l 1
 684 1554 l 1
EndSplineSet
Validated: 1
EndChar

StartChar: uni02C9
Encoding: 713 713 308
Width: 1233
VWidth: 2048
Flags: W
HStem: 1378 148<317 915>
VStem: 317 598<1378 1526>
LayerCount: 2
Fore
SplineSet
317 1526 m 1
 915 1526 l 1
 915 1378 l 1
 317 1378 l 1
 317 1526 l 1
EndSplineSet
Validated: 1
EndChar

StartChar: uni02CC
Encoding: 716 716 309
Width: 1233
VWidth: 2048
Flags: W
HStem: -303 555<548 684>
VStem: 548 136<-303 252>
LayerCount: 2
Fore
SplineSet
684 252 m 1
 684 -303 l 1
 548 -303 l 1
 548 252 l 1
 684 252 l 1
EndSplineSet
Validated: 1
EndChar

StartChar: uni02CD
Encoding: 717 717 310
Width: 1233
VWidth: 2048
Flags: W
HStem: -357 148<318 916>
VStem: 318 598<-357 -209>
LayerCount: 2
Fore
SplineSet
318 -209 m 1
 916 -209 l 1
 916 -357 l 1
 318 -357 l 1
 318 -209 l 1
EndSplineSet
Validated: 1
EndChar

StartChar: uni02D0
Encoding: 720 720 311
Width: 1233
VWidth: 2048
Flags: W
HStem: 0 21G<438 795>
VStem: 438 357
LayerCount: 2
Fore
SplineSet
616 729 m 1
 438 1059 l 1
 795 1059 l 1
 616 729 l 1
616 330 m 1
 795 0 l 1
 438 0 l 1
 616 330 l 1
EndSplineSet
Validated: 1
EndChar

StartChar: uni02D1
Encoding: 721 721 312
Width: 1233
VWidth: 2048
Flags: W
HStem: 729 330
VStem: 438 357
LayerCount: 2
Fore
SplineSet
616 729 m 1
 438 1059 l 1
 795 1059 l 1
 616 729 l 1
EndSplineSet
Validated: 1
EndChar

StartChar: uni02D2
Encoding: 722 722 313
Width: 1233
VWidth: 2048
Flags: W
HStem: 510 123<480 586.635> 936 123<480 586.635>
VStem: 632 122<670.925 898.267>
LayerCount: 2
Fore
SplineSet
480 510 m 1
 480 633 l 1
 523 633 559 648 588 677 c 0
 617 706 632 742 632 785 c 0
 632 827 617 863 588 892 c 0
 559 921 523 936 480 936 c 1
 480 1059 l 1
 556 1059 621 1032 674 979 c 0
 727 926 754 862 754 785 c 0
 754 708 727 643 674 590 c 0
 621 537 556 510 480 510 c 1
EndSplineSet
Validated: 1
EndChar

StartChar: uni02D3
Encoding: 723 723 314
Width: 1233
VWidth: 2048
Flags: W
HStem: 510 123<647.365 754> 936 123<647.365 754>
VStem: 480 122<670.925 898.267>
LayerCount: 2
Fore
SplineSet
754 510 m 1
 677 510 611 537 558 590 c 1
 506 643 480 708 480 785 c 0
 480 862 506 926 558 979 c 0
 611 1032 677 1059 754 1059 c 1
 754 936 l 1
 711 936 675 921 646 892 c 0
 617 863 602 827 602 785 c 0
 602 742 617 706 646 677 c 0
 675 648 711 633 754 633 c 1
 754 510 l 1
EndSplineSet
Validated: 1
EndChar

StartChar: uni02D6
Encoding: 726 726 315
Width: 1233
VWidth: 2048
Flags: W
HStem: 479 150<318 542 692 916>
VStem: 542 150<255 479 629 853>
LayerCount: 2
Fore
SplineSet
542 629 m 1
 542 853 l 1
 692 853 l 1
 692 629 l 1
 916 629 l 1
 916 479 l 1
 692 479 l 1
 692 255 l 1
 542 255 l 1
 542 479 l 1
 318 479 l 1
 318 629 l 1
 542 629 l 1
EndSplineSet
Validated: 1
EndChar

StartChar: uni02D7
Encoding: 727 727 316
Width: 1233
VWidth: 2048
Flags: W
HStem: 479 150<392 842>
VStem: 392 450<479 629>
LayerCount: 2
Fore
SplineSet
842 479 m 1
 392 479 l 1
 392 629 l 1
 842 629 l 1
 842 479 l 1
EndSplineSet
Validated: 1
EndChar

StartChar: breve
Encoding: 728 728 317
Width: 1233
VWidth: 2048
Flags: W
HStem: 1321 137<468.825 761.061>
VStem: 303 119<1496.6 1608> 811 119<1500.12 1608>
LayerCount: 2
Fore
SplineSet
303 1608 m 1
 422 1608 l 1
 429 1557 449 1520 481 1495 c 0
 513 1470 558 1458 616 1458 c 0
 673 1458 717 1470 749 1495 c 0
 781 1520 802 1557 811 1608 c 1
 930 1608 l 1
 923 1513 893 1441 840 1393 c 0
 787 1345 713 1321 616 1321 c 0
 520 1321 446 1345 393 1393 c 0
 340 1441 310 1513 303 1608 c 1
EndSplineSet
Validated: 1
EndChar

StartChar: dotaccent
Encoding: 729 729 318
Width: 1233
VWidth: 2048
Flags: W
HStem: 1348 204<513 718>
VStem: 513 205<1348 1552>
LayerCount: 2
Fore
SplineSet
513 1552 m 1
 718 1552 l 1
 718 1348 l 1
 513 1348 l 1
 513 1552 l 1
EndSplineSet
Validated: 1
EndChar

StartChar: ring
Encoding: 730 730 319
Width: 1233
VWidth: 2048
Flags: W
HStem: 1249 123<502.044 730.172> 1675 123<502.044 730.172>
VStem: 342 123<1409.9 1637.96> 768 123<1409.92 1637.48>
LayerCount: 2
Fore
SplineSet
891 1524 m 0
 891 1447 864 1382 812 1329 c 0
 758 1276 693 1249 616 1249 c 0
 539 1249 474 1276 422 1329 c 0
 368 1382 342 1447 342 1524 c 0
 342 1601 368 1666 422 1718 c 0
 474 1772 539 1798 616 1798 c 0
 693 1798 758 1772 812 1718 c 0
 864 1666 891 1601 891 1524 c 0
768 1524 m 0
 768 1566 753 1602 724 1631 c 0
 695 1660 659 1675 616 1675 c 0
 573 1675 538 1660 508 1632 c 0
 480 1602 465 1567 465 1524 c 0
 465 1481 480 1444 508 1416 c 0
 538 1386 573 1372 616 1372 c 0
 659 1372 695 1387 724 1416 c 0
 753 1445 768 1481 768 1524 c 0
EndSplineSet
Validated: 1
EndChar

StartChar: ogonek
Encoding: 731 731 320
Width: 1233
VWidth: 2048
Flags: W
HStem: -395 123<586.896 792.016> -20 20G<509.5 647>
VStem: 420 139<-257.034 -52.2257>
LayerCount: 2
Fore
SplineSet
528 0 m 1
 647 0 l 1
 617 -41 595 -76 580 -105 c 0
 566 -134 559 -159 559 -180 c 0
 559 -211 568 -234 586 -249 c 0
 605 -264 632 -272 668 -272 c 0
 689 -272 710 -270 731 -264 c 0
 752 -260 772 -252 793 -242 c 1
 793 -375 l 1
 768 -382 744 -387 721 -390 c 0
 698 -393 677 -395 657 -395 c 0
 576 -395 516 -380 478 -352 c 0
 439 -322 420 -277 420 -215 c 0
 420 -183 429 -150 446 -114 c 0
 464 -80 491 -41 528 0 c 1
EndSplineSet
Validated: 1
EndChar

StartChar: tilde
Encoding: 732 732 321
Width: 1233
VWidth: 2048
Flags: W
HStem: 1309 127<653.208 805.708> 1464 127<427.292 579.792>
VStem: 287 124<1309 1425.82> 821 125<1474.18 1591>
LayerCount: 2
Fore
SplineSet
612 1370 m 1
 555 1425 l 2
 541 1438 528 1448 518 1454 c 0
 506 1461 496 1464 487 1464 c 0
 462 1464 443 1452 431 1427 c 0
 419 1402 412 1363 411 1309 c 1
 287 1309 l 1
 288 1398 305 1468 339 1517 c 0
 373 1566 420 1591 481 1591 c 0
 507 1591 531 1586 552 1577 c 0
 573 1568 596 1552 621 1530 c 1
 678 1475 l 2
 692 1462 704 1452 716 1446 c 0
 726 1439 736 1436 745 1436 c 0
 771 1436 790 1448 802 1473 c 0
 814 1498 820 1537 821 1591 c 1
 946 1591 l 1
 945 1502 928 1432 894 1383 c 0
 860 1334 813 1309 752 1309 c 0
 726 1309 702 1314 681 1323 c 0
 660 1332 637 1348 612 1370 c 1
EndSplineSet
Validated: 1
EndChar

StartChar: hungarumlaut
Encoding: 733 733 322
Width: 1233
VWidth: 2048
Flags: W
HStem: 1262 376
VStem: 344 703
LayerCount: 2
Fore
SplineSet
535 1638 m 1
 705 1638 l 1
 481 1262 l 1
 344 1262 l 1
 535 1638 l 1
868 1638 m 1
 1047 1638 l 1
 799 1262 l 1
 664 1262 l 1
 868 1638 l 1
EndSplineSet
Validated: 1
EndChar

StartChar: uni02DE
Encoding: 734 734 323
Width: 1233
VWidth: 2048
Flags: W
HStem: 478 156<491.189 883> 702 166<-350 -271.738>
VStem: 268 184<683.572 864>
LayerCount: 2
Fore
SplineSet
-351 868 m 1
 268 1032 l 1
 452 1032 l 1
 452 884 l 2
 452 782 465 715 490 682 c 0
 515 650 563 634 633 634 c 2
 883 634 l 1
 883 478 l 1
 612 478 l 2
 495 478 408 510 350 574 c 0
 295 634 268 731 268 864 c 1
 -350 702 l 1
 -351 868 l 1
EndSplineSet
Validated: 1
EndChar

StartChar: uni02E0
Encoding: 736 736 324
Width: 1233
VWidth: 2048
Flags: W
HStem: 427 91<488.844 734.734>
VStem: 362 118<528.027 790.365> 744 127<525.21 797.075>
LayerCount: 2
Fore
SplineSet
693 988 m 1
 812 822 871 679 871 559 c 0
 871 473 790 429 629 427 c 0
 452 425 363 469 362 559 c 0
 361 687 422 831 543 992 c 1
 293 1295 l 1
 429 1295 l 1
 620 1071 l 1
 804 1295 l 1
 940 1295 l 1
 693 988 l 1
616 921 m 1
 523 805 478 696 480 595 c 0
 481 544 526 518 616 518 c 0
 701 518 744 544 744 595 c 0
 745 688 702 797 616 921 c 1
EndSplineSet
Validated: 33
EndChar

StartChar: uni02E1
Encoding: 737 737 325
Width: 1233
VWidth: 2048
Flags: W
HStem: 668 87<672.897 892> 1465 81<342 528>
VStem: 528 116<791.133 1465>
LayerCount: 2
Fore
SplineSet
644 895 m 2
 644 849 653 814 672 790 c 0
 691 767 719 755 756 755 c 2
 892 755 l 1
 892 668 l 1
 746 668 l 2
 677 668 623 688 585 728 c 0
 547 767 528 823 528 895 c 2
 528 1465 l 1
 342 1465 l 1
 342 1546 l 1
 644 1546 l 1
 644 895 l 2
EndSplineSet
Validated: 1
EndChar

StartChar: uni02E2
Encoding: 738 738 326
Width: 1233
VWidth: 2048
Flags: W
HStem: 668 86<387.05 721.631> 1240 87<496.061 846.475>
VStem: 352 112<1084.58 1218.76> 767 119<780.483 920.204>
LayerCount: 2
Fore
SplineSet
848 1293 m 1
 848 1196 l 1
 815 1211 781 1222 746 1229 c 0
 711 1236 674 1240 637 1240 c 0
 579 1240 536 1232 507 1216 c 0
 478 1201 464 1177 464 1146 c 0
 464 1122 474 1103 495 1090 c 0
 516 1076 557 1063 619 1051 c 2
 659 1043 l 2
 742 1027 801 1005 834 977 c 0
 869 948 886 908 886 857 c 0
 886 799 860 753 808 719 c 0
 757 685 685 668 594 668 c 0
 557 668 518 671 476 678 c 0
 436 685 392 694 347 707 c 1
 347 814 l 1
 390 794 432 779 474 769 c 0
 515 759 556 754 597 754 c 0
 652 754 694 762 723 779 c 0
 752 796 767 819 767 849 c 0
 767 877 756 899 735 914 c 0
 716 927 670 942 596 957 c 1
 555 965 l 2
 484 979 432 1000 400 1028 c 0
 368 1055 352 1093 352 1142 c 0
 352 1201 376 1246 422 1278 c 0
 470 1311 536 1327 623 1327 c 0
 666 1327 706 1324 744 1318 c 0
 781 1313 816 1304 848 1293 c 1
EndSplineSet
Validated: 1
EndChar

StartChar: uni02E3
Encoding: 739 739 327
Width: 1233
VWidth: 2048
Flags: W
HStem: 668 627
VStem: 274 685
LayerCount: 2
Fore
SplineSet
945 1295 m 1
 690 990 l 1
 959 668 l 1
 822 668 l 1
 616 914 l 1
 411 668 l 1
 274 668 l 1
 548 996 l 1
 298 1295 l 1
 434 1295 l 1
 622 1072 l 1
 809 1295 l 1
 945 1295 l 1
EndSplineSet
Validated: 1
EndChar

StartChar: uni02E4
Encoding: 740 740 328
Width: 1233
VWidth: 2048
Flags: W
HStem: 1451 87<535.944 872.172>
VStem: 350 123<1167.98 1396.8> 596 127<668 1048.29>
LayerCount: 2
Fore
SplineSet
723 1115 m 1
 723 668 l 1
 596 668 l 1
 596 1033 l 1
 525 1044 465 1072 418 1117 c 0
 373 1160 350 1213 350 1276 c 0
 350 1345 373 1403 420 1450 c 1
 477 1509 564 1538 679 1538 c 0
 715 1538 750 1535 784 1528 c 0
 818 1522 851 1512 883 1499 c 1
 883 1403 l 1
 850 1419 817 1431 784 1439 c 0
 751 1447 718 1451 684 1451 c 0
 609 1451 550 1430 509 1387 c 0
 485 1363 473 1326 473 1276 c 0
 473 1239 485 1207 509 1179 c 0
 545 1136 603 1115 684 1115 c 2
 723 1115 l 1
EndSplineSet
Validated: 1
EndChar

StartChar: uni02E5
Encoding: 741 741 329
Width: 1233
VWidth: 2048
Flags: W
HStem: 0 21G<797 933> 1232 136<300 797>
VStem: 797 136<0 1232>
LayerCount: 2
Fore
SplineSet
797 0 m 1
 797 1232 l 1
 300 1232 l 1
 300 1368 l 1
 933 1368 l 1
 933 0 l 1
 797 0 l 1
EndSplineSet
Validated: 1
EndChar

StartChar: uni02E6
Encoding: 742 742 330
Width: 1233
VWidth: 2048
Flags: W
HStem: 0 21G<797 933> 924 136<300 797>
VStem: 797 136<0 924 1060 1368>
LayerCount: 2
Fore
SplineSet
797 0 m 1
 797 924 l 1
 300 924 l 1
 300 1060 l 1
 797 1060 l 1
 797 1368 l 1
 933 1368 l 1
 933 0 l 1
 797 0 l 1
EndSplineSet
Validated: 1
EndChar

StartChar: uni02E7
Encoding: 743 743 331
Width: 1233
VWidth: 2048
Flags: W
HStem: 0 21G<797 933> 616 136<300 797>
VStem: 797 136<0 616 752 1368>
LayerCount: 2
Fore
SplineSet
797 752 m 1
 797 1368 l 1
 933 1368 l 1
 933 0 l 1
 797 0 l 1
 797 616 l 1
 300 616 l 1
 300 752 l 1
 797 752 l 1
EndSplineSet
Validated: 1
EndChar

StartChar: uni02E8
Encoding: 744 744 332
Width: 1233
VWidth: 2048
Flags: W
HStem: 0 21G<797 933> 308 136<300 797>
VStem: 797 136<0 308 444 1368>
LayerCount: 2
Fore
SplineSet
797 444 m 1
 797 1368 l 1
 933 1368 l 1
 933 0 l 1
 797 0 l 1
 797 308 l 1
 300 308 l 1
 300 444 l 1
 797 444 l 1
EndSplineSet
Validated: 1
EndChar

StartChar: uni02E9
Encoding: 745 745 333
Width: 1233
VWidth: 2048
Flags: W
HStem: 0 136<300 797>
VStem: 797 136<136 1368>
LayerCount: 2
Fore
SplineSet
797 136 m 1
 797 1368 l 1
 933 1368 l 1
 933 0 l 1
 300 0 l 1
 300 136 l 1
 797 136 l 1
EndSplineSet
Validated: 1
EndChar

StartChar: uni02EE
Encoding: 750 750 334
Width: 1233
VWidth: 2048
Flags: W
HStem: 967 589<309 365 768 823>
VStem: 309 252<1350 1556> 768 252<1350 1556>
LayerCount: 2
Fore
SplineSet
768 1556 m 1
 1020 1556 l 1
 1020 1350 l 1
 823 967 l 1
 670 967 l 1
 768 1350 l 1
 768 1556 l 1
309 1556 m 1
 561 1556 l 1
 561 1350 l 1
 365 967 l 1
 211 967 l 1
 309 1350 l 1
 309 1556 l 1
EndSplineSet
Validated: 1
EndChar

StartChar: uni02F3
Encoding: 755 755 335
Width: 1233
VWidth: 2048
Flags: W
HStem: -502 98<525.155 713.408> -161 98<525.155 707.211>
VStem: 397 98<-373.345 -191.155> 738 98<-379.042 -191.178>
LayerCount: 2
Fore
SplineSet
836 -282 m 0
 836 -343 815 -395 772 -438 c 0
 730 -481 678 -502 616 -502 c 0
 555 -502 503 -481 460 -438 c 0
 418 -395 397 -343 397 -282 c 0
 397 -221 418 -169 460 -126 c 0
 503 -84 555 -63 616 -63 c 0
 678 -63 730 -84 772 -126 c 0
 815 -169 836 -221 836 -282 c 0
738 -282 m 0
 738 -249 726 -220 702 -196 c 0
 679 -173 650 -161 616 -161 c 0
 582 -161 553 -173 530 -196 c 0
 507 -219 495 -248 495 -282 c 0
 495 -317 507 -346 530 -369 c 0
 553 -392 582 -404 616 -404 c 0
 650 -404 679 -392 702 -368 c 0
 726 -345 738 -316 738 -282 c 0
EndSplineSet
Validated: 1
EndChar

StartChar: gravecomb
Encoding: 768 768 336
Width: 1233
VWidth: 2048
Flags: W
HStem: 1262 376
VStem: 279 479
LayerCount: 2
Fore
SplineSet
477 1638 m 1
 758 1262 l 1
 604 1262 l 1
 279 1638 l 1
 477 1638 l 1
EndSplineSet
Validated: 1
EndChar

StartChar: acutecomb
Encoding: 769 769 337
Width: 1233
VWidth: 2048
Flags: W
HStem: 1262 376
VStem: 475 479
LayerCount: 2
Fore
SplineSet
756 1638 m 1
 954 1638 l 1
 629 1262 l 1
 475 1262 l 1
 756 1638 l 1
EndSplineSet
Validated: 1
EndChar

StartChar: uni0302
Encoding: 770 770 338
Width: 1233
VWidth: 2048
Flags: W
HStem: 1262 376
VStem: 297 639
LayerCount: 2
Fore
SplineSet
543 1638 m 1
 690 1638 l 1
 936 1262 l 1
 797 1262 l 1
 616 1507 l 1
 436 1262 l 1
 297 1262 l 1
 543 1638 l 1
EndSplineSet
Validated: 1
EndChar

StartChar: tildecomb
Encoding: 771 771 339
Width: 1233
VWidth: 2048
Flags: W
HStem: 1309 127<653.208 805.708> 1464 127<427.292 579.792>
VStem: 287 124<1309 1425.82> 821 125<1474.18 1591>
LayerCount: 2
Fore
SplineSet
612 1370 m 1
 555 1425 l 2
 541 1438 528 1448 518 1454 c 0
 506 1461 496 1464 487 1464 c 0
 462 1464 443 1452 431 1427 c 0
 419 1402 412 1363 411 1309 c 1
 287 1309 l 1
 288 1398 305 1468 339 1517 c 0
 373 1566 420 1591 481 1591 c 0
 507 1591 531 1586 552 1577 c 0
 573 1568 596 1552 621 1530 c 1
 678 1475 l 2
 692 1462 704 1452 716 1446 c 0
 726 1439 736 1436 745 1436 c 0
 771 1436 790 1448 802 1473 c 0
 814 1498 820 1537 821 1591 c 1
 946 1591 l 1
 945 1502 928 1432 894 1383 c 0
 860 1334 813 1309 752 1309 c 0
 726 1309 702 1314 681 1323 c 0
 660 1332 637 1348 612 1370 c 1
EndSplineSet
Validated: 1
EndChar

StartChar: uni0304
Encoding: 772 772 340
Width: 1233
VWidth: 2048
Flags: W
HStem: 1378 148<317 915>
VStem: 317 598<1378 1526>
LayerCount: 2
Fore
SplineSet
317 1526 m 1
 915 1526 l 1
 915 1378 l 1
 317 1378 l 1
 317 1526 l 1
EndSplineSet
Validated: 1
EndChar

StartChar: uni0305
Encoding: 773 773 341
Width: 1233
VWidth: 2048
Flags: W
HStem: 1467 80<0 1233>
LayerCount: 2
Fore
SplineSet
1233 1547 m 1
 1233 1467 l 1
 0 1467 l 1
 0 1547 l 1
 1233 1547 l 1
EndSplineSet
Validated: 1
EndChar

StartChar: uni0306
Encoding: 774 774 342
Width: 1233
VWidth: 2048
Flags: W
HStem: 1321 137<468.825 761.061>
VStem: 303 119<1496.6 1608> 811 119<1500.12 1608>
LayerCount: 2
Fore
SplineSet
303 1608 m 1
 422 1608 l 1
 429 1557 449 1520 481 1495 c 0
 513 1470 558 1458 616 1458 c 0
 673 1458 717 1470 749 1495 c 0
 781 1520 802 1557 811 1608 c 1
 930 1608 l 1
 923 1513 893 1441 840 1393 c 0
 787 1345 713 1321 616 1321 c 0
 520 1321 446 1345 393 1393 c 0
 340 1441 310 1513 303 1608 c 1
EndSplineSet
Validated: 1
EndChar

StartChar: uni0307
Encoding: 775 775 343
Width: 1233
VWidth: 2048
Flags: W
HStem: 1348 204<513 718>
VStem: 513 205<1348 1552>
LayerCount: 2
Fore
SplineSet
513 1552 m 1
 718 1552 l 1
 718 1348 l 1
 513 1348 l 1
 513 1552 l 1
EndSplineSet
Validated: 1
EndChar

StartChar: uni0308
Encoding: 776 776 344
Width: 1233
VWidth: 2048
Flags: W
HStem: 1350 202<319 522 711 913>
VStem: 319 203<1350 1552> 711 202<1350 1552>
LayerCount: 2
Fore
SplineSet
319 1552 m 1
 522 1552 l 1
 522 1350 l 1
 319 1350 l 1
 319 1552 l 1
711 1552 m 1
 913 1552 l 1
 913 1350 l 1
 711 1350 l 1
 711 1552 l 1
EndSplineSet
Validated: 1
EndChar

StartChar: hookabovecomb
Encoding: 777 777 345
Width: 1233
VWidth: 2048
Flags: W
HStem: 1266 108<546 642.897> 1611 123<412.347 677.416>
VStem: 546 148<1266 1403.38> 684 140<1444.62 1603.75>
LayerCount: 2
Fore
SplineSet
586 1734 m 0xd0
 739 1734 818 1677 823 1564 c 0
 824 1561 824 1557 824 1554 c 0xd0
 824 1511 815 1478 796 1454 c 0
 763 1409 729 1376 694 1354 c 1
 694 1266 l 1
 546 1266 l 1
 546 1374 l 1xe0
 591 1389 629 1412 662 1444 c 1
 677 1457 684 1482 684 1517 c 0
 684 1580 644 1611 564 1611 c 0
 504 1611 453 1600 410 1579 c 1
 410 1710 l 1
 467 1726 526 1734 586 1734 c 0xd0
EndSplineSet
Validated: 1
EndChar

StartChar: uni030A
Encoding: 778 778 346
Width: 1233
VWidth: 2048
Flags: W
HStem: 1249 123<502.044 730.172> 1675 123<502.044 730.172>
VStem: 342 123<1409.9 1637.96> 768 123<1409.92 1637.48>
LayerCount: 2
Fore
SplineSet
891 1524 m 0
 891 1447 864 1382 812 1329 c 0
 758 1276 693 1249 616 1249 c 0
 539 1249 474 1276 422 1329 c 0
 368 1382 342 1447 342 1524 c 0
 342 1601 368 1666 422 1718 c 0
 474 1772 539 1798 616 1798 c 0
 693 1798 758 1772 812 1718 c 0
 864 1666 891 1601 891 1524 c 0
768 1524 m 0
 768 1566 753 1602 724 1631 c 0
 695 1660 659 1675 616 1675 c 0
 573 1675 538 1660 508 1632 c 0
 480 1602 465 1567 465 1524 c 0
 465 1481 480 1444 508 1416 c 0
 538 1386 573 1372 616 1372 c 0
 659 1372 695 1387 724 1416 c 0
 753 1445 768 1481 768 1524 c 0
EndSplineSet
Validated: 1
EndChar

StartChar: uni030B
Encoding: 779 779 347
Width: 1233
VWidth: 2048
Flags: W
HStem: 1262 376
VStem: 344 703
LayerCount: 2
Fore
SplineSet
535 1638 m 1
 705 1638 l 1
 481 1262 l 1
 344 1262 l 1
 535 1638 l 1
868 1638 m 1
 1047 1638 l 1
 799 1262 l 1
 664 1262 l 1
 868 1638 l 1
EndSplineSet
Validated: 1
EndChar

StartChar: uni030C
Encoding: 780 780 348
Width: 1233
VWidth: 2048
Flags: W
HStem: 1262 376
VStem: 297 639
LayerCount: 2
Fore
SplineSet
543 1262 m 1
 297 1638 l 1
 436 1638 l 1
 616 1393 l 1
 797 1638 l 1
 936 1638 l 1
 690 1262 l 1
 543 1262 l 1
EndSplineSet
Validated: 1
EndChar

StartChar: uni030D
Encoding: 781 781 349
Width: 1233
VWidth: 2048
Flags: W
HStem: 1262 444<546 682>
VStem: 546 136<1262 1706>
LayerCount: 2
Fore
SplineSet
682 1706 m 1
 682 1262 l 1
 546 1262 l 1
 546 1706 l 1
 682 1706 l 1
EndSplineSet
Validated: 1
EndChar

StartChar: uni030E
Encoding: 782 782 350
Width: 1233
VWidth: 2048
Flags: W
HStem: 1262 444<342 478 750 886>
VStem: 342 136<1262 1706> 750 136<1262 1706>
LayerCount: 2
Fore
SplineSet
886 1706 m 1
 886 1262 l 1
 750 1262 l 1
 750 1706 l 1
 886 1706 l 1
478 1706 m 1
 478 1262 l 1
 342 1262 l 1
 342 1706 l 1
 478 1706 l 1
EndSplineSet
Validated: 1
EndChar

StartChar: uni030F
Encoding: 783 783 351
Width: 1233
VWidth: 2048
Flags: W
HStem: 1262 376
VStem: 210 702
LayerCount: 2
Fore
SplineSet
388 1638 m 1
 593 1262 l 1
 458 1262 l 1
 210 1638 l 1
 388 1638 l 1
722 1638 m 1
 912 1262 l 1
 775 1262 l 1
 552 1638 l 1
 722 1638 l 1
EndSplineSet
Validated: 1
EndChar

StartChar: uni0310
Encoding: 784 784 352
Width: 1233
VWidth: 2048
Flags: W
HStem: 1321 137<468.825 761.061> 1552 204<513 718>
VStem: 303 119<1496.6 1608> 513 205<1552 1756> 811 119<1500.12 1608>
LayerCount: 2
Fore
SplineSet
513 1756 m 1
 718 1756 l 1
 718 1552 l 1
 513 1552 l 1
 513 1756 l 1
303 1608 m 1
 422 1608 l 1
 429 1557 449 1520 481 1495 c 0
 513 1470 558 1458 616 1458 c 0
 673 1458 717 1470 749 1495 c 0
 781 1520 802 1557 811 1608 c 1
 930 1608 l 1
 923 1513 893 1441 840 1393 c 0
 787 1345 713 1321 616 1321 c 0
 520 1321 446 1345 393 1393 c 0
 340 1441 310 1513 303 1608 c 1
EndSplineSet
Validated: 1
EndChar

StartChar: uni0311
Encoding: 785 785 353
Width: 1233
VWidth: 2048
Flags: W
HStem: 1471 137<468.825 761.061>
VStem: 303 119<1321 1432.4> 811 119<1321 1428.88>
LayerCount: 2
Fore
SplineSet
303 1321 m 1
 310 1416 340 1488 393 1536 c 0
 446 1584 520 1608 616 1608 c 0
 713 1608 787 1584 840 1536 c 0
 893 1488 923 1416 930 1321 c 1
 811 1321 l 1
 802 1372 781 1409 749 1434 c 0
 717 1459 673 1471 616 1471 c 0
 558 1471 513 1459 481 1434 c 0
 449 1409 429 1372 422 1321 c 1
 303 1321 l 1
EndSplineSet
Validated: 1
EndChar

StartChar: uni0312
Encoding: 786 786 354
Width: 1233
VWidth: 2048
Flags: W
HStem: 967 345<656 708>
VStem: 469 333
LayerCount: 2
Fore
SplineSet
708 967 m 1
 469 967 l 1
 656 1312 l 1
 802 1312 l 1
 708 967 l 1
EndSplineSet
Validated: 1
EndChar

StartChar: uni0313
Encoding: 787 787 355
Width: 1233
VWidth: 2048
Flags: W
HStem: 1218 123<496 595.868> 1475 254<496 608>
VStem: 496 241<1475 1729> 608 129<1350.91 1475>
LayerCount: 2
Fore
SplineSet
737 1475 m 2xe0
 737 1304 657 1218 496 1218 c 1
 496 1341 l 1xe0
 571 1339 608 1384 608 1475 c 1xd0
 496 1475 l 1
 496 1729 l 1
 737 1729 l 1
 737 1475 l 2xe0
EndSplineSet
Validated: 33
EndChar

StartChar: uni0314
Encoding: 788 788 356
Width: 1233
VWidth: 2048
Flags: W
HStem: 1218 123<637.132 737> 1475 254<625 737>
VStem: 496 241<1475 1729> 496 129<1350.91 1475>
LayerCount: 2
Fore
SplineSet
496 1475 m 2xe0
 496 1729 l 1
 737 1729 l 1
 737 1475 l 1xe0
 625 1475 l 1xd0
 625 1386 662 1341 737 1341 c 1
 737 1218 l 1
 576 1218 496 1304 496 1475 c 2xe0
EndSplineSet
Validated: 1
EndChar

StartChar: uni0315
Encoding: 789 789 357
Width: 1233
VWidth: 2048
Flags: W
HStem: 1262 376<544 629>
VStem: 475 267
LayerCount: 2
Fore
SplineSet
544 1638 m 1
 742 1638 l 1
 629 1262 l 1
 475 1262 l 1
 544 1638 l 1
EndSplineSet
Validated: 1
EndChar

StartChar: uni0316
Encoding: 790 790 358
Width: 1233
VWidth: 2048
Flags: W
HStem: -584 376
VStem: 377 479
LayerCount: 2
Fore
SplineSet
575 -208 m 1
 856 -584 l 1
 702 -584 l 1
 377 -208 l 1
 575 -208 l 1
EndSplineSet
Validated: 1
EndChar

StartChar: uni0317
Encoding: 791 791 359
Width: 1233
VWidth: 2048
Flags: W
HStem: -584 376
VStem: 377 479
LayerCount: 2
Fore
SplineSet
658 -208 m 1
 856 -208 l 1
 531 -584 l 1
 377 -584 l 1
 658 -208 l 1
EndSplineSet
Validated: 1
EndChar

StartChar: uni0318
Encoding: 792 792 360
Width: 1233
VWidth: 2048
Flags: W
HStem: -590 136<412 588>
VStem: 412 312<-590 -454> 588 136<-767 -590 -454 -277>
LayerCount: 2
Fore
SplineSet
588 -454 m 1xa0
 588 -277 l 1
 724 -277 l 1
 724 -767 l 1
 588 -767 l 1
 588 -590 l 1xa0
 412 -590 l 1
 412 -454 l 1xc0
 588 -454 l 1xa0
EndSplineSet
Validated: 1
EndChar

StartChar: uni0319
Encoding: 793 793 361
Width: 1233
VWidth: 2048
Flags: W
HStem: -590 136<596 772>
VStem: 460 312<-590 -454> 460 136<-767 -590 -454 -277>
LayerCount: 2
Fore
SplineSet
596 -590 m 1xa0
 596 -767 l 1
 460 -767 l 1
 460 -277 l 1
 596 -277 l 1
 596 -454 l 1xa0
 772 -454 l 1
 772 -590 l 1xc0
 596 -590 l 1xa0
EndSplineSet
Validated: 1
EndChar

StartChar: uni031A
Encoding: 794 794 362
Width: 1233
VWidth: 2048
Flags: W
HStem: 1768 136<372 726>
VStem: 726 136<1414 1768>
LayerCount: 2
Fore
SplineSet
726 1768 m 1
 372 1768 l 1
 372 1904 l 1
 862 1904 l 1
 862 1414 l 1
 726 1414 l 1
 726 1768 l 1
EndSplineSet
Validated: 1
EndChar

StartChar: uni031B
Encoding: 795 795 363
Width: 1233
VWidth: 2048
Flags: W
HStem: 764 139<471.106 676.113>
VStem: 691 123<930.896 1135.83>
LayerCount: 2
Fore
SplineSet
419 872 m 1
 419 991 l 1
 460 961 495 939 524 924 c 0
 553 910 578 903 599 903 c 0
 630 903 653 912 668 930 c 0
 683 949 691 976 691 1012 c 0
 691 1033 688 1054 684 1075 c 0
 678 1096 671 1116 661 1137 c 1
 794 1137 l 1
 801 1112 806 1088 809 1065 c 0
 812 1042 814 1021 814 1001 c 0
 814 920 800 860 770 822 c 0
 742 783 696 764 634 764 c 0
 602 764 568 773 534 790 c 0
 498 808 460 835 419 872 c 1
EndSplineSet
Validated: 1
EndChar

StartChar: uni031C
Encoding: 796 796 364
Width: 1233
VWidth: 2048
Flags: W
HStem: -502 98<628.688 726> -161 98<641.083 726>
VStem: 506 98<-379.042 -191.178>
LayerCount: 2
Fore
SplineSet
726 -404 m 1
 726 -502 l 1
 664 -502 612 -481 570 -438 c 0
 527 -395 506 -343 506 -282 c 0
 506 -221 527 -169 570 -126 c 0
 612 -84 664 -63 726 -63 c 1
 726 -161 l 1
 692 -161 663 -173 640 -196 c 0
 616 -220 604 -249 604 -282 c 0
 604 -316 616 -345 640 -368 c 0
 663 -392 692 -404 726 -404 c 1
EndSplineSet
Validated: 1
EndChar

StartChar: uni031D
Encoding: 797 797 365
Width: 1233
VWidth: 2048
Flags: W
HStem: -590 313<531 667> -590 136<354 531 667 844>
VStem: 531 136<-454 -277>
LayerCount: 2
Fore
SplineSet
667 -454 m 1x60
 844 -454 l 1
 844 -590 l 1
 354 -590 l 1
 354 -454 l 1
 531 -454 l 1x60
 531 -277 l 1
 667 -277 l 1xa0
 667 -454 l 1x60
EndSplineSet
Validated: 1
EndChar

StartChar: uni031E
Encoding: 798 798 366
Width: 1233
VWidth: 2048
Flags: W
HStem: -590 313<527 663> -413 136<350 527 663 840>
VStem: 527 136<-590 -413>
LayerCount: 2
Fore
SplineSet
527 -413 m 1x60
 350 -413 l 1
 350 -277 l 1
 840 -277 l 1
 840 -413 l 1
 663 -413 l 1x60
 663 -590 l 1
 527 -590 l 1xa0
 527 -413 l 1x60
EndSplineSet
Validated: 1
EndChar

StartChar: uni031F
Encoding: 799 799 367
Width: 1233
VWidth: 2048
Flags: W
HStem: -590 136<351 528 664 841>
VStem: 528 136<-767 -590 -454 -277>
LayerCount: 2
Fore
SplineSet
528 -590 m 1
 351 -590 l 1
 351 -454 l 1
 528 -454 l 1
 528 -277 l 1
 664 -277 l 1
 664 -454 l 1
 841 -454 l 1
 841 -590 l 1
 664 -590 l 1
 664 -767 l 1
 528 -767 l 1
 528 -590 l 1
EndSplineSet
Validated: 1
EndChar

StartChar: uni0320
Encoding: 800 800 368
Width: 1233
VWidth: 2048
Flags: W
HStem: -413 136<372 862>
VStem: 372 490<-413 -277>
LayerCount: 2
Fore
SplineSet
372 -413 m 1
 372 -277 l 1
 862 -277 l 1
 862 -413 l 1
 372 -413 l 1
EndSplineSet
Validated: 1
EndChar

StartChar: uni0321
Encoding: 801 801 369
Width: 1233
VWidth: 2048
Flags: W
HStem: -426 156<502 820.583>
VStem: 866 185<-206.062 128>
LayerCount: 2
Fore
SplineSet
1051 128 m 1
 1051 -20 l 2
 1051 -150 1021 -250 962 -320 c 0
 902 -391 817 -426 707 -426 c 2
 502 -426 l 1
 502 -270 l 1
 687 -270 l 2
 747 -270 792 -249 822 -208 c 0
 851 -167 866 -104 866 -20 c 2
 866 128 l 1
 1051 128 l 1
EndSplineSet
Validated: 1
EndChar

StartChar: uni0322
Encoding: 802 802 370
Width: 1233
VWidth: 2048
Flags: W
HStem: -426 156<412.417 731>
VStem: 182 185<-206.062 128>
LayerCount: 2
Fore
SplineSet
182 128 m 1
 367 128 l 1
 367 -20 l 2
 367 -104 382 -167 411 -208 c 0
 441 -249 486 -270 546 -270 c 2
 731 -270 l 1
 731 -426 l 1
 526 -426 l 2
 416 -426 331 -391 271 -320 c 0
 212 -250 182 -150 182 -20 c 2
 182 128 l 1
EndSplineSet
Validated: 1
EndChar

StartChar: dotbelowcomb
Encoding: 803 803 371
Width: 1233
VWidth: 2048
Flags: W
HStem: -413 204<513 718>
VStem: 513 205<-413 -209>
LayerCount: 2
Fore
SplineSet
513 -209 m 1
 718 -209 l 1
 718 -413 l 1
 513 -413 l 1
 513 -209 l 1
EndSplineSet
Validated: 1
EndChar

StartChar: uni0324
Encoding: 804 804 372
Width: 1233
VWidth: 2048
Flags: W
HStem: -412 202<320 522 712 914>
VStem: 320 202<-412 -210> 712 202<-412 -210>
LayerCount: 2
Fore
SplineSet
320 -210 m 1
 522 -210 l 1
 522 -412 l 1
 320 -412 l 1
 320 -210 l 1
712 -210 m 1
 914 -210 l 1
 914 -412 l 1
 712 -412 l 1
 712 -210 l 1
EndSplineSet
Validated: 1
EndChar

StartChar: uni0325
Encoding: 805 805 373
Width: 1233
VWidth: 2048
Flags: W
HStem: -502 98<525.155 713.408> -161 98<525.155 707.211>
VStem: 397 98<-373.345 -191.155> 738 98<-379.042 -191.178>
LayerCount: 2
Fore
SplineSet
836 -282 m 0
 836 -343 815 -395 772 -438 c 0
 730 -481 678 -502 616 -502 c 0
 555 -502 503 -481 460 -438 c 0
 418 -395 397 -343 397 -282 c 0
 397 -221 418 -169 460 -126 c 0
 503 -84 555 -63 616 -63 c 0
 678 -63 730 -84 772 -126 c 0
 815 -169 836 -221 836 -282 c 0
738 -282 m 0
 738 -249 726 -220 702 -196 c 0
 679 -173 650 -161 616 -161 c 0
 582 -161 553 -173 530 -196 c 0
 507 -219 495 -248 495 -282 c 0
 495 -317 507 -346 530 -369 c 0
 553 -392 582 -404 616 -404 c 0
 650 -404 679 -392 702 -368 c 0
 726 -345 738 -316 738 -282 c 0
EndSplineSet
Validated: 1
EndChar

StartChar: uni0326
Encoding: 806 806 374
Width: 1233
VWidth: 2048
Flags: W
HStem: -542 345<502 554>
VStem: 408 333
LayerCount: 2
Fore
SplineSet
502 -197 m 1
 741 -197 l 1
 554 -542 l 1
 408 -542 l 1
 502 -197 l 1
EndSplineSet
Validated: 1
EndChar

StartChar: uni0327
Encoding: 807 807 375
Width: 1233
VWidth: 2048
Flags: W
HStem: -395 123<396.36 639.01> -20 20G<582 718.5>
VStem: 670 139<-255.545 -53.0055>
LayerCount: 2
Fore
SplineSet
700 0 m 1
 737 -41 765 -80 782 -114 c 0
 800 -150 809 -183 809 -215 c 0
 809 -274 789 -319 749 -350 c 0
 709 -380 650 -395 571 -395 c 0
 541 -395 512 -393 482 -389 c 0
 454 -385 424 -379 395 -371 c 1
 395 -240 l 1
 418 -251 442 -260 466 -264 c 0
 492 -270 520 -272 551 -272 c 0
 590 -272 619 -264 640 -248 c 0
 660 -232 670 -209 670 -178 c 0
 670 -158 663 -134 648 -104 c 0
 633 -76 611 -41 582 0 c 1
 700 0 l 1
EndSplineSet
Validated: 1
EndChar

StartChar: uni0328
Encoding: 808 808 376
Width: 1233
VWidth: 2048
Flags: W
HStem: -395 123<596.896 802.016> -20 20G<519.5 657>
VStem: 430 139<-257.034 -52.2257>
LayerCount: 2
Fore
SplineSet
538 0 m 1
 657 0 l 1
 627 -41 605 -76 590 -105 c 0
 576 -134 569 -159 569 -180 c 0
 569 -211 578 -234 596 -249 c 0
 615 -264 642 -272 678 -272 c 0
 699 -272 720 -270 741 -264 c 0
 762 -260 782 -252 803 -242 c 1
 803 -375 l 1
 778 -382 754 -387 731 -390 c 0
 708 -393 687 -395 667 -395 c 0
 586 -395 526 -380 488 -352 c 0
 449 -322 430 -277 430 -215 c 0
 430 -183 439 -150 456 -114 c 0
 474 -80 501 -41 538 0 c 1
EndSplineSet
Validated: 1
EndChar

StartChar: uni0329
Encoding: 809 809 377
Width: 1233
VWidth: 2048
Flags: W
HStem: -653 444<548 684>
VStem: 548 136<-653 -209>
LayerCount: 2
Fore
SplineSet
684 -209 m 1
 684 -653 l 1
 548 -653 l 1
 548 -209 l 1
 684 -209 l 1
EndSplineSet
Validated: 1
EndChar

StartChar: uni032A
Encoding: 810 810 378
Width: 1233
VWidth: 2048
Flags: W
HStem: -539 330<341 478 755 892> -345 136<478 755>
VStem: 341 137<-539 -345> 755 137<-539 -345>
LayerCount: 2
Fore
SplineSet
892 -209 m 1xb0
 892 -539 l 1
 755 -539 l 1xb0
 755 -345 l 1
 478 -345 l 1x70
 478 -539 l 1
 341 -539 l 1
 341 -209 l 1
 892 -209 l 1xb0
EndSplineSet
Validated: 1
EndChar

StartChar: uni032B
Encoding: 811 811 379
Width: 1233
VWidth: 2048
Flags: W
HStem: -455 137<344.15 536.95 695.104 886.204>
VStem: 206 118<-296.375 -168> 558 118<-299.599 -168> 909 118<-299.92 -168>
LayerCount: 2
Fore
SplineSet
616 -373 m 1
 577 -428 518 -455 441 -455 c 0
 296 -455 217 -361 206 -173 c 1
 206 -168 l 1
 324 -168 l 1
 333 -268 371 -318 440 -318 c 0
 508 -318 547 -268 558 -168 c 1
 676 -168 l 1
 683 -267 722 -317 792 -318 c 0
 860 -318 899 -268 909 -168 c 1
 1027 -168 l 1
 1017 -359 939 -454 792 -455 c 0
 715 -455 656 -428 616 -373 c 1
EndSplineSet
Validated: 1
EndChar

StartChar: uni032C
Encoding: 812 812 380
Width: 1233
VWidth: 2048
Flags: W
HStem: -485 376
VStem: 297 639
LayerCount: 2
Fore
SplineSet
543 -485 m 1
 297 -109 l 1
 436 -109 l 1
 616 -354 l 1
 797 -109 l 1
 936 -109 l 1
 690 -485 l 1
 543 -485 l 1
EndSplineSet
Validated: 1
EndChar

StartChar: uni032D
Encoding: 813 813 381
Width: 1233
VWidth: 2048
Flags: W
HStem: -485 376
VStem: 297 639
LayerCount: 2
Fore
SplineSet
543 -109 m 1
 690 -109 l 1
 936 -485 l 1
 797 -485 l 1
 616 -240 l 1
 436 -485 l 1
 297 -485 l 1
 543 -109 l 1
EndSplineSet
Validated: 1
EndChar

StartChar: uni032E
Encoding: 814 814 382
Width: 1233
VWidth: 2048
Flags: W
HStem: -487 137<468.825 761.061>
VStem: 303 119<-311.397 -200> 811 119<-307.879 -200>
LayerCount: 2
Fore
SplineSet
303 -200 m 1
 422 -200 l 1
 429 -251 449 -288 481 -313 c 0
 513 -338 558 -350 616 -350 c 0
 673 -350 717 -338 749 -313 c 0
 781 -288 802 -251 811 -200 c 1
 930 -200 l 1
 923 -295 893 -367 840 -415 c 0
 787 -463 713 -487 616 -487 c 0
 520 -487 446 -463 393 -415 c 0
 340 -367 310 -295 303 -200 c 1
EndSplineSet
Validated: 1
EndChar

StartChar: uni032F
Encoding: 815 815 383
Width: 1233
VWidth: 2048
Flags: W
HStem: -335 137<471.939 764.175>
VStem: 303 119<-485 -377.121> 811 119<-485 -373.603>
LayerCount: 2
Fore
SplineSet
930 -485 m 1
 811 -485 l 1
 804 -434 784 -397 752 -372 c 0
 720 -347 675 -335 617 -335 c 0
 560 -335 516 -347 484 -372 c 0
 452 -397 431 -434 422 -485 c 1
 303 -485 l 1
 310 -390 340 -318 393 -270 c 0
 446 -222 520 -198 617 -198 c 0
 713 -198 787 -222 840 -270 c 0
 893 -318 923 -390 930 -485 c 1
EndSplineSet
Validated: 1
EndChar

StartChar: uni0330
Encoding: 816 816 384
Width: 1233
VWidth: 2048
Flags: W
HStem: -485 127<653.208 805.708> -330 127<427.292 579.792>
VStem: 287 124<-485 -368.182> 821 125<-319.818 -203>
LayerCount: 2
Fore
SplineSet
612 -424 m 1
 555 -369 l 2
 541 -356 528 -346 518 -340 c 0
 506 -333 496 -330 487 -330 c 0
 462 -330 443 -342 431 -367 c 0
 419 -392 412 -431 411 -485 c 1
 287 -485 l 1
 288 -396 305 -326 339 -277 c 0
 373 -228 420 -203 481 -203 c 0
 507 -203 531 -208 552 -217 c 0
 573 -226 596 -242 621 -264 c 1
 678 -319 l 2
 692 -332 704 -342 716 -348 c 0
 726 -355 736 -358 745 -358 c 0
 771 -358 790 -346 802 -321 c 0
 814 -296 820 -257 821 -203 c 1
 946 -203 l 1
 945 -292 928 -362 894 -411 c 0
 860 -460 813 -485 752 -485 c 0
 726 -485 702 -480 681 -471 c 0
 660 -462 637 -446 612 -424 c 1
EndSplineSet
Validated: 1
EndChar

StartChar: uni0331
Encoding: 817 817 385
Width: 1233
VWidth: 2048
Flags: W
HStem: -357 148<318 916>
VStem: 318 598<-357 -209>
LayerCount: 2
Fore
SplineSet
318 -209 m 1
 916 -209 l 1
 916 -357 l 1
 318 -357 l 1
 318 -209 l 1
EndSplineSet
Validated: 1
EndChar

StartChar: uni0332
Encoding: 818 818 386
Width: 1233
VWidth: 2048
Flags: W
HStem: -483 80<0 1233>
LayerCount: 2
Fore
SplineSet
1233 -403 m 1
 1233 -483 l 1
 0 -483 l 1
 0 -403 l 1
 1233 -403 l 1
EndSplineSet
Validated: 1
EndChar

StartChar: uni0333
Encoding: 819 819 387
Width: 1233
VWidth: 2048
Flags: W
HStem: -483 80<0 1233> -243 80<0 1233>
LayerCount: 2
Fore
SplineSet
1233 -403 m 1
 1233 -483 l 1
 0 -483 l 1
 0 -403 l 1
 1233 -403 l 1
1233 -163 m 1
 1233 -243 l 1
 0 -243 l 1
 0 -163 l 1
 1233 -163 l 1
EndSplineSet
Validated: 1
EndChar

StartChar: uni0334
Encoding: 820 820 388
Width: 1233
VWidth: 2048
Flags: W
HStem: 492 165<631.948 1065.91> 614 166<164.625 633.293>
LayerCount: 2
Fore
SplineSet
1145 780 m 1x40
 1145 606 l 1
 1095 567 1046 538 998 520 c 0
 951 501 901 492 848 492 c 0x80
 788 492 720 509 645 543 c 0
 630 550 619 554 612 557 c 0
 561 579 518 594 484 602 c 0
 449 610 415 614 381 614 c 0x40
 328 614 278 604 232 584 c 0
 184 565 137 534 88 492 c 1x80
 88 666 l 1
 140 706 190 735 239 753 c 0
 288 771 340 780 395 780 c 0x40
 430 780 465 776 498 769 c 0
 531 762 573 748 622 727 c 0
 630 724 641 719 655 712 c 0
 732 675 802 657 864 657 c 0x80
 911 657 957 667 1002 688 c 0
 1048 708 1096 739 1145 780 c 1x40
EndSplineSet
Validated: 1
EndChar

StartChar: uni0335
Encoding: 821 821 389
Width: 1233
VWidth: 2048
Flags: W
HStem: 452 164<142 1062>
VStem: 142 920<452 616>
LayerCount: 2
Fore
SplineSet
1062 616 m 1
 1062 452 l 1
 142 452 l 1
 142 616 l 1
 1062 616 l 1
EndSplineSet
Validated: 1
EndChar

StartChar: uni0336
Encoding: 822 822 390
Width: 1233
VWidth: 2048
Flags: W
HStem: 452 164<0 1233>
LayerCount: 2
Fore
SplineSet
0 452 m 1
 0 616 l 1
 1233 616 l 1
 1233 452 l 1
 0 452 l 1
EndSplineSet
Validated: 1
EndChar

StartChar: uni0337
Encoding: 823 823 391
Width: 1233
VWidth: 2048
Flags: W
HStem: -96 21G<114.789 155.816>
LayerCount: 2
Fore
SplineSet
139 -96 m 1
 47 -20 l 1
 1081 1212 l 1
 1174 1135 l 1
 139 -96 l 1
EndSplineSet
Validated: 1
EndChar

StartChar: uni0338
Encoding: 824 824 392
Width: 1233
VWidth: 2048
Flags: W
HStem: -70 21G<81.5714 125.006>
LayerCount: 2
Fore
SplineSet
111 -70 m 1
 8 0 l 1
 1100 1559 l 1
 1200 1485 l 1
 111 -70 l 1
EndSplineSet
Validated: 1
EndChar

StartChar: uni0339
Encoding: 825 825 393
Width: 1233
VWidth: 2048
Flags: W
HStem: -502 98<506 603.312> -161 98<506 590.917>
VStem: 628 98<-379.042 -191.178>
LayerCount: 2
Fore
SplineSet
506 -404 m 1
 540 -404 569 -392 592 -368 c 0
 616 -345 628 -316 628 -282 c 0
 628 -249 616 -220 592 -196 c 0
 569 -173 540 -161 506 -161 c 1
 506 -63 l 1
 568 -63 620 -84 662 -126 c 0
 705 -169 726 -221 726 -282 c 0
 726 -343 705 -395 662 -438 c 0
 620 -481 568 -502 506 -502 c 1
 506 -404 l 1
EndSplineSet
Validated: 1
EndChar

StartChar: uni033A
Encoding: 826 826 394
Width: 1233
VWidth: 2048
Flags: W
HStem: -384 330<341 478 755 892> -384 136<478 755>
VStem: 341 137<-248 -54> 755 137<-248 -54>
LayerCount: 2
Fore
SplineSet
341 -384 m 1xb0
 341 -54 l 1
 478 -54 l 1xb0
 478 -248 l 1
 755 -248 l 1x70
 755 -54 l 1
 892 -54 l 1
 892 -384 l 1
 341 -384 l 1xb0
EndSplineSet
Validated: 1
EndChar

StartChar: uni033B
Encoding: 827 827 395
Width: 1233
VWidth: 2048
Flags: W
HStem: -759 136<478 755> -345 136<478 755>
VStem: 341 137<-623 -345> 755 137<-623 -345>
LayerCount: 2
Fore
SplineSet
892 -209 m 1
 892 -759 l 1
 341 -759 l 1
 341 -209 l 1
 892 -209 l 1
755 -623 m 1
 755 -345 l 1
 478 -345 l 1
 478 -623 l 1
 755 -623 l 1
EndSplineSet
Validated: 1
EndChar

StartChar: uni033C
Encoding: 828 828 396
Width: 1233
VWidth: 2048
Flags: W
HStem: -305 137<346.796 537.985 697.53 889.077>
VStem: 206 118<-455 -323.08> 558 118<-455 -322.725> 910 117<-455 -326.625>
LayerCount: 2
Fore
SplineSet
616 -250 m 1
 656 -195 715 -168 792 -168 c 0
 937 -168 1016 -262 1027 -450 c 1
 1027 -455 l 1
 910 -455 l 1
 901 -355 861 -305 792 -305 c 0
 725 -305 686 -355 676 -455 c 1
 558 -455 l 1
 550 -356 511 -306 441 -305 c 0
 373 -305 334 -355 324 -455 c 1
 206 -455 l 1
 216 -264 294 -169 441 -168 c 0
 518 -168 577 -195 616 -250 c 1
EndSplineSet
Validated: 1
EndChar

StartChar: uni033D
Encoding: 829 829 397
Width: 1233
VWidth: 2048
Flags: W
HStem: 1228 443
VStem: 395 443
LayerCount: 2
Fore
SplineSet
616 1353 m 1
 491 1228 l 1
 395 1324 l 1
 520 1449 l 1
 395 1574 l 1
 491 1671 l 1
 616 1545 l 1
 742 1671 l 1
 838 1574 l 1
 713 1449 l 1
 838 1324 l 1
 742 1228 l 1
 616 1353 l 1
EndSplineSet
Validated: 1
EndChar

